<svg width="571" height="441" viewBox="0 0 571 441" fill="none" xmlns="http://www.w3.org/2000/svg">
<g style="mix-blend-mode:multiply" opacity="0.2">
<path d="M295.835 440.355C290.656 440.355 284.47 438.998 276.233 435.926C254.372 427.595 231.954 402.574 208.286 376.114C195.253 361.583 181.803 346.553 168.283 334.237C148.542 311.984 115.072 296.65 82.6806 281.787C59.0123 270.937 36.6646 260.668 19.3565 247.992L19.3218 247.964C6.32329 238.111 0.241124 228.589 0.727698 218.874C1.66609 199.915 27.6283 183.031 57.7263 163.491L60.611 161.609C82.9239 147.05 110.937 127.564 151.496 98.4748L154.937 96.0945C191.221 70.9628 236.403 39.6866 294.931 20.7271C412.16 -23.198 514.758 10.8183 547.15 47.6855C580.932 90.7803 578.013 136.532 536.028 222.639C492.063 312.399 394.679 381.788 354.849 407.445C338.549 415.915 328.331 423.416 320.893 428.896C311.44 435.815 305.288 440.355 295.835 440.355ZM22.415 245.335C39.3408 257.734 61.4799 267.892 84.9049 278.659C117.679 293.688 151.6 309.243 171.758 331.995C185.313 344.312 198.833 359.424 211.901 374.01C235.256 400.083 257.326 424.716 278.109 432.66C298.65 440.271 303.481 436.729 317.835 426.211C325.411 420.648 335.803 413.009 352.208 404.484C391.551 379.103 488.24 310.24 531.823 221.282C573.216 136.421 576.24 91.4999 543.396 49.623C511.943 13.8629 411.743 -19.1293 296.738 23.9654C238.801 42.7588 193.932 73.8136 157.891 98.7516L154.485 101.132C113.891 130.249 85.8433 149.762 63.4609 164.349L60.5763 166.231C31.3123 185.218 6.08001 201.631 5.21113 218.958C4.79407 227.621 10.4244 236.229 22.415 245.335Z" fill="#CCCCCC"/>
<path d="M289.089 415.278C281.929 415.278 274.353 413.451 263.926 410.213L263.718 410.157C243.699 402.159 227.85 382.867 211.098 362.468C199.664 348.518 187.812 334.126 173.562 321.588C153.474 301.244 128.207 285.412 103.809 270.106C87.4042 259.838 71.9034 250.123 58.3836 239.384L58.1403 239.162C30.6142 209.298 50.3551 196.123 86.153 172.181C90.0456 169.58 94.1467 166.839 98.4216 163.906C106.832 158.951 115.799 153.416 125.322 147.548C167.619 121.447 225.591 85.715 307.37 56.7084C407.326 26.2348 484.553 48.2666 516.805 83.6115C549.128 120.451 536.581 164.791 500.262 238.858C460.467 313.755 387.829 362.247 348.799 388.292L344.454 391.198C315.433 408.358 302.991 415.278 289.089 415.278ZM265.664 406.891C294.128 415.693 298.959 413.59 341.674 388.403L345.914 385.579C384.631 359.728 456.714 311.596 496.091 237.557C531.82 164.736 544.297 121.226 513.156 85.7427C481.946 51.5326 406.736 30.3035 309.108 60.0574C227.92 88.8426 170.226 124.437 128.068 150.399C118.545 156.266 109.578 161.802 101.237 166.729C97.0662 169.58 92.9651 172.32 89.0725 174.949C53.2398 198.918 36.8353 209.879 61.6853 236.948C74.9966 247.493 90.3585 257.098 106.589 267.283C131.231 282.7 156.671 298.67 177.003 319.263C191.392 331.912 203.348 346.443 214.886 360.503C231.256 380.431 246.757 399.28 265.664 406.891Z" fill="#CCCCCC"/>
<path d="M283.26 394.355C274.12 394.355 265.639 391.753 255.074 387.324C237.418 378.855 223.238 361.335 208.224 342.818C199.326 331.802 190.081 320.426 179.516 309.992C164.745 293.606 147.228 279.601 130.337 266.039C116.47 254.912 103.367 244.422 93.0447 233.6L92.9057 233.434C71.9831 205.369 93.6008 192.277 132.874 168.501L133.326 168.225L140.59 164.267C181.949 141.82 238.6 111.069 316.208 88.7885C407.823 65.5112 466.142 89.2313 488.282 116.577C511.95 145.75 506.146 184.914 468.263 251.757C440.667 298.339 395.624 340.216 334.42 376.225C310.752 389.013 296.328 394.355 283.26 394.355ZM96.694 231.469C106.843 242.07 119.806 252.477 133.535 263.465C150.565 277.11 168.186 291.254 183.096 307.777C193.765 318.267 203.045 329.754 212.012 340.853C226.713 359.037 240.616 376.198 257.298 384.197C281.349 394.327 293.339 394.133 331.813 373.291C392.357 337.642 436.913 296.236 464.161 250.235C501.315 184.665 507.223 146.497 484.493 118.487C461.52 90.117 401.046 70.9638 317.633 92.1375C240.65 114.252 184.277 144.837 143.127 167.2L135.585 171.325C96.0337 195.266 77.9262 206.227 96.694 231.469Z" fill="#CCCCCC"/>
<path d="M279.995 375.312C269.777 375.312 260.185 372.517 249.48 367.036L249.411 367.009C233.284 358.207 220.286 341.656 206.523 324.163C200.163 316.053 193.559 307.695 186.399 299.723C176.842 288.043 166.241 277.249 155.989 266.842C143.407 254.054 131.486 241.959 123.701 230.224C110.112 205.452 129.992 192.498 164.33 174.037C199.711 156.6 254.381 131.745 321.389 117.076C385.373 106.586 433.301 115 456.483 140.74C481.506 168.474 475.285 212.454 439.418 261.417C401.847 319.043 342.451 352.837 325.142 361.805C306.722 370.884 292.855 375.312 279.995 375.312ZM251.913 364.019C271.932 374.233 287.642 376.059 322.71 358.761C339.74 349.931 398.372 316.579 435.456 259.673C470.419 211.928 476.745 169.359 452.799 142.844C430.694 118.321 384.4 110.433 322.397 120.591C256.084 135.122 201.796 159.783 166.728 177.082C131.382 196.069 115.985 207.361 127.698 228.701C135.24 240.022 147.022 251.979 159.499 264.655C169.821 275.145 180.491 285.967 190.084 297.73C197.278 305.702 203.881 314.143 210.276 322.281C223.831 339.414 236.586 355.633 251.913 364.019Z" fill="#CCCCCC"/>
<path d="M277.838 357.929C266.994 357.929 257.02 354.967 246.663 349.044L246.385 348.85C206.729 316.882 159.844 243.673 150.842 229.336L150.703 229.004C143.683 208.467 159.531 196.399 191.193 181.315C221.013 167.974 268.107 150.371 323.298 142.15C374.11 135.784 412.167 144.364 430.518 166.313C450.885 190.697 444.663 227.758 413.488 268.002C386.031 306.807 345.576 334.734 316.868 347.909C301.854 354.607 289.342 357.929 277.838 357.929ZM249.443 346.221C269.288 357.486 286.979 357.098 314.609 344.781C342.796 331.856 382.521 304.399 409.595 266.176C439.415 227.675 445.81 191.113 426.764 168.306C409.456 147.575 372.963 139.521 324.063 145.693C269.532 153.83 222.96 171.267 193.452 184.442C163.146 198.863 148.861 209.574 154.978 227.925C180.836 269.11 219.171 321.753 249.443 346.221Z" fill="#CCCCCC"/>
<path d="M276.251 341.905C264.643 341.905 254.599 338.832 246.987 332.881C216.542 309.383 184.845 259.811 175.496 230.002C173.967 223.11 176.156 216.384 181.925 209.963C199.72 190.173 252.444 173.096 322.997 164.294C362.792 161.222 392.473 169.719 406.653 188.236C422.71 209.216 416.94 239.745 390.839 271.962C356.883 312.732 316.255 338.749 282.16 341.628C280.144 341.822 278.163 341.905 276.251 341.905ZM338.498 167.256C333.702 167.256 328.732 167.45 323.588 167.865C254.355 176.5 202.709 193.024 185.644 212.067C180.57 217.713 178.659 223.498 179.944 229.282C189.12 258.483 220.261 307.252 250.185 330.335C258.074 336.48 268.987 339.164 281.708 338.085C314.482 335.317 353.894 309.881 387.086 270.025C411.831 239.468 417.74 209.603 402.83 190.118C391.395 175.199 368.839 167.256 338.498 167.256Z" fill="#CCCCCC"/>
<path d="M277.18 326.68C266.406 326.68 256.917 323.912 249.514 318.543C223.1 299.473 198.668 259.146 197.277 232.27V232.215C197.104 207.443 248.819 187.1 320.207 183.889C350.617 183.308 373.174 191.39 383.774 206.723C395.938 224.299 390.934 248.683 370.046 273.649C344.223 303.984 311.9 323.691 283.54 326.376C281.35 326.569 279.23 326.68 277.18 326.68ZM201.795 232.16C203.186 258.232 226.889 297.369 252.573 315.886C260.393 321.56 270.889 323.94 282.984 322.805C310.058 320.231 341.199 301.106 366.292 271.628C386.207 247.825 391.142 224.769 379.812 208.412C370.046 194.324 348.984 186.85 320.38 187.432C252.677 190.504 201.656 209.74 201.795 232.16Z" fill="#CCCCCC"/>
<path d="M277.956 312.261C268.537 312.261 260.126 309.963 253.349 305.452C229.542 289.703 212.616 257.818 216.335 235.786C220.366 214.64 263.706 199.472 314.866 201.216C337.318 202.24 353.861 209.603 361.507 221.919C370.266 236.035 366.269 254.773 350.49 273.29C331.861 294.962 307.289 309.382 284.768 311.873C282.439 312.15 280.18 312.261 277.956 312.261ZM306.768 204.676C261.378 204.676 224.294 218.045 220.818 236.312C217.343 256.877 233.886 287.904 256.234 302.712C263.602 307.583 273.229 309.521 284.142 308.33C305.447 305.978 328.838 292.111 346.771 271.269C361.612 253.86 365.504 236.45 357.476 223.497C350.594 212.398 335.372 205.755 314.657 204.787C312.016 204.731 309.375 204.676 306.768 204.676Z" fill="#CCCCCC"/>
<path d="M280.082 298.476C272.506 298.476 265.624 296.733 259.855 293.328C239.87 281.51 228.644 257.734 234.831 240.325C241.122 223.109 273.792 212.757 309.138 216.743C324.812 218.598 336.316 224.797 341.53 234.208C347.438 244.864 344.518 258.371 333.536 271.269C320.92 285.994 303.994 295.736 287.103 297.978C284.739 298.31 282.376 298.476 280.082 298.476ZM239.175 241.321C233.545 257.125 244.25 279.628 262.531 290.45C269.03 294.297 277.267 295.681 286.373 294.463C301.839 292.387 318.104 282.977 329.852 269.276C339.931 257.43 342.676 245.196 337.428 235.675C332.875 227.427 322.588 221.974 308.512 220.314C275.877 216.605 244.771 226.043 239.175 241.321Z" fill="#CCCCCC"/>
<path d="M281.828 285.136C276.579 285.136 271.505 284.057 267.057 281.732C252.181 274.065 245.23 257.79 251.521 245.474C257.846 233.212 280.403 226.597 301.847 230.749C311.752 232.659 318.981 237.336 322.213 243.868C325.758 251.065 323.951 259.811 317.278 267.838C308.068 278.853 294.409 285.136 281.828 285.136ZM269.489 278.743C282.314 285.358 302.055 279.601 313.524 265.872C319.363 258.842 321.031 251.286 318.008 245.197C315.332 239.772 309.215 235.869 300.769 234.236C281.41 230.5 261.183 236.146 255.692 246.83C250.166 257.652 256.352 271.962 269.489 278.743Z" fill="#CCCCCC"/>
<path d="M283.136 272.044C280.286 272.044 277.505 271.518 274.968 270.411C266.279 266.619 262.769 257.901 267.183 250.954C271.527 244.089 283.448 240.796 293.701 243.619C298.636 244.975 302.251 247.688 303.815 251.286C305.483 255.078 304.684 259.506 301.591 263.409C297.177 268.917 290.052 272.044 283.136 272.044ZM285.916 246.193C279.625 246.193 273.682 248.601 271.145 252.587C267.843 257.818 270.485 264.405 277.088 267.256C283.657 270.135 292.937 267.533 297.733 261.471C300.131 258.454 300.756 255.271 299.505 252.448C298.393 249.902 295.786 247.964 292.172 246.968C290.121 246.442 288.001 246.193 285.916 246.193Z" fill="#CCCCCC"/>
</g>
</svg>
