<svg width="1532" height="701" viewBox="0 0 1532 701" fill="none" xmlns="http://www.w3.org/2000/svg">
<g opacity="0.3">
<path d="M586.714 700.767C581.247 700.767 575.925 700.195 570.811 699.053C560.085 696.658 550.176 691.739 541.358 684.433C531.88 676.583 523.567 665.886 516.649 652.641C502.744 626.018 495.787 594.136 489.059 563.302C487.737 557.248 486.371 550.988 484.983 544.913C475.516 503.512 463.515 467.247 448.297 434.046C417.938 367.815 375.245 311.292 324.829 270.587C266.523 223.515 203.835 200.066 148.311 204.562C115.677 207.206 72.5582 232.346 53.2873 275.28C41.8509 300.761 40.9287 329.038 50.6223 357.05L50.4298 357.169C45.3472 342.478 43.1326 327.75 43.8497 313.394C44.5075 300.225 47.6209 287.352 53.1054 275.133C61.8282 255.699 76.2131 238.474 94.7056 225.319C111.794 213.165 130.826 205.692 148.299 204.277C177.356 201.926 208.26 207.144 240.152 219.788C269.061 231.252 297.588 248.26 324.939 270.342C375.384 311.069 418.103 367.623 448.479 433.893C463.705 467.117 475.713 503.402 485.186 544.826C486.576 550.9 487.942 557.163 489.262 563.218C495.984 594.029 502.937 625.889 516.822 652.472C530.251 678.184 548.429 693.76 570.847 698.766C601.892 705.7 639.592 691.198 671.691 659.969C717.949 614.969 750.052 549.468 781.1 486.127C786.542 475.024 792.169 463.543 797.74 452.457C812.203 423.67 831.791 386.367 855.07 353.135C878.865 319.167 903.045 294.21 928.994 276.836C944.876 266.201 961.708 259.036 979.023 255.541C995.015 252.31 1011.94 252.11 1029.33 254.94C1059.17 259.797 1091.31 273.516 1127.6 296.877C1199.05 342.881 1270.42 398.719 1339.73 462.844C1405.61 523.793 1470.22 592.761 1531.77 667.825L1531.63 668.034C1404.04 512.428 1268.07 387.639 1127.5 297.13C1048.09 245.997 985.038 239.626 929.089 277.087C872.169 315.195 832.407 383.969 797.915 452.612C792.346 463.695 786.72 475.176 781.278 486.279C750.222 549.643 718.108 615.164 671.818 660.195C656.86 674.748 640.032 686.099 623.156 693.019C614.24 696.674 605.378 699.065 596.812 700.125C593.398 700.556 590.029 700.767 586.714 700.767Z" fill="#A1A1A1"/>
<path d="M592.06 684.98C578.117 684.98 565.202 681.443 553.66 674.461C540.789 666.675 529.683 654.611 520.647 638.607C519.847 637.189 519.054 635.723 518.288 634.246C504.532 607.739 497.266 576.272 490.242 545.838C488.821 539.688 487.353 533.326 485.864 527.153C476.995 490.397 466.316 458.002 453.213 428.121C451.599 424.443 449.928 420.756 448.242 417.165C417.437 351.503 374.397 295.696 323.774 255.775C265.047 209.506 202.182 187.027 146.757 192.481C114.36 195.703 71.4397 221.254 52.0864 263.859C40.4976 289.371 39.1862 317.704 48.2897 345.798L48.0951 345.911C43.3234 331.186 41.3627 316.43 42.2701 302.058C43.1035 288.858 46.3438 275.957 51.9045 263.712C60.716 244.311 75.0587 227.067 93.3777 213.844C110.309 201.622 129.259 193.936 146.738 192.199C175.76 189.344 206.697 194.063 238.691 206.222C267.67 217.238 296.332 233.829 323.879 255.533C374.532 295.476 417.596 351.317 448.42 417.015C450.105 420.609 451.779 424.299 453.392 427.98C466.504 457.881 477.19 490.293 486.063 527.068C487.554 533.241 489.022 539.603 490.443 545.756C497.465 576.17 504.724 607.615 518.462 634.086C519.225 635.557 520.019 637.023 520.816 638.438C539.488 671.521 565.145 684.98 592.125 684.98C592.273 684.98 592.419 684.98 592.567 684.98C592.398 684.977 592.229 684.98 592.06 684.98ZM597.815 684.783C622.898 683.066 648.781 670.221 670.985 651.113C718.882 609.727 753.306 545.804 786.598 483.988C787.968 481.439 789.339 478.897 790.71 476.355C793.72 470.774 797.288 464.167 800.93 457.506C817.269 427.636 837.044 392.882 859.817 361.6C884.048 328.314 908.255 303.614 933.821 286.084C949.53 275.325 966.131 267.746 983.164 263.557C998.945 259.676 1015.62 258.58 1032.73 260.296C1062.28 263.264 1094.05 274.516 1129.86 294.698C1164.78 314.345 1193.48 332.838 1220.19 352.899C1258.03 381.345 1294.07 414.121 1324.33 442.429C1394.69 508.431 1463.73 583.377 1529.53 665.187L1529.38 665.393C1463.59 583.594 1394.56 508.654 1324.21 442.66C1293.95 414.355 1257.92 381.584 1220.09 353.147C1193.39 333.092 1164.69 314.604 1129.78 294.963C1051.77 250.997 989.529 248.255 933.918 286.338C876.201 325.907 835.098 395.526 801.101 457.675C797.457 464.336 793.891 470.94 790.881 476.524C789.51 479.063 788.14 481.609 786.769 484.157C753.467 545.993 719.03 609.938 671.1 651.356C659.215 661.582 646.568 669.706 633.51 675.498C621.354 680.884 609.372 683.999 597.815 684.783Z" fill="#A1A1A1"/>
<path d="M597.953 669.554C596.276 669.554 594.609 669.506 592.955 669.407C579.025 668.587 566.133 664.328 554.64 656.743C542.07 648.447 531.179 636.161 522.272 620.221C521.481 618.8 520.692 617.332 519.931 615.855C506.328 589.478 498.761 558.43 491.444 528.408C489.919 522.15 488.341 515.679 486.742 509.399C477.436 472.767 466.475 440.631 453.23 411.153C451.591 407.508 449.895 403.853 448.184 400.29C416.933 335.201 373.545 280.109 322.715 240.972C263.57 195.506 200.526 173.994 145.199 180.407C114.048 184.074 71.2525 208.168 50.905 252.399C39.1492 277.953 37.438 306.363 45.9556 334.555L45.7589 334.659C41.296 319.889 39.5933 305.1 40.6932 290.702C41.7042 277.46 45.08 264.525 50.7252 252.252C59.6299 232.896 73.926 215.646 92.0695 202.361C108.842 190.08 127.705 182.185 145.18 180.128C174.168 176.77 205.14 180.987 237.232 192.662C266.283 203.232 295.079 219.403 322.821 240.729C373.681 279.892 417.092 335.015 448.361 400.14C450.073 403.706 451.771 407.362 453.41 411.012C466.661 440.507 477.628 472.663 486.939 509.314C488.538 515.597 490.116 522.069 491.641 528.326C498.955 558.331 506.517 589.356 520.102 615.703C520.864 617.18 521.648 618.645 522.439 620.06C558.631 684.828 622.77 677.875 670.278 642.255C720.173 604.515 757.254 541.791 793.113 481.133L793.481 480.51C796.954 474.63 800.546 468.553 804.12 462.552C841.839 399.244 883.298 334.183 938.651 295.327C954.19 284.442 970.564 276.448 987.311 271.569C1002.89 267.031 1019.31 265.038 1036.13 265.647C1065.44 266.706 1096.84 275.495 1132.14 292.514C1169.23 310.337 1197.14 326.719 1222.64 345.635C1258.97 372.641 1294.16 406.767 1325.21 436.876C1394.35 504.274 1462.33 580.198 1527.28 662.535L1527.14 662.738C1462.19 580.41 1394.21 504.494 1325.09 437.102C1294.04 406.998 1258.86 372.878 1222.54 345.881C1197.05 326.97 1169.14 310.593 1132.07 292.776C1055.56 255.885 994.137 256.773 938.748 295.573C883.431 334.403 841.99 399.436 804.285 462.721C800.711 468.722 797.119 474.802 793.646 480.679L793.278 481.302C775.408 511.529 756.93 542.786 736.976 570.705C714.552 602.08 692.768 625.562 670.379 642.494C646.956 660.055 621.442 669.554 597.953 669.554Z" fill="#A1A1A1"/>
<path d="M1524.9 660.08C1460.8 577.222 1393.87 500.331 1325.97 431.543C1323.1 428.651 1320.22 425.745 1317.33 422.831C1287.92 393.172 1257.51 362.505 1224.99 338.614C1193.44 315.501 1161.47 301.368 1134.36 290.592C1059.51 260.663 998.891 265.181 943.587 304.806C886.815 345.604 842.825 413.34 807.479 467.769C805.357 471.036 803.24 474.309 801.119 477.584C799.553 480.002 797.986 482.421 796.419 484.836C776.293 515.859 757.987 543.595 737.76 568.904C714.652 597.815 692.38 618.989 669.666 633.638C648.379 647.368 625.64 654.631 604.488 654.634C600.635 654.634 596.838 654.395 593.107 653.907C579.486 652.128 566.875 647.131 555.627 639.053C543.353 630.238 532.678 617.718 523.894 601.837C523.109 600.414 522.327 598.943 521.569 597.463C508.128 571.224 500.266 540.613 492.664 511.011C491.027 504.635 489.333 498.039 487.62 491.638C477.869 455.122 466.625 423.242 453.249 394.176C451.584 390.559 449.861 386.937 448.126 383.406C416.427 318.889 372.695 264.513 321.659 226.156C262.095 181.494 198.876 160.955 143.646 168.317C105.889 173.45 67.2797 203.288 49.7538 240.876C37.8139 266.484 35.6967 294.983 43.6263 323.294L43.4275 323.393C39.2755 308.569 37.8287 293.735 39.1274 279.3C40.3225 266.01 43.8378 253.033 49.574 240.726C58.5717 221.427 72.8213 204.176 90.7829 190.844C107.395 178.512 126.16 170.411 143.625 168.038C172.579 164.176 203.582 167.894 235.774 179.084C264.895 189.209 293.828 204.963 321.765 225.908C372.832 264.288 416.588 318.694 448.306 383.251C450.042 386.785 451.766 390.41 453.431 394.026C466.815 423.11 478.064 455.006 487.821 491.539C489.534 497.943 491.228 504.536 492.865 510.915C500.463 540.5 508.32 571.091 521.745 597.299C522.502 598.776 523.283 600.245 524.065 601.665C561.848 669.974 626.065 661.441 669.575 633.381C721.486 599.901 761.211 538.673 796.26 484.65C797.827 482.232 799.393 479.813 800.96 477.398C803.079 474.122 805.199 470.85 807.32 467.583C827.496 436.515 847.421 406.324 869.325 378.504C894.514 346.509 918.774 322.322 943.489 304.558C958.866 293.54 975.007 285.132 991.465 279.571C1006.85 274.37 1023.02 271.484 1039.53 270.988C1068.66 270.114 1099.7 276.439 1134.42 290.321C1161.54 301.103 1193.53 315.241 1225.09 338.369C1257.63 362.268 1288.04 392.944 1317.46 422.608C1320.35 425.523 1323.23 428.429 1326.11 431.321C1394.01 500.114 1460.94 577.013 1525.05 659.88L1524.9 660.08Z" fill="#A1A1A1"/>
<path d="M1522.66 657.425C1458.19 572.453 1392.32 494.583 1326.86 425.985C1322.94 421.881 1318.93 417.65 1315.06 413.56C1287.31 384.268 1258.61 353.979 1227.44 331.347C1196.32 308.829 1164.08 297.002 1136.64 288.404C1063.61 265.3 1003.81 273.446 948.421 314.041C895.594 352.902 854.208 411.339 814.183 467.851L809.788 474.055C806.317 478.957 802.728 484.022 799.189 488.991C759.124 545.179 719.017 597.841 668.95 624.776C656.801 631.312 644.326 635.842 631.868 638.246C618.49 640.826 605.495 640.862 593.242 638.354C579.933 635.628 567.609 629.903 556.61 621.337C544.641 612.016 534.179 599.267 525.52 583.448C524.739 582.016 523.963 580.542 523.212 579.065C509.936 552.981 501.79 522.821 493.914 493.653C492.156 487.145 490.337 480.414 488.501 473.877C478.298 437.474 466.775 405.851 453.272 377.202C451.584 373.622 449.835 370.028 448.073 366.525C415.927 302.58 371.85 248.92 320.605 211.344C260.62 167.491 197.224 147.918 142.089 156.236C104.677 162 66.2427 192.048 48.6279 229.308C36.4893 254.98 33.9533 283.59 41.2927 312.045L41.0918 312.138C37.2507 297.25 36.0641 282.358 37.5638 267.882C38.9471 254.535 42.6083 241.507 48.4461 229.161C57.5411 209.926 71.7399 192.693 89.5111 179.321C105.958 166.944 124.622 158.649 142.063 155.96C170.983 151.596 202.019 154.813 234.312 165.518C263.505 175.197 292.571 190.531 320.704 211.099C371.979 248.695 416.081 302.388 448.246 366.37C450.008 369.876 451.759 373.473 453.447 377.052C466.959 405.716 478.488 437.355 488.696 473.779C490.532 480.315 492.351 487.049 494.108 493.557C501.981 522.708 510.122 552.854 523.384 578.907C524.132 580.379 524.909 581.85 525.687 583.282C562.56 650.64 623.826 648.749 668.868 624.517C718.895 597.604 758.985 544.962 799.032 488.799C802.571 483.83 806.16 478.765 809.631 473.863L814.027 467.659C833.674 439.921 853.988 411.235 876.05 384.55C901.038 354.328 924.677 331.184 948.316 313.792C963.536 302.636 979.448 293.814 995.607 287.573C1010.8 281.704 1026.72 277.922 1042.93 276.329C1071.93 273.48 1102.59 277.341 1136.69 288.128C1164.14 296.731 1196.39 308.561 1227.54 331.099C1258.72 353.739 1287.43 384.037 1315.19 413.337C1319.06 417.427 1323.07 421.655 1326.99 425.762C1392.45 494.366 1458.33 572.241 1522.8 657.222L1522.66 657.425Z" fill="#A1A1A1"/>
<path d="M1520.42 654.769C1456.5 568.853 1391.68 490.008 1327.74 420.429C1322.93 415.2 1318.01 409.763 1313.24 404.506C1286.99 375.53 1259.84 345.567 1229.89 324.086C1198.91 301.954 1166.53 292.525 1138.93 286.223C1067.93 269.759 1008.93 281.535 953.254 323.28C904.67 359.864 864.781 411.711 826.203 461.85C822.144 467.126 817.946 472.58 813.855 477.865C809.052 484.072 805.382 488.788 801.958 493.151C783.618 516.507 761.781 543.4 738.866 565.769C714.582 589.472 691.479 605.876 668.234 615.922C656.01 621.204 643.588 624.536 631.31 625.821C618.126 627.203 605.362 626.188 593.373 622.803C580.384 619.135 568.347 612.683 557.592 603.627C545.929 593.807 535.685 580.829 527.144 565.062C526.375 563.633 525.602 562.156 524.854 560.673C511.753 534.764 503.334 505.069 495.191 476.352C493.302 469.691 491.35 462.805 489.381 456.116C478.719 419.814 466.914 388.451 453.291 360.227C451.577 356.679 449.803 353.119 448.016 349.643C415.424 286.271 371 233.327 319.547 196.532C259.146 153.485 195.572 134.884 140.534 144.152C109.218 149.541 68.3156 174.368 47.5324 217.68C35.1759 243.432 32.2105 272.171 38.9598 300.79L38.7589 300.874C35.2287 285.91 34.3066 270.954 36.0156 256.421C37.5935 243.006 41.407 229.922 47.3547 217.528C56.547 198.372 70.693 181.167 88.2675 167.767C104.55 155.354 123.101 146.869 140.509 143.873C169.395 139.008 200.464 141.722 232.855 151.943C262.118 161.177 291.319 176.094 319.647 196.284C371.129 233.099 415.578 286.073 448.189 349.483C449.976 352.958 451.753 356.524 453.466 360.075C467.096 388.313 478.907 419.693 489.576 456.012C491.547 462.704 493.499 469.59 495.388 476.25C503.525 504.953 511.941 534.631 525.027 560.512C525.776 561.992 526.546 563.466 527.316 564.893C557.991 621.531 610.647 640.507 668.168 615.649C720.259 593.139 762.752 542.687 801.812 492.943C805.236 488.579 808.904 483.864 813.707 477.657C817.798 472.372 821.996 466.918 826.055 461.641C845.047 436.958 864.684 411.435 885.63 387.535C909.315 360.506 931.403 339.406 953.153 323.029C968.227 311.726 983.907 302.489 999.76 295.578C1014.77 289.03 1030.44 284.354 1046.33 281.673C1075.26 276.797 1105.56 278.192 1138.96 285.938C1166.58 292.246 1198.99 301.678 1229.99 323.83C1259.96 345.325 1287.11 375.296 1313.38 404.281C1318.14 409.538 1323.07 414.975 1327.87 420.203C1391.81 489.791 1456.65 568.641 1520.57 654.564L1520.42 654.769Z" fill="#A1A1A1"/>
<path d="M1518.17 652.115C1454.81 565.248 1391.04 485.426 1328.62 414.871C1323.31 408.87 1317.85 402.57 1312.58 396.479C1287.45 367.463 1261.47 337.461 1232.34 316.82C1201.34 294.952 1168.88 287.976 1141.21 284.036C1073.43 274.122 1013.53 289.98 958.087 332.514C913.942 366.536 876.101 412.049 839.505 456.066C832.113 464.956 824.471 474.151 817.04 482.914C812.495 488.278 808.468 492.988 804.724 497.312C787.314 517.398 764.156 543.152 739.409 564.2C714.544 585.345 691.026 599.368 667.512 607.066C641.866 615.463 616.271 615.525 593.495 607.249C580.832 602.646 569.081 595.47 558.566 585.918C547.214 575.604 537.189 562.401 528.764 546.681C528.001 545.25 527.235 543.77 526.49 542.287C513.576 516.575 504.895 487.368 496.502 459.124C494.472 452.292 492.374 445.228 490.256 438.365C479.127 402.159 467.041 371.049 453.307 343.262C451.569 339.744 449.769 336.215 447.956 332.771C414.918 269.97 370.149 217.74 318.49 181.731C257.671 139.493 193.92 121.862 138.977 132.08C101.743 139.155 64.5652 168.864 46.4682 206.003C33.8748 231.848 30.4716 260.736 36.6266 289.546L36.4235 289.622C33.2064 274.568 32.5507 259.533 34.4734 244.938C36.2501 231.447 40.2265 218.295 46.2906 205.848C55.5802 186.782 69.6711 169.617 87.0405 156.205C103.151 143.766 121.587 135.096 138.948 131.798C167.8 126.431 198.903 128.647 231.393 138.38C260.728 147.168 290.064 161.668 318.587 181.478C370.276 217.509 415.07 269.767 448.13 332.607C449.942 336.052 451.742 339.584 453.483 343.104C467.223 370.908 479.315 402.032 490.451 438.255C492.568 445.118 494.666 452.185 496.697 459.017C505.085 487.246 513.762 516.44 526.664 542.126C527.408 543.609 528.172 545.083 528.936 546.515C559.084 602.787 610.869 625.32 667.461 606.793C719.053 589.9 763.856 544.088 804.584 497.101C808.326 492.777 812.355 488.07 816.899 482.706C824.327 473.942 831.971 464.75 839.361 455.86C875.965 411.835 913.813 366.31 957.979 332.275C972.92 320.811 988.371 311.163 1003.9 303.592C1018.76 296.353 1034.17 290.781 1049.72 287.029C1078.64 280.053 1108.58 278.985 1141.23 283.759C1168.92 287.703 1201.41 294.682 1232.44 316.575C1261.59 337.23 1287.58 367.243 1312.72 396.27C1317.99 402.362 1323.44 408.659 1328.76 414.66C1391.18 485.22 1454.96 565.048 1518.32 651.92L1518.17 652.115Z" fill="#A1A1A1"/>
<path d="M1515.93 649.459C1453.14 561.634 1390.41 480.839 1329.5 409.315C1323.9 402.742 1318.14 395.782 1312.58 389.051C1288.37 359.79 1263.34 329.532 1234.79 309.556C1203.66 287.874 1171.17 283.384 1143.5 281.851C1078.28 277.972 1019.21 297.565 962.92 341.751C923.446 372.886 888.257 412.291 854.224 450.397C842.523 463.501 831.47 475.878 820.228 487.962C815.655 492.881 811.49 497.3 807.493 501.469C781.699 528.345 760.239 547.777 739.955 562.621C714.508 581.244 690.577 592.885 666.795 598.207C657.569 600.27 648.376 601.299 639.351 601.299C623.352 601.299 607.872 598.074 593.62 591.687C567.828 580.128 546.555 558.799 530.389 528.292C529.627 526.846 528.868 525.366 528.132 523.889C515.414 498.4 506.49 469.711 497.86 441.964C495.673 434.934 493.414 427.667 491.136 420.601C479.531 384.479 467.161 353.629 453.328 326.285C451.564 322.798 449.739 319.3 447.901 315.887C414.417 253.658 369.301 202.144 317.434 166.916C256.199 125.49 192.272 108.825 137.425 119.993C100.036 127.764 63.9306 156.909 45.4466 194.246C32.5972 220.198 28.7435 249.258 34.2978 278.288L34.0926 278.358C31.1928 263.2 30.8078 248.074 32.9505 233.403C34.9344 219.823 39.078 206.597 45.271 194.091C54.6579 175.13 68.6875 158.02 85.8454 144.609C101.783 132.15 120.089 123.311 137.393 119.714C166.212 113.846 197.348 115.559 229.936 124.807C259.342 133.154 288.812 147.236 317.531 166.662C369.428 201.913 414.569 253.455 448.075 315.72C449.913 319.136 451.738 322.634 453.504 326.124C467.345 353.482 479.721 384.35 491.331 420.485C493.609 427.552 495.87 434.821 498.055 441.851C506.68 469.584 515.6 498.262 528.307 523.728C529.043 525.203 529.801 526.682 530.562 528.126C560.749 585.097 610.391 610.538 666.759 597.925C720.417 585.917 767.944 542.315 807.362 501.244C811.357 497.075 815.522 492.658 820.095 487.739C831.334 475.656 842.388 463.282 854.089 450.177C888.125 412.063 923.323 372.652 962.812 341.506C977.641 329.864 992.862 319.802 1008.05 311.594C1022.77 303.645 1037.93 297.176 1053.13 292.37C1082.11 283.207 1111.67 279.672 1143.51 281.566C1171.2 283.099 1203.72 287.595 1234.89 309.302C1263.46 329.292 1288.5 359.565 1312.72 388.837C1318.29 395.568 1324.04 402.527 1329.64 409.098C1390.55 480.628 1453.28 561.431 1516.08 649.262L1515.93 649.459Z" fill="#A1A1A1"/>
<path d="M1513.69 646.804C1450.58 556.764 1390.62 477.263 1330.38 403.757C1324.63 396.744 1318.98 389.582 1312.98 381.999C1289.56 352.358 1265.34 321.71 1237.24 302.292C1205.72 280.619 1171.81 278.815 1145.79 279.667C1083.53 281.437 1025.3 304.767 967.754 350.991C933.229 378.859 901.352 412.326 870.524 444.693C854.322 461.703 839.019 477.767 823.414 493.013C818.781 497.543 814.477 501.67 810.26 505.63C784.115 530.141 761.948 547.747 740.497 561.04C714.46 577.174 690.117 586.433 666.076 589.348C653.724 590.845 641.456 590.563 629.614 588.511C617.075 586.338 605.006 582.169 593.743 576.123C568.779 562.72 548.01 540.444 532.014 509.909C531.258 508.46 530.505 506.977 529.774 505.5C517.269 480.273 508.121 452.131 499.274 424.917C496.913 417.656 494.472 410.147 492.017 402.846C479.924 366.804 467.276 336.21 453.348 309.317C451.556 305.861 449.706 302.394 447.847 299.011C413.916 237.355 368.456 186.557 316.381 152.11C268.317 120.447 218.751 103.927 173.3 103.927C160.45 103.927 147.939 105.246 135.873 107.915C98.9342 116.247 63.0554 145.497 44.4635 182.433C31.3413 208.506 27.0201 237.764 31.9673 267.042L31.7601 267.104C29.1775 251.827 29.0696 236.597 31.4386 221.841C33.6341 208.162 37.9574 194.85 44.2858 182.275C53.77 163.432 67.734 146.393 84.6719 132.996C100.66 120.349 118.353 111.58 135.835 107.639C164.619 101.269 195.79 102.484 228.477 111.244C257.953 119.142 287.561 132.804 316.474 151.853C368.578 186.32 414.066 237.147 448.018 298.839C449.879 302.222 451.732 305.692 453.524 309.15C467.458 336.057 480.113 366.666 492.211 402.725C494.667 410.026 497.11 417.535 499.47 424.798C508.314 452.002 517.457 480.132 529.951 505.34C530.683 506.814 531.436 508.296 532.189 509.742C562.103 566.841 610.895 595.749 666.059 589.063C721.879 582.296 772.38 540.793 810.141 505.393C814.359 501.433 818.661 497.306 823.293 492.78C838.896 477.539 854.197 461.472 870.397 444.464C901.229 412.094 933.11 378.62 967.648 350.743C997.274 326.945 1026.35 309.601 1056.53 297.718C1085.64 286.257 1114.83 280.259 1145.79 279.379C1163.44 278.801 1177.85 279.805 1191.12 282.533C1208.26 286.057 1223.38 292.435 1237.34 302.036C1265.47 321.471 1289.7 352.135 1313.13 381.791C1319.12 389.373 1324.78 396.532 1330.53 403.545C1390.77 477.054 1450.74 556.561 1513.84 646.607L1513.69 646.804Z" fill="#A1A1A1"/>
<path d="M1511.44 644.148C1448.92 553.122 1389.98 472.673 1331.26 398.198C1325.45 390.83 1319.73 383.239 1313.66 375.203C1290.94 345.094 1267.45 313.956 1239.69 295.025C1207.91 273.454 1174.03 274.316 1148.07 277.476C1089.32 284.379 1031.92 311.447 972.587 360.222C943.352 384.369 915.517 412.004 888.597 438.731C867.317 459.857 847.219 479.813 826.601 498.053C821.941 502.179 817.373 506.125 813.026 509.779C786.831 531.776 763.283 548.02 741.038 559.441C714.402 573.117 689.647 580.001 665.357 580.48C652.998 580.722 640.779 579.234 629.047 576.052C616.747 572.714 604.911 567.497 593.866 560.54C569.758 545.356 549.493 522.133 533.636 491.513C532.891 490.067 532.143 488.582 531.413 487.096C519.143 462.176 509.796 434.629 500.756 407.99C498.199 400.453 495.553 392.656 492.894 385.077C480.307 349.102 467.378 318.767 453.367 292.333C451.55 288.909 449.674 285.473 447.789 282.121C413.412 221.037 367.605 170.955 315.324 137.288C253.258 97.4884 188.973 82.7636 134.316 95.8254C97.8555 104.69 62.2158 134.016 43.5202 170.532C30.1019 196.743 25.3006 226.221 29.6324 255.783L29.4251 255.837C27.1661 240.427 27.3396 225.079 29.9433 210.222C32.3609 196.43 36.8682 183.022 43.3447 170.371C52.9219 151.664 66.8162 134.709 83.5256 121.34C99.3298 108.696 116.879 99.7772 134.278 95.5463C163.031 88.6772 194.233 89.3875 227.017 97.6632C256.566 105.121 286.306 118.366 315.415 137.032C367.728 170.715 413.56 220.829 447.957 281.949C449.843 285.301 451.721 288.739 453.538 292.167C467.557 318.615 480.491 348.964 493.085 384.953C495.746 392.532 498.389 400.329 500.949 407.869C509.985 434.497 519.327 462.033 531.588 486.936C532.318 488.418 533.067 489.904 533.809 491.347C564.039 549.717 610.755 581.275 665.353 580.192C709.654 579.318 756.542 556.865 812.912 509.533C817.257 505.88 821.823 501.937 826.483 497.81C847.094 479.573 867.192 459.623 888.468 438.497C915.392 411.767 943.231 384.127 972.475 359.973C1002.39 335.38 1031 316.766 1059.92 303.058C1089.23 289.174 1118.06 280.709 1148.05 277.186C1174.04 274.02 1207.96 273.161 1239.79 294.766C1267.58 313.719 1291.08 344.871 1313.81 374.994C1319.87 383.03 1325.6 390.618 1331.41 397.984C1390.13 472.462 1449.07 552.916 1511.6 643.948L1511.44 644.148Z" fill="#A1A1A1"/>
<path d="M1509.2 641.493C1447.26 549.477 1389.34 468.076 1332.15 392.642C1326.34 384.984 1320.61 377.027 1314.54 368.602C1292.46 337.954 1269.63 306.263 1242.14 287.761C1210.06 266.269 1176.24 269.806 1150.36 275.289C1095.09 286.775 1040.14 316.698 977.422 369.458C953.902 389.336 930.917 411.141 908.689 432.228C881.691 457.838 856.191 482.031 829.788 503.101C825.031 506.901 820.323 510.548 815.795 513.936C789.129 533.876 764.854 548.24 741.582 557.846C728.546 563.227 715.678 567.125 703.334 569.433C690.167 571.894 677.149 572.63 664.64 571.621C639.26 569.571 615.491 560.602 593.993 544.964C570.775 528.075 551.016 503.907 535.264 473.127C534.524 471.67 533.781 470.182 533.056 468.705C521.048 444.151 511.535 417.258 502.336 391.253C499.55 383.38 496.672 375.24 493.776 367.319C480.681 331.403 467.47 301.325 453.388 275.362C451.546 271.966 449.642 268.561 447.734 265.243C412.911 204.728 366.759 155.362 314.27 122.482C251.789 83.4965 187.329 69.7413 132.763 83.7474C74.3372 98.9768 17.4045 164.779 27.3032 244.534L27.0939 244.579C24.617 224.628 26.068 204.974 31.4045 186.156C36.2777 168.971 44.275 152.797 55.1742 138.089C65.3077 124.413 77.4654 112.605 91.3068 102.993C104.471 93.8524 118.793 87.0988 132.721 83.4683C161.44 76.0975 192.676 76.3089 225.56 84.0997C255.18 91.1155 285.056 103.943 314.359 122.228C366.877 155.131 413.057 204.525 447.901 265.074C449.811 268.394 451.715 271.799 453.559 275.199C467.648 301.173 480.865 331.268 493.966 367.198C496.862 375.118 499.741 383.259 502.526 391.134C511.723 417.131 521.233 444.013 533.234 468.552C533.957 470.029 534.697 471.518 535.438 472.972C565.711 532.125 611.601 567.057 664.652 571.342C709.565 574.964 758.97 556.109 815.691 513.694C820.217 510.306 824.924 506.661 829.681 502.861C856.077 481.797 881.573 457.607 908.566 432C930.796 410.91 953.783 389.102 977.307 369.222C1040.05 316.439 1095.02 286.504 1150.33 275.01C1167.72 271.326 1182.11 270.147 1195.64 271.306C1212.93 272.786 1228.17 278.085 1242.23 287.508C1269.75 306.029 1292.6 337.74 1314.69 368.404C1320.76 376.827 1326.49 384.784 1332.29 392.439C1389.49 467.879 1447.41 549.282 1509.36 641.304L1509.2 641.493Z" fill="#A1A1A1"/>
<path d="M1506.96 638.838C1445.6 545.819 1388.71 463.471 1333.03 387.084C1327.27 379.18 1321.57 370.902 1315.55 362.133C1294.07 330.899 1271.86 298.6 1244.59 280.495C1211.81 258.822 1176.42 265.894 1152.65 273.099C1088.13 292.413 1030.31 337.314 982.257 378.696C964.987 393.629 947.762 409.448 931.101 424.745C897.68 455.432 866.114 484.416 832.978 508.15C828.105 511.642 823.257 514.988 818.566 518.097C791.38 536.077 766.377 548.558 742.13 556.248C714.642 564.966 688.332 567.159 663.925 562.762C638.853 558.243 615.366 547.014 594.122 529.383C571.839 510.892 552.585 485.781 536.891 454.744C536.159 453.287 535.421 451.796 534.7 450.313C522.991 426.21 513.358 400.056 504.041 374.761C500.989 366.471 497.831 357.902 494.659 349.562C480.857 313.195 467.75 284.227 453.412 258.391C451.544 255.025 449.617 251.654 447.682 248.365C412.408 188.425 365.909 139.775 313.213 107.673C250.318 69.5048 185.68 56.7164 131.207 71.6668C72.5714 87.9729 16.802 152.882 24.9706 233.285L24.7612 233.322C22.735 213.374 24.4884 193.739 29.9708 174.963C34.9963 157.761 43.0401 141.57 53.8822 126.845C63.9925 113.113 76.0867 101.218 89.8308 91.485C102.917 82.2171 117.211 75.2691 131.164 71.3877C159.852 63.5151 191.12 63.2276 224.101 70.5308C253.793 77.104 283.804 89.5147 313.302 107.416C366.03 139.535 412.554 188.214 447.845 248.19C449.78 251.482 451.709 254.856 453.579 258.222C467.925 284.069 481.037 313.054 494.845 349.435C498.017 357.775 501.175 366.347 504.227 374.637C513.542 399.923 523.172 426.069 534.873 450.161C535.595 451.643 536.331 453.132 537.062 454.589C567.571 514.92 612.634 553.237 663.951 562.483C709.976 570.775 760.519 556.172 818.471 517.843C823.16 514.737 828.008 511.394 832.877 507.902C866.004 484.174 897.566 455.195 930.98 424.511C947.641 409.214 964.869 393.392 982.141 378.456C1014.45 350.633 1041.33 330.076 1066.72 313.764C1096.62 294.563 1124.71 281.172 1152.6 272.823C1169.6 267.67 1184.42 265.336 1197.9 265.691C1215.26 266.148 1230.57 270.906 1244.68 280.242C1271.98 298.369 1294.21 330.688 1315.7 361.941C1321.73 370.707 1327.42 378.986 1333.18 386.884C1388.86 463.273 1445.76 545.627 1507.12 638.649L1506.96 638.838Z" fill="#A1A1A1"/>
<path d="M1504.72 636.18C1443.95 542.154 1388.08 458.856 1333.91 381.522C1328.23 373.413 1322.61 364.847 1316.66 355.776C1295.74 323.914 1274.12 290.966 1247.04 273.228C1213.91 251.606 1178.61 261.547 1154.94 270.908C1096.48 293.827 1044.34 337.466 987.092 387.929C976.768 397.064 966.326 406.493 956.226 415.614C917.384 450.69 877.222 486.958 836.166 513.195C831.178 516.385 826.187 519.432 821.332 522.251C793.963 538.126 767.498 549.023 742.673 554.641C714.551 561.005 687.815 560.754 663.204 553.899C638.482 547.013 615.282 533.52 594.245 513.795C572.956 493.833 554.203 467.78 538.509 436.36C537.784 434.9 537.052 433.406 536.335 431.923C524.979 408.384 515.285 383.081 505.911 358.612C502.533 349.795 499.041 340.679 495.532 331.809C481.191 295.479 467.811 266.759 453.424 241.425C451.535 238.099 449.581 234.756 447.618 231.492C411.904 172.116 365.063 124.181 312.155 92.8628C248.848 55.5124 184.034 43.6936 129.65 59.5854C72.876 76.3566 16.0765 138.988 22.6355 222.032L22.4261 222.06C20.8504 202.112 22.9062 182.5 28.5346 163.767C33.7103 146.545 41.8027 130.34 52.5856 115.598C72.4804 88.4037 100.552 67.8864 129.604 59.3063C158.257 50.9348 189.559 50.1456 222.639 56.9612C252.403 63.0946 282.548 75.0854 312.24 92.6035C365.177 123.939 412.046 171.905 447.783 231.309C449.748 234.575 451.702 237.918 453.593 241.247C467.987 266.596 481.373 295.327 495.718 331.671C499.227 340.544 502.721 349.66 506.099 358.477C515.471 382.94 525.163 408.238 536.512 431.765C537.227 433.248 537.959 434.739 538.685 436.199C570.084 499.062 613.156 539.665 663.244 553.62C709.625 566.541 762.782 555.901 821.244 521.992C826.096 519.173 831.083 516.129 836.068 512.941C877.11 486.713 917.268 450.45 956.102 415.38C966.201 406.259 976.644 396.831 986.97 387.695C1012.03 365.605 1041.18 340.268 1070.12 319.114C1100.39 296.987 1128.11 281.132 1154.87 270.641C1171.71 263.98 1186.53 260.524 1200.16 260.079C1217.35 259.515 1233.15 263.856 1247.13 272.977C1259.26 280.923 1271.47 292.781 1284.45 309.231C1295.92 323.756 1306.54 339.941 1316.81 355.59C1322.76 364.658 1328.38 373.224 1334.06 381.331C1388.24 458.667 1444.11 541.968 1504.87 635.996L1504.72 636.18Z" fill="#A1A1A1"/>
<path d="M1502.47 633.525C1442.31 538.484 1387.46 454.236 1334.79 375.967C1329.21 367.68 1323.69 358.855 1317.84 349.513C1297.47 316.988 1276.42 283.356 1249.49 265.967C1224.33 249.768 1194.15 250.67 1157.22 268.724C1105.59 293.825 1059.43 335.809 1010.56 380.262C1004.48 385.798 998.186 391.52 991.926 397.172C989.474 399.39 987.021 401.614 984.569 403.835C938.007 446.028 889.861 489.659 839.354 518.246C834.248 521.138 829.116 523.886 824.102 526.412C796.131 540.485 768.92 549.443 743.226 553.034C714.454 557.054 687.289 554.365 662.492 545.04C638.155 535.888 615.24 520.132 594.383 498.208C574.166 476.958 555.917 449.966 540.14 417.977C539.421 416.514 538.696 415.017 537.983 413.531C527.058 390.731 517.396 366.448 508.05 342.966C504.266 333.455 500.351 323.621 496.419 314.049C481.524 277.744 467.873 249.272 453.452 224.451C451.536 221.153 449.558 217.844 447.57 214.611C411.403 155.81 364.215 108.589 311.1 78.0537C247.382 41.5234 182.389 30.6715 128.096 47.5047C72.3644 64.927 15.6454 128.071 20.305 210.783L20.0935 210.806C18.9703 190.855 21.3266 171.265 27.1008 152.58C32.4288 135.338 40.5678 119.114 51.2936 104.361C71.1038 77.1094 99.0784 56.2877 128.047 47.2313C156.669 38.358 188.002 37.0671 221.18 43.3979C251.016 49.086 281.298 60.6595 311.185 77.7943C364.329 108.349 411.547 155.596 447.729 214.428C449.717 217.661 451.699 220.975 453.615 224.273C468.042 249.109 481.702 277.589 496.6 313.908C500.535 323.48 504.448 333.317 508.234 342.827C517.576 366.304 527.238 390.582 538.158 413.374C538.871 414.859 539.595 416.353 540.314 417.816C572.394 482.86 614.66 526.755 662.547 544.761C709.817 562.536 764.146 556.27 824.025 526.141C829.036 523.615 834.165 520.87 839.269 517.981C889.759 489.405 937.897 445.783 984.449 403.596C986.902 401.372 989.354 399.151 991.805 396.932C998.066 391.281 1004.36 385.559 1010.44 380.026C1059.32 335.564 1105.49 293.568 1157.15 268.456C1173.83 260.299 1188.64 255.724 1202.43 254.464C1219.68 252.889 1235.55 256.674 1249.58 265.711C1261.64 273.499 1273.7 285.411 1286.44 302.128C1297.68 316.879 1308.01 333.376 1318 349.33C1323.85 358.668 1329.37 367.491 1334.95 375.775C1387.62 454.047 1442.47 538.298 1502.64 633.342L1502.47 633.525Z" fill="#A1A1A1"/>
<path d="M1500.23 630.87C1445.32 542.306 1389.95 454.673 1335.67 370.408C1330.15 361.879 1324.67 352.715 1318.87 343.016C1300.02 311.464 1278.64 275.703 1251.94 258.704C1226.49 242.533 1196.25 245.095 1159.51 266.534C1115.81 291.942 1077.14 329.301 1036.21 368.852C1023.39 381.238 1010.13 394.049 996.757 406.406C973.417 428.022 948.168 450.896 921.702 471.729C893.357 494.042 867.462 510.906 842.535 523.291C837.298 525.893 832.027 528.343 826.864 530.566C798.302 542.864 770.35 549.863 743.786 551.368C714.38 553.031 686.786 547.924 661.768 536.176C615.57 514.212 575.192 468.259 541.759 399.59C541.046 398.125 540.327 396.625 539.618 395.14C529.248 373.345 519.755 350.353 510.575 328.117C506.254 317.651 501.787 306.827 497.292 296.294C481.831 259.997 467.905 231.777 453.467 207.482C451.523 204.213 449.52 200.935 447.509 197.735C410.902 139.501 363.367 92.9984 310.045 63.2443C245.915 27.5315 180.746 17.652 126.541 35.4238C70.4717 53.9116 15.174 116.219 17.9723 199.534L17.7608 199.545C17.0903 179.589 19.7512 160.021 25.6672 141.384C31.1495 124.12 39.335 107.878 49.9995 93.114C60.0463 79.2037 71.9544 67.0411 85.3918 56.9615C98.4379 47.1778 112.264 39.8379 126.489 35.1476C155.079 25.7754 186.446 23.9828 219.721 29.8259C249.629 35.0771 280.044 46.2307 310.125 62.9822C363.479 92.7532 411.042 139.284 447.67 197.546C449.681 200.749 451.688 204.029 453.632 207.299C468.076 231.608 482.009 259.84 497.476 296.147C501.971 306.683 506.438 317.507 510.759 327.976C519.939 350.21 529.43 373.199 539.796 394.985C540.502 396.473 541.224 397.97 541.934 399.435C575.343 468.051 615.684 513.967 661.838 535.908C709.38 558.232 766.422 556.293 826.799 530.296C831.957 528.072 837.228 525.625 842.461 523.026C898.192 495.338 949.184 450.118 996.634 406.172C1010.01 393.815 1023.26 381.007 1036.08 368.621C1077.03 329.061 1115.7 291.694 1159.42 266.275C1196.22 244.802 1226.52 242.24 1252.03 258.447C1263.99 266.06 1275.86 277.995 1288.33 294.927C1299.33 309.857 1309.35 326.626 1319.04 342.839C1324.84 352.538 1330.31 361.699 1335.83 370.222C1390.11 454.49 1445.48 542.123 1500.39 630.689L1500.23 630.87Z" fill="#A1A1A1"/>
<path d="M1497.99 628.214C1443.91 539.16 1389.6 450.552 1336.55 364.85C1331.2 356.227 1325.89 346.903 1320.27 337.032C1301.87 304.744 1281.02 268.146 1254.39 251.434C1228.63 235.291 1198.34 239.514 1161.79 264.338C1123.49 290.309 1088.3 326.981 1054.28 362.448C1037.21 380.231 1019.57 398.621 1001.59 415.637C973.213 442.522 949.338 463.03 926.45 480.182C898.228 501.331 871.821 517.082 845.722 528.334C840.365 530.645 834.95 532.793 829.63 534.718C801.914 544.744 774.697 549.818 748.659 549.821C747.213 549.821 745.774 549.804 744.336 549.773C714.234 549.119 686.213 541.559 661.051 527.308C648.906 520.391 637.013 511.611 625.703 501.21C615.073 491.434 604.626 479.92 594.653 466.988C576.711 443.722 559.938 415.66 543.381 381.201C542.67 379.718 541.961 378.233 541.257 376.742C531.65 356.411 522.561 335.158 513.773 314.604C508.699 302.74 503.453 290.47 498.17 278.527C481.903 241.732 468.123 214.583 453.484 190.502C451.515 187.264 449.486 184.017 447.449 180.848C410.399 123.192 362.519 77.4053 308.989 48.4319C244.449 13.5394 179.102 4.62948 124.987 23.3399C69.9681 42.4169 14.7423 105.198 15.6412 188.278L15.4297 188.281C15.0109 149.583 26.5193 112.785 48.709 81.8673C58.7389 67.8922 70.5836 55.6422 83.9173 45.4498C96.8915 35.5336 110.691 28.0021 124.934 23.0637C153.49 13.1898 184.891 10.8982 218.263 16.2538C248.243 21.0653 278.794 31.8017 309.068 48.167C362.631 77.16 410.538 122.975 447.612 180.665C449.649 183.836 451.682 187.086 453.651 190.325C468.296 214.419 482.082 241.577 498.354 278.386C503.638 290.332 508.885 302.602 513.957 314.466C522.746 335.017 531.832 356.267 541.437 376.592C542.141 378.084 542.848 379.569 543.558 381.049C578.741 454.273 617.2 502.03 661.134 527.049C721.983 561.516 786.319 550.097 829.575 534.448C834.891 532.522 840.301 530.377 845.657 528.066C905.682 502.185 960.455 454.264 1001.47 415.409C1019.44 398.398 1037.09 380.009 1054.15 362.228C1088.18 326.755 1123.38 290.073 1161.69 264.09C1178.05 252.982 1192.85 246.16 1206.95 243.24C1224.33 239.638 1240.32 242.31 1254.48 251.183C1266.41 258.667 1278.17 270.697 1290.43 287.959C1301.24 303.168 1311 320.298 1320.44 336.866C1326.06 346.734 1331.37 356.055 1336.72 364.672C1389.76 450.375 1444.08 538.983 1498.15 628.037L1497.99 628.214Z" fill="#A1A1A1"/>
<path d="M1495.75 625.559L1337.44 359.294C1332.27 350.599 1327.13 341.136 1321.7 331.122C1303.76 298.07 1283.43 260.609 1256.84 244.173C1231.14 228.282 1199.93 234.33 1164.08 262.154C1129.61 288.9 1098.18 324.469 1067.78 358.869C1047.97 381.291 1027.48 404.475 1006.43 424.88C943.152 486.209 887.854 522.432 832.402 538.879C809.398 545.7 786.705 549.133 764.697 549.133C758.026 549.133 751.422 548.818 744.889 548.186C714.076 545.21 685.627 535.203 660.337 518.449C636.897 502.918 615.454 480.994 594.789 451.42C578.287 427.805 562.468 399.652 545.008 362.821C535.792 343.383 526.868 323.187 518.239 303.656C498.708 259.459 478.512 213.757 453.51 173.534C415.158 111.841 364.818 63.4614 307.932 33.6228C242.983 -0.446759 177.459 -8.38983 123.432 11.2593C71.1255 30.2826 14.3535 90.27 13.3087 177.029L13.0972 177.024C13.5646 138.244 25.4326 101.452 47.4171 70.6237C67.295 42.7497 94.2713 21.57 123.377 10.9859C151.902 0.613071 183.337 -2.18025 216.804 2.68763C246.856 7.0566 277.542 17.3786 308.011 33.3606C336.159 48.1249 362.892 67.5598 387.469 91.1269C412.252 114.891 434.526 142.554 453.67 173.348C478.684 213.585 498.885 259.298 518.421 303.507C527.05 323.035 535.974 343.228 545.187 362.663C570.662 416.404 606.784 482.646 660.432 518.19C721.957 558.951 787.883 551.786 832.355 538.597C887.78 522.161 943.052 485.952 1006.3 424.646C1027.34 404.25 1047.83 381.066 1067.64 358.649C1098.05 324.244 1129.49 288.666 1163.97 261.906C1199.88 234.035 1231.16 227.98 1256.93 243.914C1268.83 251.274 1280.49 263.408 1292.55 281.016C1303.18 296.516 1312.68 314.023 1321.87 330.952C1327.3 340.967 1332.44 350.424 1337.6 359.117L1495.92 625.382L1495.75 625.559Z" fill="#A1A1A1"/>
<path d="M1494.47 605.09C1454.16 530.953 1419.57 470.794 1385.62 415.77C1369.14 389.04 1352.31 362.731 1335.6 337.571C1330.55 329.961 1325.54 321.865 1320.23 313.294C1306.91 291.75 1293.13 269.474 1277.27 252.943C1268.76 244.05 1260.56 237.682 1252.22 233.477C1226.6 220.44 1196.54 229.06 1162.87 259.099C1145.45 274.621 1129.59 292.286 1116.37 307.518C1102.37 323.644 1088.57 341.427 1075.21 358.624C1056.02 383.344 1036.18 408.904 1014.85 430.856C1001.87 444.253 988.708 456.224 975.736 466.439C949.783 486.874 921.927 503.713 892.942 516.487C875.033 524.292 857.037 530.192 839.459 534.02C824.308 537.306 809.13 539.203 794.343 539.657C772.213 540.339 750.651 537.738 730.257 531.917C708.573 525.727 688.052 515.848 669.265 502.549C652.514 490.691 636.69 475.76 620.893 456.9C591.454 421.785 567.974 381.182 550.808 349.731C542.375 334.208 534.141 318.379 526.178 303.07C503.248 258.983 481.589 217.343 454.486 180.251C432.38 150.199 407.16 124.264 379.517 103.163C358.275 86.9471 335.172 73.6852 310.85 63.7436C305.057 61.3787 299.153 59.1745 293.309 57.1986C268.148 48.7059 239.822 43.1756 209.121 40.76C178.168 38.2683 151.389 40.4246 127.257 47.3586C113.615 51.2484 100.398 57.3508 87.9669 65.494C44.0824 94.2447 15.9027 142.509 12.5862 194.604L12.3218 194.573C13.2059 180.686 15.8012 167.006 20.0335 153.911C24.0544 141.472 29.5769 129.476 36.4469 118.254C49.4273 97.0577 67.2028 78.7024 87.8506 65.1755C100.3 57.0182 113.539 50.9073 127.202 47.0119C151.359 40.0722 178.16 37.9131 209.138 40.4077C239.856 42.8233 268.196 48.3592 293.375 56.8576C299.225 58.8363 305.131 61.0405 310.928 63.4082C335.269 73.3554 358.391 86.6286 379.651 102.859C407.312 123.973 432.554 149.931 454.67 180.003C481.79 217.117 503.453 258.769 526.391 302.867C534.353 318.176 542.587 334.003 551.018 349.522C568.175 380.959 591.645 421.543 621.066 456.635C636.847 475.475 652.653 490.392 669.386 502.236C706.153 528.261 748.191 540.734 794.335 539.305C809.109 538.851 824.276 536.954 839.414 533.67C856.98 529.842 874.963 523.949 892.857 516.149C921.826 503.383 949.665 486.556 975.6 466.132C988.564 455.925 1001.71 443.96 1014.68 430.574C1036 408.633 1055.84 383.079 1075.03 358.367C1088.38 341.168 1102.19 323.379 1116.19 307.248C1129.42 292.007 1145.29 274.337 1162.73 258.803C1177.71 245.428 1192.22 236.188 1205.86 231.337C1222.61 225.379 1238.24 225.987 1252.31 233.147C1260.68 237.367 1268.9 243.751 1277.43 252.664C1293.31 269.221 1307.1 291.511 1320.44 313.068C1325.74 321.637 1330.75 329.732 1335.8 337.337C1352.52 362.5 1369.35 388.812 1385.83 415.547C1419.78 470.577 1454.37 530.742 1494.69 604.884L1494.47 605.09Z" fill="#A1A1A1"/>
<path d="M1493.2 584.615C1455.82 509.224 1420.74 446.136 1385.95 391.749C1368.99 365.183 1351.43 339.645 1333.77 315.847C1329.08 309.533 1324.45 302.971 1319.56 296.026C1304.88 275.227 1289.72 253.72 1272.72 238.841C1264.15 231.295 1255.93 226.041 1247.59 222.777C1215.67 210.273 1183.25 233.961 1161.67 256.035C1146.38 271.628 1132.42 289.258 1118.27 307.459C1105.89 323.39 1094.25 340.528 1081.92 358.669C1063.61 385.599 1044.69 413.444 1023.27 436.825C1010.56 450.775 997.295 462.836 983.845 472.674C958.792 491.001 931.357 505.232 899.972 516.186C882.409 522.314 864.422 526.68 846.511 529.157C831.398 531.223 816.313 531.962 801.672 531.345C779.891 530.437 758.6 526.356 738.388 519.216C717.161 511.715 696.906 500.756 678.189 486.643C661.791 474.28 645.957 458.941 629.783 439.751C600.408 404.949 575.244 366.367 556.606 336.641C549.706 325.637 542.917 314.565 536.349 303.854C510.196 261.201 485.493 220.911 455.463 186.968C433.019 161.6 407.822 140.15 380.575 123.215C359.959 110.401 338.108 100.801 313.775 93.8639C308.16 92.2657 302.447 90.8254 296.797 89.5823C271.983 84.1507 245.499 82.0959 213.457 79.9706C190.36 78.3611 160.124 77.3013 131.078 83.4517C117.321 86.3098 104.023 91.2736 91.5502 98.1991C47.636 122.589 17.8467 165.197 11.8609 212.179L11.5479 212.108C13.1342 199.649 16.3492 187.43 21.0976 175.786C25.624 164.692 31.5717 154.054 38.7737 144.161C52.4606 125.366 70.6676 109.336 91.4275 97.8073C103.924 90.8677 117.247 85.8955 131.027 83.0317C160.101 76.8729 190.36 77.9355 213.472 79.545C245.525 81.6703 272.016 83.7251 296.848 89.1595C302.502 90.4054 308.219 91.8458 313.841 93.444C338.197 100.389 360.069 109.998 380.708 122.826C407.983 139.778 433.201 161.245 455.668 186.638C485.72 220.606 510.433 260.908 536.595 303.577C543.16 314.286 549.95 325.357 556.849 336.359C575.483 366.073 600.636 404.642 629.994 439.427C646.15 458.597 661.966 473.919 678.346 486.268C715.149 514.018 756.648 529.039 801.683 530.916C816.311 531.531 831.381 530.795 846.479 528.729C864.373 526.254 882.345 521.894 899.892 515.769C931.251 504.826 958.663 490.606 983.695 472.296C997.128 462.47 1010.38 450.426 1023.07 436.49C1044.47 413.129 1063.39 385.294 1081.68 358.378C1094.02 340.229 1105.67 323.088 1118.06 307.149C1132.21 288.937 1146.18 271.301 1161.48 255.691C1175.47 241.38 1189.27 231.086 1202.5 225.088C1218.53 217.816 1233.74 216.9 1247.68 222.362C1256.05 225.641 1264.3 230.912 1272.9 238.48C1289.92 253.388 1305.1 274.914 1319.79 295.73C1324.68 302.673 1329.31 309.232 1334 315.543C1351.66 339.349 1369.23 364.895 1386.2 391.47C1420.99 445.871 1456.08 508.97 1493.46 584.378L1493.2 584.615Z" fill="#A1A1A1"/>
<path d="M1491.92 564.14C1456.94 486.471 1422.39 422.224 1386.28 367.73C1368.83 341.328 1350.54 316.566 1331.93 294.126C1327.96 289.329 1323.86 284.238 1319.9 279.317C1303.55 258.982 1286.64 237.958 1268.18 224.741C1259.52 218.495 1251.27 214.351 1242.97 212.077C1211.12 203.341 1180.53 229.493 1160.47 252.967C1146.88 268.814 1134.45 286.775 1122.43 304.146L1120.18 307.399C1109.27 323.158 1099.04 340.443 1088.2 358.744C1070.94 387.887 1053.1 418.019 1031.69 442.795C1019.24 457.317 1005.87 469.468 991.953 478.911C967.695 495.375 940.697 507.123 906.997 515.884C889.571 520.413 871.592 523.243 853.558 524.292C838.484 525.135 823.492 524.712 808.995 523.029C765.106 517.958 724.098 500.364 687.109 470.737C671.119 457.929 655.275 442.186 638.673 422.602C610.578 389.53 585.59 355.537 562.406 323.553C559.297 319.266 556.221 315.007 553.169 310.782C521.504 266.954 491.596 225.556 456.447 193.693C433.5 172.891 408.328 155.928 381.633 143.272C362.034 133.982 340.794 127.674 316.703 123.987C311.273 123.161 305.751 122.482 300.288 121.969C286.544 120.7 271.966 120.495 256.532 120.277C244.135 120.103 231.318 119.922 217.792 119.187C191.668 117.645 162.06 115.9 134.894 119.553C120.877 121.439 107.499 125.261 95.1294 130.915C51.2322 150.984 19.8311 187.94 11.1316 229.772L10.7742 229.64C13.067 218.61 16.8996 207.851 22.1641 197.662C27.1981 187.918 33.5688 178.633 41.0986 170.067C55.5005 153.685 74.1432 139.986 95.0067 130.447C107.403 124.779 120.809 120.948 134.853 119.06C162.048 115.404 191.67 117.152 217.804 118.693C231.322 119.426 244.14 119.609 256.532 119.784C271.972 120.001 286.554 120.207 300.311 121.478C305.778 121.994 311.307 122.673 316.741 123.499C340.862 127.189 362.127 133.506 381.754 142.81C408.48 155.48 433.68 172.463 456.652 193.287C491.833 225.178 521.755 266.596 553.434 310.443C556.486 314.669 559.563 318.925 562.67 323.215C585.85 355.193 610.829 389.178 638.916 422.238C655.501 441.8 671.328 457.528 687.3 470.32C724.24 499.91 765.195 517.479 809.027 522.544C823.507 524.224 838.484 524.647 853.542 523.804C871.556 522.756 889.518 519.929 906.925 515.405C940.591 506.653 967.557 494.918 991.784 478.477C1005.67 469.054 1019.01 456.925 1031.45 442.429C1052.83 417.683 1070.66 387.568 1087.91 358.443C1098.75 340.133 1108.99 322.84 1119.91 307.069L1122.16 303.817C1134.18 286.437 1146.62 268.465 1160.23 252.601C1180.34 229.051 1211.05 202.823 1243.04 211.597C1251.38 213.883 1259.66 218.041 1268.35 224.313C1286.86 237.558 1303.78 258.605 1320.15 278.961C1324.11 283.883 1328.2 288.973 1332.18 293.768C1350.8 316.219 1369.09 340.995 1386.56 367.412C1422.67 421.928 1457.24 486.197 1492.23 563.892L1491.92 564.14Z" fill="#A1A1A1"/>
<path d="M1490.64 543.662C1458.53 464.82 1423.53 397.547 1386.62 343.715C1368.67 317.479 1349.66 293.489 1330.11 272.411C1327.28 269.367 1324.39 266.207 1321.59 263.151C1303.11 242.967 1284 222.092 1263.65 210.648C1254.91 205.684 1246.64 202.654 1238.36 201.38C1206.6 196.498 1177.83 225.071 1159.28 249.901C1147.76 265.24 1137.37 282.299 1127.31 298.797C1125.57 301.652 1123.83 304.502 1122.09 307.34C1112.53 322.933 1103.59 340.353 1094.13 358.792C1078.03 390.142 1061.39 422.557 1040.12 448.771C1027.62 464.164 1014.52 476.064 1000.06 485.157C969.818 504.175 939.595 511.213 914.021 515.593C896.724 518.553 878.754 519.85 860.606 519.438C845.578 519.058 830.677 517.471 816.32 514.725C773.749 506.605 733.278 486.457 696.033 454.839C680.535 441.687 664.682 425.536 647.565 405.464C630.274 385.237 614.161 365.774 598.576 346.951C587.986 334.157 577.982 322.073 568.212 310.48C531.282 266.655 497.455 228.124 457.439 200.427C433.999 184.206 408.852 171.724 382.697 163.333C363.95 157.318 343.912 154.389 319.636 154.11C314.399 154.06 309.065 154.141 303.784 154.356C295.761 154.702 287.461 155.427 278.677 156.196C261.82 157.67 242.71 159.342 222.125 158.406C214.287 158.048 206.289 157.544 198.554 157.053C178.659 155.793 158.088 154.491 138.707 155.655C124.474 156.512 111.014 159.195 98.7037 163.632C54.8805 179.431 21.8698 210.738 10.3974 247.378L10.0061 247.161C13.0096 237.566 17.4598 228.27 23.232 219.529C28.7757 211.135 35.5694 203.206 43.4208 195.965C58.5502 182.013 77.6265 170.645 98.5895 163.088C110.929 158.64 124.419 155.948 138.684 155.091C158.086 153.924 178.666 155.229 198.571 156.489C206.304 156.98 214.301 157.484 222.138 157.842C242.703 158.778 261.798 157.109 278.648 155.635C287.436 154.866 295.738 154.141 303.769 153.795C309.057 153.58 314.395 153.499 319.639 153.549C343.948 153.826 364.016 156.763 382.794 162.786C408.981 171.189 434.162 183.684 457.631 199.928C475.707 212.438 494.024 228.287 513.629 248.379C531.18 266.365 548.253 286.045 568.491 310.06C578.261 321.656 588.265 333.74 598.858 346.534C614.44 365.354 630.553 384.817 647.84 405.042C664.94 425.094 680.776 441.228 696.255 454.366C733.449 485.941 773.863 506.061 816.375 514.17C830.715 516.913 845.597 518.497 860.608 518.877C878.735 519.289 896.686 517.995 913.962 515.035C939.504 510.664 969.687 503.634 999.876 484.65C1014.29 475.582 1027.36 463.713 1039.82 448.359C1061.07 422.19 1077.69 389.801 1093.77 358.477C1103.24 340.026 1112.19 322.598 1121.76 306.988C1123.5 304.149 1125.24 301.3 1126.98 298.447C1137.04 281.938 1147.44 264.868 1158.97 249.509C1171.04 233.355 1183.42 220.927 1195.77 212.573C1210.39 202.676 1224.74 198.725 1238.4 200.827C1246.72 202.107 1255.03 205.151 1263.81 210.135C1284.21 221.61 1303.35 242.51 1321.85 262.72C1324.65 265.776 1327.54 268.935 1330.36 271.977C1349.93 293.072 1368.96 317.084 1386.92 343.34C1406.51 371.925 1425.71 404.492 1443.96 440.137C1460.1 471.642 1475.92 506.385 1491 543.397L1490.64 543.662Z" fill="#A1A1A1"/>
<path d="M1489.36 523.179C1459.64 442.077 1425.18 373.616 1386.95 319.697C1368.51 293.627 1348.77 270.413 1328.28 250.693C1327.31 249.754 1326.33 248.816 1325.35 247.874C1304.04 227.343 1282.01 206.113 1259.12 196.554C1250.26 192.851 1241.96 190.931 1233.76 190.683C1202.12 189.73 1175.15 220.691 1158.09 246.829C1148.05 262.12 1139.14 278.88 1130.52 295.087C1128.39 299.096 1126.19 303.239 1124.02 307.275C1115.73 322.649 1108.03 340.127 1099.88 358.635C1085.05 392.298 1069.72 427.106 1048.55 454.741C1036.3 470.729 1023.09 482.719 1008.17 491.401C978.774 508.502 948.923 512.992 921.046 515.298C903.857 516.718 885.893 516.476 867.654 514.579C852.675 512.972 837.869 510.224 823.645 506.413C782.523 495.42 742.589 472.719 704.959 438.936C689.889 425.41 674.478 409.326 656.464 388.321C622.226 348.51 596.802 320.47 574.031 297.404C528.74 251.53 494.172 224.541 458.45 207.161C434.535 195.526 409.413 187.529 383.78 183.391C365.996 180.522 347.123 180.778 322.588 184.231C317.56 184.947 312.416 185.79 307.297 186.74C302.462 187.65 297.551 188.693 292.35 189.795C273.147 193.868 251.38 198.485 226.468 197.623C213.337 197.169 199.925 195.926 186.955 194.725C172.215 193.361 156.974 191.949 142.523 191.757C128.035 191.565 114.491 193.11 102.281 196.351C58.6036 207.939 23.9791 233.603 9.66185 265.001L9.25574 264.671C12.9741 256.514 18.042 248.68 24.3175 241.389C30.3752 234.347 37.5878 227.777 45.7564 221.855C61.624 210.349 81.1381 201.312 102.188 195.729C114.432 192.481 128.005 190.931 142.527 191.123C156.991 191.314 172.241 192.727 186.987 194.094C199.953 195.294 213.359 196.537 226.479 196.991C251.346 197.851 273.09 193.24 292.272 189.172C297.475 188.067 302.39 187.027 307.228 186.114C312.353 185.164 317.501 184.321 322.533 183.602C347.106 180.147 366.011 179.887 383.833 182.765C409.502 186.909 434.659 194.917 458.609 206.569C494.38 223.972 528.983 250.989 574.314 296.903C597.094 319.976 622.526 348.025 656.772 387.848C674.774 408.836 690.168 424.902 705.221 438.415C742.801 472.149 782.675 494.82 823.736 505.796C837.941 509.601 852.73 512.344 867.688 513.95C885.905 515.844 903.846 516.087 921.014 514.669C948.849 512.366 978.649 507.887 1007.98 490.826C1022.85 482.178 1036.01 470.227 1048.21 454.296C1069.33 426.72 1084.65 391.949 1099.46 358.322C1107.62 339.803 1115.33 322.31 1123.62 306.915C1125.8 302.881 1128 298.738 1130.13 294.729C1138.76 278.508 1147.67 261.737 1157.73 246.42C1168.86 229.361 1180.53 215.868 1192.42 206.313C1206.34 195.12 1220.25 189.654 1233.77 190.057C1242.01 190.305 1250.35 192.236 1259.26 195.957C1282.22 205.549 1304.29 226.807 1325.63 247.37C1326.61 248.311 1327.58 249.253 1328.56 250.188C1349.07 269.931 1368.84 293.174 1387.29 319.272C1425.56 373.238 1460.04 441.752 1489.79 522.911L1489.36 523.179Z" fill="#A1A1A1"/>
<path d="M931.57 515.004C930.384 515.004 929.214 515.002 928.063 514.993C910.963 514.897 893.005 513.122 874.695 509.711C859.77 506.878 845.057 502.969 830.964 498.095C810.828 491.144 790.621 481.155 770.897 468.406C751.851 456.094 732.669 440.828 713.882 423.028C695.474 405.588 678.28 386.156 665.357 371.175C635.119 336.218 606.349 306.999 579.847 284.328C536.923 247.612 498.671 225.229 459.463 213.889C435.809 207.048 410.432 203.44 385.998 203.44C385.62 203.44 385.243 203.44 384.865 203.443C363.874 203.539 343.945 208.737 325.54 214.34C320.749 215.809 315.793 217.413 310.81 219.112C308.079 220.054 305.344 221.023 302.451 222.049C282.042 229.296 258.909 237.507 230.805 236.833C213.69 236.422 196.208 234.06 179.302 231.774C168.386 230.297 157.1 228.772 146.334 227.85C131.534 226.585 117.915 226.99 105.851 229.062C62.406 236.515 26.1676 256.539 8.91034 282.629L8.5127 282.164C17.3645 268.783 30.6792 257.198 48.0866 247.728C64.7115 238.685 84.6634 231.988 105.783 228.366C117.879 226.291 131.534 225.88 146.368 227.151C157.144 228.073 168.437 229.601 179.357 231.078C196.253 233.364 213.724 235.726 230.816 236.134C258.848 236.808 281.941 228.608 302.316 221.376C305.211 220.347 307.946 219.377 310.679 218.436C315.666 216.736 320.626 215.129 325.421 213.661C343.859 208.049 363.821 202.843 384.862 202.744C409.685 202.629 435.517 206.248 459.575 213.207C479.81 219.062 499.428 227.678 519.545 239.551C538.919 250.986 558.738 265.44 580.13 283.742C606.654 306.43 635.445 335.671 665.702 370.651C678.615 385.624 695.796 405.042 714.184 422.461C752.305 458.58 791.64 483.799 831.096 497.421C845.17 502.289 859.863 506.193 874.766 509.023C893.054 512.428 910.986 514.204 928.063 514.297C954.786 514.443 985.815 513.243 1016.08 496.993C1031.4 488.768 1044.65 476.741 1056.59 460.226C1077.57 431.222 1091.47 393.995 1104.92 357.992C1111.84 339.473 1118.37 321.98 1125.48 306.838C1127.75 301.987 1130.05 296.99 1132.27 292.156C1139.78 275.824 1147.53 258.94 1156.47 243.333C1166.69 225.378 1177.65 210.814 1189.05 200.047C1202.28 187.563 1215.75 180.578 1229.11 179.287C1237.36 178.489 1245.73 179.304 1254.7 181.779C1278.69 188.391 1302.47 207.604 1326.74 228.397C1347.9 246.527 1368.97 269.626 1387.66 295.2C1408.41 323.525 1427.91 356.755 1445.62 393.964C1461.4 427.115 1475.84 463.606 1488.57 502.425L1488.08 502.706C1460.76 419.341 1426.85 349.691 1387.28 295.693C1368.62 270.156 1347.59 247.091 1326.45 228.992C1302.22 208.235 1278.49 189.059 1254.6 182.469C1245.67 180.009 1237.35 179.2 1229.15 179.992C1204.6 182.368 1178.94 205.013 1156.89 243.762C1147.97 259.341 1140.22 276.21 1132.72 292.525C1130.5 297.362 1128.2 302.362 1125.93 307.213C1118.83 322.327 1112.31 339.806 1105.4 358.308C1098.8 375.972 1091.97 394.24 1084.14 411.801C1075.27 431.709 1066.38 447.708 1056.97 460.716C1044.98 477.304 1031.67 489.385 1016.28 497.65C1002.7 504.939 988.116 509.756 971.679 512.383C957.76 514.596 943.779 515.004 931.57 515.004Z" fill="#A1A1A1"/>
<path d="M965.489 516.417C954.704 516.417 944.344 515.56 935.076 514.692C918.034 513.096 900.085 509.784 881.73 504.846C866.869 500.79 852.25 495.722 838.277 489.777C800.017 473.533 762.243 446.493 722.798 407.119C705.596 389.95 689.379 371.477 674.247 354.029C644.373 319.683 614.571 291.835 585.664 271.253C543.15 240.983 503.373 224.891 460.483 220.612C436.045 218.174 410.274 219.169 385.954 223.487C365.598 227.101 346.408 235.822 328.493 244.441C324.011 246.609 319.243 248.976 314.326 251.477C313.097 252.105 311.857 252.745 310.601 253.39C289.968 264.023 266.621 276.053 236.659 276.053C236.153 276.053 235.65 276.05 235.14 276.041C214.869 275.768 194.172 271.912 174.155 268.18C166.219 266.7 158.012 265.173 150.137 263.935C134.756 261.522 121.435 260.809 109.411 261.762C65.6764 265.229 28.7613 279.255 8.13461 300.251L7.78137 299.634C17.9784 289.255 32.7229 280.244 50.4159 273.575C67.8191 267.016 88.2067 262.664 109.375 260.987C121.433 260.031 134.788 260.744 150.203 263.163C158.086 264.4 166.295 265.931 174.233 267.408C194.231 271.134 214.909 274.987 235.142 275.261C265.729 275.678 289.456 263.448 310.387 252.66C311.642 252.015 312.883 251.375 314.112 250.744C319.034 248.241 323.804 245.873 328.29 243.705C346.234 235.069 365.461 226.337 385.872 222.712C410.23 218.388 436.042 217.39 460.521 219.831C481.776 221.951 502.041 226.957 522.473 235.131C543.516 243.55 564.274 255.138 585.933 270.562C614.876 291.172 644.716 319.055 674.622 353.434C689.747 370.876 705.953 389.339 723.14 406.491C762.532 445.811 800.249 472.812 838.448 489.03C852.4 494.964 867 500.026 881.84 504.076C900.17 509.009 918.093 512.318 935.109 513.908C963.744 516.586 994.206 517.961 1024.17 503.143C1039.94 495.344 1053.29 483.241 1064.96 466.14C1085.77 435.678 1098.72 394.128 1110.15 357.468C1115.9 339.022 1121.33 321.6 1127.33 306.748C1129.49 301.39 1131.66 295.851 1133.77 290.496C1140.35 273.739 1147.16 256.412 1155.21 240.23C1164.53 221.379 1174.79 205.743 1185.69 193.758C1198.21 179.995 1211.26 171.493 1224.46 168.497C1232.71 166.623 1241.11 166.324 1250.14 167.575C1275.36 171.079 1300.98 188.391 1324.92 206.58C1347.02 223.374 1368.84 245.687 1388.02 271.106C1409.35 299.298 1429.01 332.861 1446.44 370.854C1462.03 404.83 1475.79 442.195 1487.34 481.916L1486.8 482.195C1462.25 397.764 1427.95 324.96 1387.61 271.653C1368.47 246.282 1346.69 224.011 1324.63 207.251C1300.75 189.105 1275.2 171.834 1250.08 168.345C1241.1 167.099 1232.76 167.398 1224.56 169.258C1200.18 174.791 1175.73 200.145 1155.7 240.653C1147.66 256.801 1140.86 274.111 1134.29 290.851C1132.18 296.209 1130.01 301.748 1127.84 307.112C1121.86 321.93 1116.44 339.335 1110.69 357.761C1099.24 394.477 1086.27 436.095 1065.4 466.658C1053.65 483.852 1040.23 496.023 1024.38 503.868C1010.61 510.672 995.771 514.613 978.992 515.907C974.455 516.273 969.937 516.417 965.489 516.417Z" fill="#A1A1A1"/>
<path d="M986.777 519.469C986.623 519.469 986.471 519.469 986.316 519.469C971.075 519.418 956.11 516.932 942.087 514.39C925.071 511.306 907.133 506.455 888.767 499.978C873.974 494.704 859.447 488.472 845.593 481.459C808.862 462.892 772.679 434.218 731.719 391.213C716.968 375.73 702.452 359.057 688.412 342.937C686.657 340.919 684.899 338.904 683.141 336.888C653.113 302.551 622.277 276.069 591.491 258.182C549.335 233.69 506.818 223.599 461.513 227.334C436.671 229.383 410.923 234.984 387.054 243.53C368.221 250.276 351.44 261.097 331.456 274.542C327.406 277.279 323.08 280.233 317.847 283.841L317.555 284.044C307.46 291.051 296.017 298.991 283.183 305.029C268.442 311.963 254.142 315.3 239.478 315.261C216.611 315.184 193.275 309.513 170.709 304.025C165.18 302.681 159.461 301.291 153.94 300.034C138.109 296.434 124.707 294.616 112.97 294.478C69.7543 293.971 31.2549 302.506 7.34553 317.89L7.07056 317.129C18.782 309.592 34.5798 303.476 52.755 299.439C70.9641 295.394 91.7896 293.387 112.977 293.636C124.747 293.774 138.183 295.594 154.048 299.202C159.573 300.46 165.292 301.849 170.823 303.194C193.362 308.673 216.668 314.339 239.48 314.415C239.582 314.415 239.685 314.415 239.787 314.415C272.417 314.415 297.276 297.165 317.264 283.294L317.558 283.091C322.792 279.48 327.118 276.526 331.17 273.789C351.188 260.321 367.999 249.481 386.891 242.716C410.8 234.153 436.59 228.543 461.475 226.491C483.645 224.665 504.557 226.057 525.41 230.753C547.881 235.813 569.58 244.531 591.745 257.41C622.59 275.331 653.479 301.855 683.556 336.248C685.313 338.264 687.071 340.282 688.827 342.3C702.861 358.415 717.372 375.082 732.111 390.553C773.017 433.505 809.147 462.14 845.817 480.675C859.652 487.68 874.158 493.901 888.93 499.169C907.27 505.638 925.183 510.48 942.172 513.558C972.602 519.077 1002.39 522.905 1032.28 509.33C1048.5 501.962 1061.93 489.783 1073.35 472.093C1093.97 440.137 1105.24 395.858 1115.18 356.788C1119.83 338.498 1124.23 321.219 1129.18 306.7C1131.09 301.113 1133.01 295.335 1134.86 289.746C1140.64 272.27 1146.63 254.202 1153.96 237.166C1162.41 217.41 1171.96 200.7 1182.33 187.503C1194.16 172.463 1206.77 162.451 1219.8 157.749C1227.88 154.835 1236.13 153.414 1244.99 153.414C1245.19 153.414 1245.38 153.414 1245.57 153.417C1273.12 153.609 1301.48 170.29 1323.1 184.8C1346.14 200.261 1368.71 221.784 1388.39 247.045C1410.3 275.108 1430.11 309 1447.27 347.783C1462.67 382.585 1475.74 420.826 1486.13 461.449L1485.52 461.723C1470.07 401.279 1440.6 315.077 1387.95 247.657C1368.32 222.452 1345.8 200.979 1322.82 185.556C1301.26 171.084 1272.99 154.451 1245.57 154.262C1236.54 154.192 1228.17 155.607 1219.97 158.567C1195.82 167.279 1172.58 195.342 1154.51 237.586C1147.19 254.583 1141.22 272.631 1135.44 290.087C1133.59 295.679 1131.67 301.46 1129.76 307.05C1124.82 321.532 1120.43 338.788 1115.78 357.059C1105.82 396.199 1094.53 440.563 1073.83 472.642C1062.34 490.451 1048.81 502.712 1032.49 510.128C1018.65 516.411 1003.69 519.469 986.777 519.469Z" fill="#A1A1A1"/>
<path d="M1003.7 523.438C1000.42 523.438 997.067 523.297 993.632 523.016C978.598 521.784 963.987 518.088 949.096 514.086C931.835 509.446 914.402 503.24 895.802 495.111C881.085 488.622 866.653 481.231 852.907 473.139C818.035 452.641 783.41 422.467 740.641 375.305C730.018 363.593 719.401 351.309 709.132 339.429C703.541 332.962 697.763 326.274 692.037 319.743C661.651 285.174 629.785 260.065 597.322 245.11C554.43 225.348 510.346 221.728 462.549 234.046C437.296 240.554 411.572 250.761 388.16 263.561C369.352 273.843 352.969 288.283 335.622 303.572L334.423 304.629C331.714 307.025 328.975 309.455 326.202 311.912C324.605 313.33 322.997 314.757 321.375 316.194C311.261 325.205 300.336 334.606 287.808 341.841C273.262 350.241 258.875 354.373 243.82 354.475C218.756 354.638 193.19 346.876 168.469 339.361C164.941 338.287 161.29 337.179 157.747 336.128C141.137 331.195 128.042 328.357 116.532 327.19C74.0561 322.886 33.9704 325.919 6.54996 335.513L6.37439 334.628C33.8667 325.008 74.035 321.964 116.585 326.277C128.127 327.446 141.256 330.293 157.897 335.234C161.442 336.289 165.093 337.396 168.623 338.47C193.042 345.892 218.284 353.561 243.016 353.561C243.283 353.561 243.549 353.561 243.818 353.559C275.807 353.344 298.578 335.401 320.996 315.433C322.619 313.996 324.226 312.569 325.823 311.151C328.596 308.691 331.333 306.264 334.045 303.865L335.244 302.808C352.62 287.494 369.031 273.029 387.9 262.712C411.354 249.887 437.123 239.664 462.42 233.144C510.338 220.795 554.54 224.426 597.548 244.241C630.092 259.237 662.032 284.402 692.486 319.047C698.211 325.58 703.992 332.266 709.582 338.735C719.847 350.613 730.463 362.894 741.078 374.597C783.797 421.706 818.373 451.838 853.184 472.302C866.911 480.38 881.321 487.762 896.017 494.24C914.59 502.357 931.998 508.556 949.234 513.187C975.398 520.219 1007.96 528.974 1040.39 515.49C1057.06 508.559 1070.58 496.303 1081.73 478.021C1102.15 444.535 1111.62 397.437 1119.98 355.887C1123.61 337.836 1127.04 320.786 1131.04 306.636C1132.6 301.123 1134.16 295.42 1135.67 289.904C1140.74 271.405 1145.98 252.277 1152.71 234.086C1160.3 213.41 1169.14 195.627 1178.97 181.229C1190.11 164.915 1202.28 153.395 1215.14 146.988C1223.4 142.876 1231.86 140.342 1241 139.239C1253.25 137.762 1266.29 139.341 1280.87 144.054C1293.2 148.045 1306.42 154.241 1321.28 162.998C1345.26 177.123 1368.59 197.86 1388.75 222.966C1411.25 250.896 1431.22 285.124 1448.1 324.692C1463.3 360.324 1475.69 399.441 1484.91 440.963L1484.25 441.223C1464.78 353.561 1430.69 276.287 1388.28 223.637C1368.17 198.598 1344.91 177.92 1321 163.838C1288.98 144.97 1263.58 137.441 1241.07 140.153C1231.98 141.246 1223.58 143.763 1215.38 147.845C1184.79 163.086 1164.75 203.376 1153.33 234.489C1146.61 252.635 1141.38 271.741 1136.32 290.217C1134.81 295.736 1133.24 301.441 1131.68 306.957C1127.69 321.065 1124.27 338.095 1120.65 356.124C1112.27 397.764 1102.78 444.96 1082.26 478.599C1071.03 497.024 1057.39 509.379 1040.59 516.366C1029.2 521.102 1017.05 523.438 1003.7 523.438Z" fill="#A1A1A1"/>
<path d="M1018.37 527.987C996.004 527.987 974.499 520.329 956.102 513.778C938.794 507.617 921.37 499.916 902.833 490.239C888.198 482.544 873.86 473.992 860.217 464.818C819.321 437.347 782.863 397.916 749.558 359.396C742.758 351.532 735.888 343.425 729.247 335.586C720.025 324.701 710.488 313.445 700.932 302.599C670.091 267.69 637.195 243.948 603.158 232.033C559.128 216.623 513.473 219.473 463.586 240.749C437.9 251.702 412.201 266.514 389.267 283.584C371.578 296.748 356.611 313.367 340.767 330.961C339.644 332.207 338.519 333.458 337.387 334.71L336.774 335.392C332.922 339.673 328.939 344.099 324.901 348.541C315.227 359.232 304.573 370.29 292.25 378.738C277.946 388.544 263.525 393.434 248.159 393.688C221.187 394.136 193.696 384.031 167.113 374.259C165.25 373.574 163.395 372.892 161.549 372.218C144.018 365.808 131.23 362.009 120.088 359.895C78.6782 352.042 37.0018 349.573 5.74459 353.121L5.68115 352.138C36.9892 348.58 78.7268 351.052 120.192 358.917C131.366 361.036 144.181 364.844 161.743 371.265C163.59 371.939 165.445 372.621 167.31 373.309C193.842 383.061 221.28 393.141 248.148 392.701C281.518 392.149 305.019 369.225 324.428 347.78C328.465 343.338 332.448 338.912 336.3 334.634L336.913 333.951C338.045 332.697 339.17 331.448 340.293 330.203C356.165 312.577 371.157 295.93 388.905 282.722C411.882 265.621 437.629 250.783 463.359 239.81C487.011 229.725 509.226 223.901 531.272 222.007C555.864 219.896 580.112 222.949 603.344 231.08C637.489 243.032 670.482 266.841 701.41 301.847C710.972 312.699 720.511 323.956 729.735 334.845C736.377 342.684 743.243 350.787 750.041 358.649C783.311 397.127 819.725 436.515 860.547 463.935C874.171 473.096 888.488 481.637 903.101 489.321C921.611 498.983 939.008 506.672 956.29 512.826C982.826 522.274 1015.85 534.033 1048.48 521.659C1065.61 515.165 1079.22 502.833 1090.1 483.959C1110.32 448.898 1117.88 398.903 1124.55 354.79C1127.23 337.066 1129.77 320.326 1132.89 306.579C1134.04 301.494 1135.2 296.24 1136.32 291.158C1140.71 271.281 1145.25 250.724 1151.45 231.013C1158.2 209.402 1166.32 190.539 1175.6 174.955C1186.06 157.369 1197.79 144.341 1210.47 136.232C1218.71 130.966 1227.2 127.316 1236.42 125.07C1248.85 122.045 1262.64 122.147 1277.41 125.371C1290.35 128.195 1304.49 133.52 1319.45 141.201C1344.36 153.989 1368.44 173.937 1389.11 198.888C1412.19 226.689 1432.32 261.246 1448.92 301.604C1463.92 338.064 1475.62 378.061 1483.68 420.482L1482.96 420.725C1465.88 330.837 1432.37 252.314 1388.61 199.621C1368.02 174.752 1344.01 154.869 1319.19 142.123C1287.01 125.602 1259.98 120.34 1236.56 126.042C1227.4 128.272 1218.97 131.896 1210.79 137.122C1180.62 156.416 1162.24 199.035 1152.13 231.393C1145.94 251.054 1141.41 271.582 1137.03 291.434C1135.91 296.516 1134.75 301.773 1133.6 306.864C1130.49 320.565 1127.96 337.283 1125.28 354.985C1122.07 376.206 1118.43 400.258 1113.15 422.808C1107.1 448.644 1099.75 468.843 1090.69 484.56C1085.45 493.647 1079.43 501.382 1072.8 507.549C1065.66 514.181 1057.55 519.249 1048.69 522.609C1038.55 526.457 1028.37 527.987 1018.37 527.987Z" fill="#A1A1A1"/>
<path d="M1031.59 532.979C1024.2 532.979 1016.45 532.021 1008.26 530.107C992.148 526.338 976.72 519.5 963.107 513.471C945.949 505.869 928.034 496.412 909.863 485.366C895.322 476.476 881.076 466.762 867.527 456.491C828.636 427.044 795.131 387.89 758.475 343.484C755.218 339.538 751.91 335.513 748.712 331.617C736.117 316.287 723.094 300.434 709.826 285.456C678.473 250.137 644.549 227.766 608.994 218.96C564.145 207.851 515.569 217.435 464.622 247.448C438.479 262.85 412.803 282.265 390.373 303.6C373.483 319.663 359.581 338.602 344.862 358.654C343.366 360.692 341.864 362.736 340.354 364.788C336.596 369.901 332.547 375.389 328.429 380.882C319.793 392.442 309.268 405.614 296.694 415.628C282.618 426.841 268.161 432.493 252.501 432.901C223.832 433.654 194.65 421.004 166.428 408.771L165.353 408.306C151.535 402.319 136.918 396.27 123.647 392.597C83.1979 381.404 41.0414 373.633 4.9469 370.715L4.99554 369.661C41.1281 372.581 83.3227 380.358 123.808 391.562C137.117 395.247 151.76 401.304 165.599 407.299L166.673 407.764C194.834 419.969 223.957 432.589 252.486 431.842C285.433 430.979 308.187 406.479 327.869 380.13C331.987 374.639 336.031 369.151 339.79 364.041C341.3 361.992 342.801 359.945 344.297 357.91C359.041 337.824 372.969 318.852 389.914 302.734C412.387 281.357 438.111 261.906 464.302 246.476C488.205 232.397 511.728 222.695 534.211 217.644C559.902 211.874 585.112 211.964 609.142 217.914C644.832 226.754 678.881 249.205 710.34 284.644C723.618 299.637 736.647 315.494 749.249 330.834C752.447 334.726 755.755 338.752 759.013 342.698C795.632 387.061 829.102 426.173 867.922 455.569C881.453 465.824 895.677 475.523 910.197 484.402C928.343 495.431 946.228 504.874 963.361 512.465C990.217 524.365 1023.64 539.172 1056.6 527.826C1074.18 521.775 1087.88 509.37 1098.49 489.898C1118.48 453.213 1124.26 397.919 1128.91 353.488C1130.72 336.181 1132.43 319.835 1134.75 306.531C1135.48 302.337 1136.22 298.016 1136.93 293.836C1140.63 272.12 1144.46 249.664 1150.2 227.949C1159.07 194.155 1175.92 148.949 1205.82 125.489C1214.07 119.012 1222.59 114.243 1231.85 110.911C1256.09 102.069 1284.95 104.93 1317.63 119.409C1343.47 130.862 1368.32 150.02 1389.48 174.816C1413.15 202.485 1433.43 237.374 1449.75 278.525C1457.24 297.399 1463.86 317.558 1469.43 338.441C1474.74 358.389 1479.13 379.104 1482.47 400.01L1481.69 400.23C1467 308.109 1434.06 228.338 1388.95 175.608C1367.87 150.905 1343.12 131.82 1317.38 120.41C1284.85 105.995 1256.15 103.143 1232.06 111.929C1222.87 115.235 1214.41 119.968 1206.22 126.397C1176.53 149.693 1159.78 194.668 1150.95 228.295C1145.22 249.954 1141.4 272.38 1137.7 294.067C1136.99 298.247 1136.25 302.571 1135.52 306.768C1133.21 320.027 1131.5 336.35 1129.7 353.631C1127.36 375.989 1124.71 401.329 1120.18 425.246C1114.97 452.728 1108.09 474.08 1099.13 490.518C1094.02 499.896 1088.04 507.805 1081.37 514.023C1074.17 520.723 1065.91 525.712 1056.79 528.847C1048.8 531.604 1040.44 532.979 1031.59 532.979Z" fill="#A1A1A1"/>
<path d="M1043.77 538.25C1034.91 538.25 1025.56 536.72 1015.58 533.65C999.404 528.681 983.841 520.434 970.109 513.156C952.822 503.995 934.918 493.005 916.893 480.487C902.447 470.41 888.296 459.536 874.836 448.162C837.796 416.889 806.027 376.582 772.392 333.912C770.727 331.801 769.063 329.687 767.394 327.573C751.753 307.752 735.581 287.254 718.721 268.313C686.823 232.546 651.87 211.542 614.835 205.882C568.315 198.77 518.125 215.009 465.657 254.14C439.413 273.713 413.069 298.385 391.478 323.61C375.175 342.656 362.099 364.086 348.255 386.777C346.616 389.463 344.973 392.158 343.317 394.858C340.009 400.261 336.072 406.668 331.952 413.222C324.321 425.39 313.923 440.853 301.135 452.486C287.283 465.089 272.794 471.512 256.84 472.118C243.726 472.555 229.255 469.858 212.596 463.868C198.293 458.727 184.458 452.007 169.149 444.396C155.175 437.364 140.426 430.1 127.194 425.303C87.9984 411.091 46.597 398.646 4.14233 388.307L4.29462 387.2C46.7747 397.541 88.1993 409.997 127.416 424.215C140.684 429.026 155.454 436.301 169.445 443.339C195.106 456.1 227.042 471.986 256.817 470.991C290.857 469.694 312.734 442.111 331.303 412.495C335.421 405.947 339.355 399.543 342.661 394.142C344.317 391.442 345.961 388.747 347.598 386.064C361.464 363.337 374.563 341.869 390.92 322.761C412.555 297.486 438.95 272.766 465.245 253.157C517.871 213.906 568.234 197.626 614.932 204.763C632.836 207.5 650.424 213.856 667.201 223.653C685.203 234.164 702.72 248.903 719.267 267.453C736.145 286.414 752.328 306.923 767.978 326.758C769.647 328.875 771.313 330.986 772.978 333.098C806.581 375.73 838.323 415.998 875.291 447.212C888.732 458.569 902.861 469.429 917.286 479.489C935.286 491.987 953.163 502.963 970.424 512.11C997.553 526.485 1031.32 544.375 1064.7 534C1082.79 528.379 1096.58 515.898 1106.86 495.846C1126.67 457.546 1130.2 399.038 1133.04 352.028C1134.05 335.214 1135.01 319.334 1136.6 306.492C1136.93 303.842 1137.26 301.179 1137.58 298.501C1140.55 274.314 1143.62 249.301 1148.95 224.891C1156.56 189.781 1171.79 142.174 1201.15 114.753C1209.34 107.103 1217.89 101.218 1227.28 96.7588C1240.33 90.5041 1254.87 87.5642 1270.51 88.0152C1284.78 88.4268 1300.02 91.6598 1315.8 97.6213C1342.57 107.732 1368.17 126.101 1389.83 150.742C1414.09 178.275 1434.52 213.503 1450.57 255.443C1457.94 274.686 1464.32 295.26 1469.53 316.591C1474.52 337.021 1478.46 358.201 1481.24 379.541L1480.41 379.733C1468.3 286.741 1435.08 203.59 1389.29 151.599C1367.72 127.065 1342.23 108.772 1315.57 98.7009C1282.7 86.2817 1252.26 85.9773 1227.56 97.8158C1218.24 102.241 1209.76 108.081 1201.63 115.672C1172.48 142.904 1157.33 190.266 1149.76 225.201C1144.44 249.546 1141.38 274.522 1138.42 298.679C1138.09 301.356 1137.76 304.023 1137.43 306.672C1135.85 319.466 1134.89 335.327 1133.88 352.115C1131.04 399.261 1127.5 457.937 1107.56 496.483C1102.6 506.148 1096.67 514.238 1089.94 520.521C1082.7 527.28 1074.27 532.185 1064.89 535.099C1058.13 537.196 1051.12 538.25 1043.77 538.25Z" fill="#A1A1A1"/>
<path d="M1055.22 543.739C1045.12 543.739 1034.42 541.563 1022.89 537.194C1006.58 531.012 990.923 521.358 977.109 512.843C959.651 502.081 941.755 489.552 923.918 475.611C909.575 464.364 895.52 452.326 882.14 439.836C849.193 409.09 821.034 371.423 791.221 331.545C786.348 325.025 781.308 318.286 776.308 311.659C758.731 288.376 743.722 269.178 727.611 251.17C695.144 214.93 659.166 195.292 620.673 192.8C572.304 189.669 520.495 212.556 466.686 260.826C439.955 284.808 413.634 314.207 392.574 343.611C376.709 365.764 364.306 389.877 351.175 415.406C349.548 418.569 347.915 421.743 346.272 424.919C343.345 430.588 339.47 438.057 335.47 445.547C318.638 477.139 296.647 509.663 261.174 511.326C260.068 511.374 258.958 511.397 257.849 511.397C230.15 511.397 201.871 496.788 172.94 480.476L171.134 479.45C156.804 471.298 143.267 463.6 130.737 457.997C83.517 436.879 37.8494 419.054 3.33911 405.885L3.58659 404.732C38.1054 417.907 83.7856 435.735 131.023 456.861C143.586 462.478 157.138 470.188 171.487 478.348L173.291 479.374C203.281 496.283 232.57 511.366 261.143 510.131C296.222 508.485 318.029 476.211 334.736 444.856C338.734 437.372 342.604 429.909 345.532 424.243C347.175 421.063 348.806 417.892 350.432 414.73C363.584 389.162 376.006 365.008 391.923 342.786C413.025 313.319 439.399 283.861 466.182 259.831C491.041 237.53 515.909 220.406 540.093 208.932C567.841 195.765 594.968 189.936 620.715 191.602C659.407 194.105 695.567 213.839 728.187 250.248C744.321 268.285 759.344 287.503 776.938 310.805C781.94 317.431 786.981 324.174 791.856 330.693C821.639 370.533 849.77 408.162 882.654 438.847C896.015 451.322 910.049 463.341 924.37 474.571C942.182 488.495 960.05 501.004 977.483 511.749C1004.85 528.619 1038.91 549.613 1072.8 540.162C1091.33 534.995 1105.21 522.441 1115.23 501.782C1134.8 461.737 1135.97 399.937 1136.92 350.28C1137.23 334.079 1137.52 318.773 1138.45 306.441L1138.47 306.16C1140.56 278.545 1142.73 249.991 1147.69 221.819C1151.98 197.245 1157.97 175.152 1165.47 156.149C1173.93 134.724 1184.36 117.18 1196.48 104.003C1204.58 95.1861 1213.16 88.1816 1222.69 82.5922C1248.44 67.4022 1280.01 65.0571 1313.96 75.816C1327.63 80.1455 1341.11 86.7046 1354.03 95.3073C1367.03 103.961 1379.2 114.511 1390.19 126.66C1415.03 154.06 1435.63 189.621 1451.4 232.355C1465.57 270.765 1475.47 314.582 1480.02 359.064L1479.13 359.224C1469.39 264.02 1436.77 179.589 1389.62 127.581C1367.57 103.222 1341.33 85.7237 1313.76 76.9886C1279.99 66.2917 1248.63 68.6114 1223.06 83.6971C1213.6 89.2443 1205.09 96.1923 1197.05 104.939C1174.43 129.543 1157.66 170.056 1148.56 222.098C1143.62 250.197 1141.46 278.711 1139.37 306.286L1139.35 306.568C1138.42 318.855 1138.12 334.138 1137.82 350.317C1136.87 400.126 1135.69 462.112 1115.99 502.439C1111.15 512.4 1105.27 520.665 1098.5 527.001C1091.19 533.834 1082.61 538.656 1072.99 541.343C1067.26 542.938 1061.35 543.739 1055.22 543.739Z" fill="#A1A1A1"/>
<path d="M261.833 550.642C249.447 550.642 235.958 547.425 220.736 540.858C205.611 534.333 190.653 525.324 176.739 516.564C174.22 514.968 171.72 513.376 169.237 511.794C156.876 503.922 145.201 496.486 134.289 490.694C90.7787 467.606 49.3054 446.854 9.19638 426.791L2.55066 423.465L2.88484 422.278L9.53056 425.604C49.6417 445.673 91.1213 466.425 134.64 489.518C145.581 495.325 157.272 502.769 169.647 510.653C172.128 512.234 174.628 513.827 177.145 515.419C205.706 533.402 236.049 550.83 265.479 549.277C301.656 547.27 323.336 509.714 338.18 477.223C341.983 468.914 345.646 460.632 348.413 454.347C349.94 450.882 351.457 447.421 352.969 443.968C365.512 415.344 377.358 388.307 392.938 362.815C413.504 329.171 439.852 294.969 467.133 266.515C492.442 240.115 517.982 219.256 543.046 204.52C571.795 187.617 599.875 178.845 626.507 178.447C666.58 177.653 703.8 196.025 737.117 233.048C755.586 253.597 772.146 275.825 785.911 294.859C793.4 305.218 800.89 315.836 808.134 326.105C833.776 362.457 860.291 400.044 890.028 430.489C903.311 444.092 917.254 457.272 931.465 469.661C949.052 484.958 966.912 499 984.552 511.397C1012.13 530.773 1046.44 554.887 1080.91 546.329C1099.89 541.619 1113.85 528.991 1123.61 507.724C1142.91 465.864 1141.61 400.679 1140.56 348.302C1140.25 332.813 1139.96 318.181 1140.31 306.402C1141.1 279.847 1142.3 248.985 1146.44 218.758C1149.93 193.144 1155.19 169.972 1162.09 149.886C1169.9 127.164 1179.9 108.115 1191.82 93.2665C1199.71 83.4265 1208.56 75.0747 1218.11 68.4395C1231.75 58.9405 1247.05 52.9677 1263.59 50.6902C1279.08 48.5564 1295.41 49.6783 1312.13 54.0219C1326.24 57.6862 1340.13 63.7125 1353.44 71.9375C1366.84 80.2132 1379.32 90.5239 1390.56 102.582C1403.5 116.467 1415.41 132.864 1425.94 151.317C1435.92 168.802 1444.76 188.302 1452.23 209.273C1466.19 248.506 1475.38 293.227 1478.8 338.594L1477.85 338.721C1470.51 241.299 1438.47 155.591 1389.96 103.572C1367.74 79.7199 1340.04 62.5653 1311.95 55.2677C1277.22 46.2451 1244.93 51.1891 1218.55 69.5642C1209.08 76.1458 1200.3 84.4327 1192.46 94.1939C1170.01 122.172 1154.84 164.157 1147.37 218.986C1143.24 249.132 1142.05 279.94 1141.26 306.453C1140.91 318.19 1141.2 332.799 1141.51 348.268C1142.03 374.107 1142.62 403.396 1140.65 431.71C1138.37 464.564 1133.07 489.645 1124.42 508.387C1119.72 518.641 1113.88 527.083 1107.06 533.476C1099.7 540.382 1090.96 545.125 1081.09 547.575C1076.11 548.812 1071.13 549.373 1066.18 549.373C1036.56 549.373 1007.85 529.197 984.11 512.516C966.445 500.1 948.557 486.037 930.947 470.718C916.714 458.312 902.752 445.113 889.45 431.49C859.652 400.983 833.11 363.356 807.443 326.97C800.201 316.704 792.713 306.089 785.228 295.736C771.481 276.724 754.945 254.527 736.51 234.018C703.372 197.192 666.371 178.927 626.522 179.71C563.942 180.646 505.624 227.969 467.721 267.507C440.495 295.905 414.2 330.034 393.679 363.61C378.145 389.026 366.315 416.021 353.792 444.6C352.279 448.052 350.761 451.514 349.234 454.981C346.465 461.269 342.799 469.556 338.994 477.874C332.763 491.514 322.981 511.369 310.024 526.251C303.731 533.479 297.035 539.158 290.12 543.135C282.411 547.569 274.132 550.061 265.519 550.537C264.299 550.608 263.07 550.642 261.833 550.642Z" fill="#A1A1A1"/>
<path d="M265.809 589.883C253.408 589.883 239.947 586.419 224.805 579.349C209.128 572.032 193.628 561.744 180.536 552.642C176.513 549.841 172.498 546.999 168.615 544.251C157.76 536.57 147.506 529.312 137.838 523.387C103.118 502.106 68.6246 481.33 35.2649 461.235C24.2304 454.589 12.8214 447.717 1.76355 441.042L2.17811 439.822C13.236 446.496 24.6449 453.368 35.6795 460.015C69.0392 480.109 103.537 500.888 138.259 522.172C147.952 528.114 158.219 535.378 169.086 543.07C172.968 545.818 176.982 548.657 181.001 551.459C208.155 570.327 239.651 590.3 269.811 588.42C306.84 586.058 327.638 545.049 341.623 509.587C345.208 500.502 348.675 491.381 351.294 484.45C352.639 480.893 353.976 477.338 355.31 473.792C367.307 441.899 378.638 411.776 393.956 382.847C413.878 345.223 440.205 306.283 468.082 273.2C506.905 227.326 566.909 171.369 632.296 165.301C673.879 161.338 712.152 178.346 746.047 215.857C761.276 232.718 776.335 252.167 794.881 278.925C804.253 292.446 813.553 306.461 822.547 320.01C845.946 355.264 870.139 391.718 897.401 422.145C910.608 436.89 924.455 451.229 938.559 464.764C955.636 481.138 973.49 496.714 991.621 511.061C1019.47 532.965 1054.13 560.23 1089.02 552.513C1108.15 548.369 1122.6 535.305 1131.99 513.685C1151.02 469.931 1146.94 398.347 1143.95 346.08C1143.12 331.412 1142.33 317.558 1142.17 306.382C1141.82 281.544 1141.85 248.793 1145.19 215.716C1150.95 158.398 1165.06 113.592 1187.15 82.5495C1194.89 71.613 1203.77 62.1112 1213.54 54.3062C1227.43 43.1893 1243.11 35.7113 1260.13 32.0837C1276.17 28.6674 1293.05 28.721 1310.3 32.2443C1324.86 35.2829 1339.18 40.7906 1352.85 48.6097C1366.66 56.5076 1379.47 66.5704 1390.92 78.5188C1404.16 92.3247 1416.25 108.777 1426.86 127.423C1436.92 145.093 1445.73 164.869 1453.06 186.207C1466.81 226.266 1475.29 271.889 1477.58 318.144L1476.58 318.232C1471.64 218.585 1440.19 131.598 1390.3 79.5758C1367.68 55.9749 1339.22 39.635 1310.15 33.5691C1274.32 26.2546 1241.09 33.8228 1214.06 55.4563C1204.37 63.1964 1195.57 72.6221 1187.89 83.4712C1165.94 114.308 1151.92 158.86 1146.19 215.896C1142.86 248.883 1142.83 281.569 1143.18 306.359C1143.33 317.496 1144.12 331.333 1144.96 345.982C1146.5 372.999 1148.25 403.624 1147.25 433.522C1146.08 468.335 1141.38 494.778 1132.86 514.359C1128.27 524.921 1122.48 533.546 1115.63 539.995C1108.2 546.988 1099.31 551.645 1089.19 553.838C1073.49 557.307 1056.6 554.19 1037.55 544.305C1020.98 535.711 1005.11 523.229 991.113 512.22C972.955 497.853 955.078 482.254 937.975 465.858C923.85 452.303 909.984 437.944 896.758 423.18C869.439 392.69 845.219 356.197 821.796 320.907C812.806 307.36 803.508 293.354 794.145 279.844C775.631 253.134 760.599 233.722 745.406 216.9C711.712 179.603 673.682 162.696 632.363 166.634C567.258 172.68 507.453 228.465 468.746 274.201C440.924 307.216 414.652 346.075 394.772 383.62C379.497 412.466 368.183 442.547 356.205 474.393C354.87 477.941 353.533 481.496 352.188 485.053C349.568 491.99 346.099 501.12 342.509 510.213C328.402 545.99 307.394 587.366 269.855 589.759C268.52 589.841 267.169 589.883 265.809 589.883Z" fill="#A1A1A1"/>
<path d="M269.865 629.128C235.981 629.128 200.428 601.395 168.911 576.807C159.226 569.253 150.078 562.116 141.385 556.082L0.976563 458.62L1.46517 457.371L141.873 554.833C150.59 560.882 159.748 568.027 169.446 575.593C202.182 601.13 239.287 630.075 274.142 627.566C311.988 624.846 331.925 580.384 345.066 541.957C349.364 529.389 353.514 516.6 357.529 504.232C368.508 470.407 379.86 435.43 394.968 402.877C406.965 377.03 421.869 349.922 438.066 324.489C455.835 296.587 474.861 270.988 494.61 248.404C516.385 223.507 538.526 202.911 560.415 187.191C584.627 169.805 608.479 158.454 631.314 153.451C677.058 143.431 718.662 158.638 754.968 198.655C785.14 231.907 810.784 273.026 835.584 312.792C857.171 347.405 879.492 383.194 904.767 413.788C933.962 449.124 965.56 481.733 998.685 510.706C1026.59 535.119 1061.33 565.504 1097.13 558.675C1127.36 552.908 1144.84 525.95 1150.57 476.256C1155.43 433.987 1150.8 383.845 1147.08 343.558C1145.81 329.828 1144.62 316.859 1144.03 306.343C1140.78 248.368 1142.85 200.509 1150.35 160.036C1155.03 134.783 1161.93 112.273 1170.87 93.1313C1180.85 71.7487 1193.67 53.9233 1208.96 40.1511C1222.19 28.2365 1237.1 19.5832 1253.28 14.4306C1268.68 9.52607 1284.89 7.88277 1301.47 9.5458C1334.07 12.8155 1365.97 28.758 1391.27 54.4335C1404.8 68.1577 1417.08 84.6696 1427.78 103.507C1437.91 121.36 1446.69 141.415 1453.88 163.119C1467.41 204.004 1475.18 250.533 1476.35 297.67L1475.29 297.717C1472.8 197.338 1441.15 106.81 1390.63 55.5581C1336.98 1.12919 1260.82 -4.86053 1209.55 41.3209C1158.75 87.0683 1137.66 173.723 1145.08 306.238C1145.66 316.721 1146.86 329.673 1148.13 343.386C1151.86 383.761 1156.5 434.01 1151.61 476.47C1148.94 499.598 1143.59 518.184 1135.69 531.717C1131.25 539.324 1125.9 545.542 1119.78 550.193C1113.27 555.143 1105.7 558.466 1097.27 560.073C1093.83 560.73 1090.33 561.059 1086.77 561.059C1073.8 561.059 1059.98 556.688 1044.84 547.831C1027.79 537.853 1011.33 523.455 998.101 511.887C964.932 482.872 933.29 450.22 904.052 414.834C878.72 384.175 856.375 348.344 834.765 313.694C809.997 273.978 784.385 232.91 754.289 199.743C718.226 159.999 676.908 144.891 631.479 154.844C539.586 174.975 444.925 297.915 395.861 403.621C380.793 436.084 369.456 471.013 358.491 504.793C354.474 517.167 350.322 529.964 346.02 542.543C337.295 568.055 328.678 586.323 318.902 600.028C312.8 608.58 306.18 615.322 299.225 620.066C291.493 625.34 283.07 628.339 274.191 628.979C272.757 629.077 271.312 629.128 269.865 629.128Z" fill="#A1A1A1"/>
</g>
</svg>
