<svg width="1990" height="461" viewBox="0 0 1990 461" fill="none" xmlns="http://www.w3.org/2000/svg">
<g opacity="0.3">
<path d="M761.505 460.56C754.401 460.56 747.487 460.185 740.843 459.435C726.908 457.862 714.033 454.632 702.577 449.835C690.263 444.68 679.463 437.656 670.474 428.959C652.409 411.478 643.371 390.543 634.629 370.297C632.912 366.322 631.136 362.211 629.334 358.222C617.034 331.037 601.441 307.225 581.669 285.424C542.227 241.935 486.758 204.82 421.257 178.092C345.505 147.183 264.059 131.786 191.921 134.738C149.522 136.474 93.5006 152.982 68.4635 181.174C53.6049 197.905 52.4068 216.473 65.001 234.866L64.7509 234.944C58.1474 225.297 55.2702 215.627 56.2018 206.201C57.0564 197.553 61.1015 189.101 68.2271 181.077C79.56 168.316 98.2492 157.005 122.275 148.368C144.476 140.387 169.203 135.48 191.904 134.551C229.657 133.008 269.808 136.433 311.243 144.736C348.802 152.264 385.865 163.431 421.4 177.931C486.94 204.674 542.441 241.809 581.906 285.324C601.689 307.139 617.289 330.965 629.598 358.165C631.403 362.154 633.178 366.266 634.893 370.242C643.626 390.473 652.659 411.393 670.7 428.848C688.147 445.732 711.763 455.959 740.889 459.246C781.225 463.799 830.206 454.277 871.909 433.772C932.009 404.223 973.718 361.213 1014.06 319.621C1021.13 312.331 1028.44 304.793 1035.67 297.513C1054.47 278.611 1079.92 254.117 1110.16 232.295C1141.07 209.991 1172.49 193.604 1206.2 182.195C1226.84 175.212 1248.71 170.507 1271.2 168.212C1291.98 166.091 1313.97 165.96 1336.57 167.818C1375.33 171.007 1417.09 180.015 1464.23 195.355C1557.06 225.562 1649.79 262.227 1739.84 304.334C1825.44 344.354 1909.38 389.64 1989.35 438.93L1989.16 439.067C1823.4 336.892 1646.75 254.951 1464.11 195.521C1360.93 161.945 1279.02 157.762 1206.33 182.36C1132.37 207.383 1080.71 252.542 1035.9 297.615C1028.67 304.892 1021.36 312.431 1014.29 319.721C973.938 361.328 932.215 404.351 872.074 433.92C852.64 443.475 830.777 450.929 808.851 455.473C797.268 457.873 785.754 459.443 774.624 460.138C770.189 460.422 765.811 460.56 761.505 460.56Z" fill="#FFE492"/>
<path d="M768.451 450.195C750.336 450.195 733.556 447.872 718.56 443.287C701.839 438.175 687.409 430.254 675.669 419.745C674.631 418.814 673.6 417.851 672.605 416.881C654.732 399.476 645.293 378.813 636.167 358.83C634.32 354.791 632.413 350.614 630.478 346.561C618.956 322.426 605.081 301.154 588.057 281.534C585.96 279.118 583.789 276.697 581.599 274.339C541.577 231.224 485.658 194.58 419.887 168.366C343.588 137.985 261.911 123.225 189.902 126.806C147.811 128.921 92.0481 145.699 66.9038 173.675C51.8474 190.426 50.1436 209.031 61.9711 227.478L61.7183 227.552C55.5188 217.884 52.9714 208.194 54.1503 198.757C55.233 190.09 59.4429 181.618 66.6675 173.578C78.1157 160.839 96.75 149.516 120.551 140.833C142.548 132.808 167.168 127.761 189.878 126.621C227.583 124.746 267.778 127.844 309.345 135.829C346.995 143.062 384.234 153.956 420.024 168.207C485.833 194.435 541.783 231.102 581.83 274.241C584.02 276.601 586.194 279.024 588.291 281.441C605.326 301.075 619.209 322.357 630.736 346.505C632.674 350.559 634.581 354.736 636.428 358.776C645.551 378.747 654.982 399.395 672.831 416.776C673.823 417.742 674.853 418.704 675.889 419.634C700.149 441.357 733.482 450.195 768.536 450.195C768.728 450.195 768.918 450.195 769.11 450.195C768.89 450.193 768.67 450.195 768.451 450.195ZM775.928 450.065C808.517 448.938 842.144 440.504 870.993 427.957C933.222 400.781 977.946 358.808 1021.2 318.217C1022.98 316.544 1024.76 314.875 1026.54 313.205C1030.45 309.54 1035.09 305.202 1039.82 300.829C1061.05 281.215 1086.74 258.395 1116.33 237.854C1147.81 215.998 1179.26 199.779 1212.48 188.268C1232.88 181.204 1254.45 176.227 1276.58 173.476C1297.09 170.928 1318.75 170.208 1340.98 171.335C1379.37 173.284 1420.65 180.673 1467.18 193.925C1512.54 206.825 1549.84 218.968 1584.53 232.141C1633.69 250.819 1680.51 272.341 1719.84 290.929C1811.25 334.268 1900.95 383.479 1986.43 437.198L1986.25 437.333C1900.77 383.622 1811.08 334.414 1719.68 291.08C1680.36 272.494 1633.55 250.976 1584.4 232.303C1549.71 219.135 1512.43 206.995 1467.08 194.098C1365.72 165.229 1284.85 163.428 1212.6 188.435C1137.61 214.417 1084.21 260.131 1040.04 300.94C1035.31 305.313 1030.67 309.65 1026.76 313.316C1024.98 314.984 1023.2 316.655 1021.42 318.328C978.154 358.932 933.414 400.92 871.141 428.116C855.7 434.831 839.27 440.165 822.303 443.968C806.511 447.505 790.943 449.55 775.928 450.065Z" fill="#FFE492"/>
<path d="M776.109 440.065C773.93 440.065 771.764 440.033 769.615 439.969C751.517 439.43 734.768 436.633 719.835 431.653C703.504 426.206 689.354 418.138 677.782 407.672C676.754 406.739 675.729 405.774 674.74 404.805C657.068 387.484 647.235 367.098 637.73 347.384C635.749 343.275 633.699 339.026 631.621 334.902C619.53 310.849 605.29 289.748 588.081 270.392C585.952 267.998 583.748 265.598 581.525 263.258C540.923 220.519 484.553 184.344 418.512 158.646C341.67 128.792 259.762 114.666 187.88 118.877C147.407 121.285 91.8061 137.106 65.3702 166.149C50.0967 182.929 47.8736 201.583 58.9398 220.095L58.6843 220.164C52.886 210.465 50.6738 200.754 52.1028 191.3C53.4163 182.605 57.8022 174.111 65.1366 166.053C76.7058 153.343 95.2796 142.016 118.852 133.293C140.644 125.229 165.151 120.045 187.855 118.694C225.516 116.489 265.756 119.258 307.451 126.924C345.195 133.865 382.607 144.483 418.65 158.486C484.729 184.202 541.129 220.397 581.756 263.16C583.979 265.502 586.185 267.902 588.315 270.299C605.531 289.666 619.78 310.78 631.877 334.847C633.954 338.972 636.004 343.222 637.985 347.331C647.488 367.033 657.312 387.405 674.963 404.705C675.952 405.674 676.972 406.637 677.999 407.566C725.021 450.094 808.351 445.528 870.075 422.14C934.9 397.359 983.076 356.172 1029.67 316.342L1030.14 315.933C1034.66 312.072 1039.32 308.082 1043.97 304.141C1092.97 262.572 1146.84 219.851 1218.75 194.337C1238.94 187.189 1260.21 181.94 1281.97 178.736C1302.21 175.757 1323.55 174.448 1345.39 174.848C1383.48 175.544 1424.28 181.315 1470.13 192.49C1518.32 204.193 1554.59 214.95 1587.72 227.371C1634.92 245.104 1680.64 267.512 1720.98 287.282C1810.8 331.538 1899.13 381.392 1983.52 435.456L1983.33 435.589C1898.95 381.53 1810.63 331.682 1720.82 287.43C1680.49 267.663 1634.77 245.259 1587.58 227.532C1554.47 215.115 1518.21 204.361 1470.04 192.662C1370.65 168.438 1290.84 169.021 1218.88 194.498C1147.01 219.995 1093.17 262.698 1044.18 304.253C1039.54 308.193 1034.87 312.185 1030.36 316.044L1029.88 316.453C1006.66 336.302 982.655 356.825 956.731 375.158C927.596 395.76 899.294 411.179 870.207 422.297C839.775 433.827 806.626 440.065 776.109 440.065Z" fill="#FFE492"/>
<path d="M1980.42 433.844C1897.13 379.437 1810.18 328.948 1721.97 283.78C1718.23 281.881 1714.49 279.973 1710.73 278.059C1672.53 258.585 1633.02 238.447 1590.77 222.76C1549.78 207.583 1508.24 198.303 1473.01 191.227C1375.77 171.575 1297.01 174.542 1225.16 200.561C1151.4 227.35 1094.25 271.827 1048.33 307.567C1045.57 309.712 1042.82 311.861 1040.06 314.011C1038.03 315.599 1035.99 317.187 1033.96 318.774C1007.81 339.144 984.026 357.356 957.747 373.975C927.725 392.959 898.788 406.862 869.278 416.481C841.621 425.496 812.078 430.266 784.597 430.268C779.59 430.268 774.658 430.111 769.81 429.79C752.113 428.622 735.729 425.341 721.115 420.036C705.169 414.249 691.299 406.027 679.887 395.6C678.867 394.665 677.851 393.699 676.867 392.727C659.403 375.498 649.189 355.398 639.312 335.96C637.186 331.774 634.984 327.443 632.758 323.24C620.09 299.262 605.482 278.329 588.103 259.243C585.94 256.869 583.701 254.49 581.447 252.171C540.263 209.808 483.445 174.103 417.138 148.917C339.751 119.591 257.616 106.104 185.859 110.938C136.805 114.308 86.6423 133.901 63.8723 158.582C48.3597 175.397 45.6089 194.111 55.9113 212.7L55.653 212.765C50.2586 203.032 48.3789 193.291 50.0662 183.813C51.6188 175.086 56.1861 166.565 63.6387 158.484C75.3287 145.811 93.8421 134.484 117.178 125.73C138.761 117.632 163.142 112.313 185.832 110.755C223.45 108.219 263.73 110.66 305.555 118.008C343.39 124.656 380.98 135.001 417.275 148.754C483.624 173.955 540.472 209.68 581.681 252.07C583.937 254.391 586.177 256.771 588.34 259.145C605.729 278.242 620.343 299.186 633.019 323.175C635.245 327.38 637.447 331.709 639.574 335.898C649.444 355.324 659.653 375.411 677.095 392.62C678.079 393.59 679.093 394.554 680.11 395.487C729.197 440.34 812.63 434.738 869.159 416.313C936.604 394.328 988.214 354.125 1033.75 318.651C1035.79 317.063 1037.82 315.475 1039.86 313.889C1042.61 311.739 1045.36 309.59 1048.12 307.445C1074.33 287.045 1100.22 267.22 1128.68 248.953C1161.41 227.944 1192.93 212.062 1225.04 200.398C1245.01 193.163 1265.98 187.642 1287.37 183.99C1307.35 180.576 1328.36 178.68 1349.82 178.355C1387.66 177.781 1427.98 181.934 1473.1 191.049C1508.34 198.129 1549.9 207.413 1590.9 222.599C1633.17 238.292 1672.69 258.435 1710.9 277.913C1714.66 279.827 1718.4 281.735 1722.14 283.634C1810.36 328.805 1897.32 379.3 1980.61 433.712L1980.42 433.844Z" fill="#FFE492"/>
<path d="M1977.51 432.1C1893.75 376.305 1808.16 325.174 1723.12 280.13C1718.03 277.435 1712.82 274.657 1707.79 271.972C1671.73 252.738 1634.45 232.849 1593.95 217.989C1553.52 203.202 1511.63 195.436 1475.98 189.791C1381.11 174.62 1303.4 179.969 1231.44 206.624C1162.81 232.142 1109.04 270.513 1057.04 307.621L1051.33 311.694C1046.82 314.913 1042.16 318.239 1037.56 321.502C985.505 358.396 933.397 392.976 868.349 410.662C852.564 414.954 836.356 417.928 820.171 419.507C802.789 421.201 785.906 421.225 769.986 419.578C752.696 417.788 736.683 414.029 722.393 408.404C706.842 402.283 693.251 393.912 682 383.525C680.986 382.585 679.978 381.617 679.002 380.647C661.753 363.52 651.17 343.716 640.937 324.563C638.653 320.29 636.29 315.87 633.905 311.578C620.648 287.674 605.677 266.91 588.134 248.098C585.941 245.747 583.668 243.388 581.379 241.087C539.615 199.099 482.349 163.865 415.77 139.191C337.836 110.396 255.47 97.5437 183.837 103.006C135.23 106.79 85.2959 126.52 62.4104 150.987C46.6395 167.844 43.3447 186.63 52.8803 205.314L52.6192 205.375C47.6288 195.599 46.0872 185.821 48.0355 176.315C49.8328 167.551 54.5896 158.997 62.1741 150.89C73.9906 138.26 92.438 126.944 115.527 118.164C136.895 110.037 161.144 104.59 183.804 102.824C221.378 99.959 261.699 102.071 303.656 109.1C341.584 115.456 379.347 125.525 415.899 139.03C482.516 163.717 539.815 198.973 581.604 240.985C583.893 243.288 586.169 245.649 588.362 248C605.916 266.821 620.895 287.597 634.157 311.513C636.543 315.805 638.906 320.227 641.19 324.5C651.418 343.642 661.995 363.436 679.225 380.544C680.198 381.51 681.206 382.476 682.217 383.416C730.124 427.645 809.723 426.403 868.242 410.492C933.238 392.82 985.324 358.254 1037.35 321.376C1041.95 318.113 1046.62 314.787 1051.12 311.568L1056.84 307.495C1082.36 289.281 1108.75 270.445 1137.42 252.923C1169.88 233.078 1200.6 217.881 1231.31 206.462C1251.08 199.136 1271.75 193.343 1292.75 189.245C1312.49 185.392 1333.17 182.908 1354.23 181.862C1391.9 179.991 1431.75 182.527 1476.05 189.61C1511.71 195.258 1553.62 203.026 1594.08 217.826C1634.6 232.692 1671.89 252.586 1707.96 271.826C1712.99 274.511 1718.2 277.287 1723.28 279.984C1808.34 325.031 1893.93 376.166 1977.7 431.967L1977.51 432.1Z" fill="#FFE492"/>
<path d="M1974.59 430.358C1891.56 373.943 1807.33 322.171 1724.26 276.483C1718.02 273.05 1711.62 269.48 1705.43 266.028C1671.32 247.001 1636.05 227.327 1597.14 213.222C1556.89 198.689 1514.81 192.498 1478.96 188.36C1386.71 177.549 1310.05 185.282 1237.72 212.692C1174.6 236.714 1122.78 270.759 1072.66 303.681C1067.38 307.146 1061.93 310.727 1056.61 314.198C1050.37 318.273 1045.6 321.37 1041.16 324.235C1017.33 339.571 988.957 357.23 959.185 371.918C927.635 387.481 897.618 398.253 867.417 404.85C851.536 408.318 835.397 410.506 819.445 411.35C802.317 412.257 785.732 411.59 770.157 409.368C753.281 406.96 737.642 402.723 723.668 396.776C708.516 390.328 695.207 381.807 684.111 371.453C683.111 370.515 682.107 369.545 681.135 368.571C664.113 351.559 653.176 332.06 642.596 313.204C640.142 308.83 637.606 304.309 635.048 299.917C621.195 276.08 605.858 255.486 588.158 236.953C585.932 234.623 583.627 232.285 581.305 230.003C538.96 188.391 481.244 153.627 414.396 129.466C335.921 101.2 253.323 88.9865 181.817 95.0721C141.13 98.6109 87.989 114.913 60.9869 143.353C44.933 160.262 41.0803 179.133 49.8492 197.925L49.5881 197.98C45.0017 188.154 43.8036 178.334 46.024 168.791C48.074 159.983 53.0287 151.391 60.7561 143.253C72.699 130.675 91.0777 119.377 113.911 110.578C135.065 102.427 159.168 96.8563 181.784 94.8888C219.314 91.6943 259.68 93.4766 301.763 100.188C339.781 106.251 377.721 116.046 414.525 129.303C481.412 153.477 539.161 188.262 581.53 229.898C583.852 232.18 586.16 234.521 588.386 236.853C606.095 255.395 621.439 276 635.3 299.848C637.862 304.242 640.398 308.764 642.852 313.137C653.424 331.984 664.358 351.472 681.36 368.466C682.333 369.438 683.333 370.406 684.333 371.342C724.188 408.533 792.6 420.993 867.332 404.67C935.01 389.889 990.218 356.761 1040.97 324.098C1045.41 321.233 1050.18 318.136 1056.42 314.061C1061.74 310.59 1067.19 307.009 1072.46 303.544C1097.14 287.337 1122.65 270.577 1149.86 254.884C1180.64 237.136 1209.33 223.281 1237.59 212.528C1257.18 205.106 1277.55 199.041 1298.14 194.503C1317.65 190.203 1338.01 187.132 1358.65 185.372C1396.23 182.17 1435.6 183.087 1479 188.173C1514.88 192.315 1556.99 198.508 1597.27 213.053C1636.2 227.168 1671.48 246.848 1705.6 265.88C1711.79 269.332 1718.19 272.902 1724.44 276.335C1807.51 322.029 1891.74 373.804 1974.79 430.223L1974.59 430.358Z" fill="#FFE492"/>
<path d="M1971.68 428.615C1889.36 371.576 1806.5 319.162 1725.4 272.834C1718.5 268.893 1711.42 264.757 1704.57 260.757C1671.92 241.705 1638.17 222.004 1600.32 208.451C1560.04 194.092 1517.87 189.511 1481.93 186.924C1393.86 180.414 1316.03 190.827 1244 218.756C1186.65 241.096 1137.48 270.981 1089.94 299.884C1080.33 305.721 1070.4 311.759 1060.75 317.513C1054.84 321.035 1049.61 324.128 1044.75 326.967C1022.13 340.156 992.042 357.067 959.89 370.887C927.584 384.772 897.029 393.98 866.479 399.035C833.16 404.548 799.906 404.589 770.315 399.155C753.863 396.133 738.595 391.42 724.934 385.148C710.186 378.376 697.16 369.706 686.215 359.384C685.223 358.444 684.228 357.472 683.261 356.499C666.481 339.616 655.203 320.437 644.299 301.892C641.661 297.405 638.935 292.767 636.185 288.261C621.724 264.487 606.022 244.059 588.179 225.813C585.921 223.504 583.582 221.186 581.227 218.925C538.303 177.688 480.138 143.392 413.021 119.748C334.004 92.013 251.176 80.4361 179.794 87.1453C131.418 91.7909 83.1159 111.299 59.6039 135.685C43.2422 152.656 38.8206 171.625 46.8174 190.542L46.5536 190.592C42.3738 180.707 41.5219 170.834 44.0199 161.251C46.3282 152.393 51.4945 143.757 59.3731 135.583C71.4424 123.064 89.7496 111.793 112.316 102.987C133.248 94.8189 157.2 89.1257 179.755 86.9603C217.241 83.4363 257.651 84.891 299.863 91.282C337.975 97.0528 376.09 106.574 413.147 119.581C480.303 143.24 538.501 177.555 581.452 218.817C583.807 221.079 586.146 223.398 588.407 225.71C606.259 243.966 621.969 264.403 636.437 288.188C639.188 292.695 641.914 297.335 644.552 301.822C655.451 320.358 666.723 339.527 683.486 356.393C684.453 357.367 685.445 358.335 686.437 359.275C725.608 396.225 792.887 411.021 866.413 398.855C933.443 387.763 991.651 357.682 1044.57 326.828C1049.43 323.989 1054.66 320.898 1060.57 317.376C1070.22 311.622 1080.15 305.586 1089.75 299.749C1137.31 270.84 1186.48 240.948 1243.86 218.599C1263.27 211.072 1283.35 204.736 1303.53 199.765C1322.83 195.012 1342.86 191.353 1363.06 188.889C1400.63 184.308 1439.52 183.607 1481.95 186.742C1517.92 189.332 1560.13 193.914 1600.44 208.29C1638.32 221.853 1672.09 241.56 1704.75 260.62C1711.6 264.62 1718.68 268.755 1725.58 272.695C1806.69 319.027 1889.55 371.444 1971.87 428.487L1971.68 428.615Z" fill="#FFE492"/>
<path d="M1968.76 426.87C1887.18 369.202 1805.69 316.149 1726.55 269.184C1719.28 264.868 1711.8 260.299 1704.56 255.879C1673.11 236.665 1640.59 216.797 1603.5 203.68C1563.06 189.443 1520.85 186.495 1484.89 185.488C1400.16 182.941 1323.41 195.806 1250.28 224.82C1199 245.264 1153.28 271.139 1109.06 296.16C1093.86 304.765 1079.5 312.892 1064.89 320.826C1058.95 324.056 1053.54 326.958 1048.35 329.696C1014.83 347.343 986.953 360.103 960.599 369.849C927.538 382.078 896.447 389.722 865.548 393.216C853.561 394.571 841.618 395.247 829.893 395.247C809.107 395.247 788.994 393.129 770.478 388.935C736.968 381.345 709.329 367.34 688.326 347.308C687.337 346.359 686.35 345.387 685.394 344.417C668.87 327.68 657.276 308.842 646.064 290.623C643.223 286.007 640.288 281.235 637.328 276.595C622.25 252.877 606.179 232.619 588.207 214.664C585.915 212.375 583.544 210.078 581.156 207.837C537.652 166.976 479.037 133.15 411.65 110.018C332.092 82.8167 249.036 71.8746 177.777 79.2076C129.2 84.3103 82.2918 103.448 58.2769 127.964C41.5827 145.005 36.5758 164.087 43.7921 183.148L43.5255 183.195C39.758 173.241 39.2579 163.309 42.0416 153.676C44.6192 144.759 50.0026 136.074 58.0488 127.862C70.2445 115.412 88.4721 104.177 110.764 95.3709C131.47 87.1902 155.254 81.386 177.736 79.0243C215.178 75.1709 255.631 76.2962 297.97 82.3688C336.176 87.8491 374.464 97.0959 411.776 109.852C479.202 132.998 537.85 166.843 581.381 207.728C583.769 209.971 586.141 212.268 588.435 214.559C606.418 232.523 622.497 252.792 637.581 276.519C640.541 281.159 643.478 285.933 646.317 290.549C657.523 308.759 669.112 327.589 685.622 344.312C686.578 345.28 687.562 346.251 688.551 347.199C727.771 384.608 792.267 401.314 865.502 393.031C935.216 385.147 996.964 356.516 1048.18 329.548C1053.37 326.81 1058.78 323.91 1064.72 320.68C1079.32 312.746 1093.68 304.621 1108.89 296.016C1153.11 270.989 1198.84 245.111 1250.14 224.659C1269.41 217.015 1289.18 210.408 1308.92 205.018C1328.03 199.799 1347.74 195.551 1367.48 192.395C1405.13 186.378 1443.54 184.057 1484.9 185.301C1520.89 186.308 1563.14 189.26 1603.63 203.513C1640.74 216.639 1673.28 236.517 1704.75 255.738C1711.98 260.158 1719.46 264.728 1726.73 269.042C1805.87 316.011 1887.37 369.068 1968.96 426.74L1968.76 426.87Z" fill="#FFE492"/>
<path d="M1965.85 425.127C1883.86 366.004 1805.96 313.801 1727.7 265.535C1720.23 260.93 1712.88 256.227 1705.09 251.249C1674.66 231.785 1643.2 211.661 1606.68 198.911C1565.73 184.68 1521.67 183.495 1487.86 184.054C1406.98 185.216 1331.32 200.536 1256.56 230.888C1211.71 249.187 1170.29 271.162 1130.24 292.415C1109.19 303.585 1089.31 314.133 1069.03 324.144C1063.01 327.118 1057.42 329.828 1051.94 332.428C1017.97 348.523 989.173 360.083 961.303 368.812C927.475 379.406 895.848 385.486 864.614 387.4C848.566 388.382 832.627 388.197 817.241 386.85C800.951 385.423 785.27 382.686 770.637 378.715C738.202 369.915 711.22 355.288 690.436 335.238C689.455 334.286 688.477 333.313 687.526 332.343C671.28 315.778 659.395 297.299 647.9 279.429C644.833 274.662 641.662 269.731 638.471 264.937C622.761 241.271 606.328 221.182 588.232 203.523C585.905 201.254 583.5 198.977 581.085 196.756C537.001 156.271 477.938 122.915 410.282 100.296C347.836 79.506 283.439 68.6583 224.386 68.6583C207.692 68.6583 191.438 69.5245 175.76 71.2772C127.769 76.7483 81.1544 95.9544 56.9993 120.208C39.9506 137.328 34.3364 156.54 40.764 175.764L40.4947 175.805C37.1394 165.773 36.9992 155.773 40.077 146.084C42.9294 137.102 48.5464 128.361 56.7684 120.104C69.0906 107.731 87.233 96.543 109.239 87.746C130.011 79.4413 152.999 73.6833 175.711 71.0959C213.109 66.913 253.606 67.7107 296.074 73.4631C334.37 78.6491 372.837 87.6201 410.403 100.128C478.097 122.76 537.196 156.134 581.307 196.643C583.725 198.864 586.133 201.143 588.46 203.414C606.564 221.082 623.006 241.18 638.724 264.858C641.915 269.651 645.089 274.582 648.155 279.352C659.645 297.214 671.525 315.685 687.757 332.237C688.708 333.205 689.686 334.179 690.664 335.128C729.53 372.621 792.921 391.603 864.592 387.213C937.115 382.769 1002.73 355.517 1051.79 332.273C1057.27 329.672 1062.86 326.962 1068.87 323.99C1089.15 313.983 1109.03 303.433 1130.07 292.265C1170.13 271.01 1211.55 249.029 1256.42 230.725C1294.91 215.098 1332.69 203.71 1371.9 195.907C1409.72 188.381 1447.65 184.443 1487.86 183.865C1510.8 183.486 1529.52 184.145 1546.77 185.936C1569.04 188.25 1588.68 192.438 1606.81 198.742C1643.36 211.504 1674.84 231.639 1705.29 251.112C1713.07 256.09 1720.42 260.791 1727.89 265.396C1806.16 313.664 1884.06 365.871 1966.06 424.997L1965.85 425.127Z" fill="#FFE492"/>
<path d="M1962.94 423.383C1881.7 363.612 1805.13 310.788 1728.84 261.885C1721.29 257.047 1713.85 252.062 1705.97 246.786C1676.46 227.015 1645.93 206.569 1609.87 194.139C1568.58 179.974 1524.56 180.541 1490.84 182.615C1414.51 187.148 1339.93 204.922 1262.84 236.949C1224.86 252.805 1188.69 270.95 1153.72 288.5C1126.07 302.372 1099.96 315.476 1073.17 327.452C1067.12 330.162 1061.18 332.753 1055.54 335.152C1021.5 349.596 990.908 360.262 962.007 367.762C927.401 376.742 895.238 381.262 863.68 381.576C847.623 381.736 831.748 380.758 816.505 378.669C800.525 376.477 785.147 373.051 770.797 368.484C739.475 358.513 713.146 343.264 692.544 323.159C691.577 322.209 690.604 321.234 689.656 320.258C673.715 303.895 661.572 285.807 649.827 268.315C646.504 263.365 643.066 258.246 639.612 253.269C623.259 229.647 606.46 209.728 588.257 192.371C585.897 190.122 583.459 187.866 581.011 185.666C536.347 145.556 476.833 112.671 408.908 90.5643C328.27 64.4305 244.75 54.7618 173.738 63.3385C126.368 69.1594 80.0637 88.4155 55.774 112.393C38.3406 129.604 32.1026 148.96 37.7306 168.371L37.4612 168.407C34.5263 158.288 34.7517 148.21 38.1345 138.455C41.2755 129.398 47.1315 120.594 55.5459 112.288C67.989 100.004 86.0407 88.8708 107.75 80.0923C128.283 71.7895 151.083 65.9334 173.689 63.1553C211.045 58.6448 251.584 59.1113 294.178 64.5453C332.568 69.4426 371.208 78.1397 409.026 90.3959C476.993 112.513 536.54 145.419 581.228 185.553C583.679 187.753 586.119 190.011 588.48 192.262C606.694 209.628 623.498 229.556 639.859 253.188C643.316 258.165 646.752 263.284 650.077 268.235C661.816 285.72 673.954 303.801 689.884 320.153C690.832 321.126 691.805 322.102 692.77 323.049C732.044 361.376 792.74 382.098 863.674 381.388C921.232 380.814 982.15 366.07 1055.39 334.991C1061.03 332.592 1066.96 330.003 1073.02 327.293C1099.8 315.318 1125.91 302.218 1153.55 288.346C1188.53 270.795 1224.7 252.645 1262.69 236.786C1301.56 220.637 1338.73 208.414 1376.31 199.414C1414.39 190.296 1451.84 184.738 1490.81 182.425C1524.58 180.346 1568.64 179.782 1609.99 193.969C1646.1 206.414 1676.64 226.869 1706.17 246.649C1714.05 251.926 1721.49 256.908 1729.03 261.744C1805.32 310.649 1881.9 363.477 1963.14 423.252L1962.94 423.383Z" fill="#FFE492"/>
<path d="M1960.02 421.637C1879.54 361.217 1804.3 307.767 1729.99 258.235C1722.45 253.206 1715 247.981 1707.11 242.449C1678.43 222.325 1648.77 201.516 1613.05 189.367C1571.37 175.254 1527.43 177.577 1493.81 181.177C1421.99 188.719 1350.6 208.368 1269.12 243.012C1238.56 256.064 1208.7 270.382 1179.82 284.228C1144.75 301.044 1111.62 316.93 1077.31 330.765C1071.13 333.26 1065.02 335.655 1059.13 337.88C1024.49 350.972 992.949 360.404 962.712 366.712C945.776 370.245 929.057 372.805 913.02 374.321C895.913 375.936 878.999 376.42 862.747 375.757C829.774 374.411 798.892 368.522 770.961 358.254C740.796 347.163 715.124 331.294 694.659 311.083C693.698 310.126 692.733 309.149 691.791 308.179C676.19 292.057 663.829 274.398 651.878 257.322C648.259 252.153 644.519 246.808 640.757 241.607C623.744 218.023 606.58 198.273 588.284 181.225C585.89 178.995 583.417 176.759 580.938 174.581C535.695 134.845 475.733 102.43 407.538 80.8397C326.362 55.2408 242.613 46.2088 171.72 55.4055C95.8116 65.4056 21.8433 108.613 34.704 160.983L34.4319 161.012C31.214 147.912 33.0992 135.006 40.0324 122.65C46.3638 111.365 56.7541 100.745 70.9146 91.0878C84.0804 82.1075 99.876 74.3544 117.859 68.043C134.963 62.0408 153.569 57.6062 171.665 55.2223C208.978 50.3824 249.56 50.5212 292.284 55.6369C330.767 60.2436 369.583 68.6668 407.654 80.6731C475.887 102.278 535.885 134.712 581.155 174.47C583.637 176.65 586.11 178.886 588.506 181.118C606.811 198.173 623.983 217.935 641.004 241.527C644.766 246.728 648.507 252.073 652.126 257.244C664.074 274.315 676.429 291.966 692.021 308.079C692.961 309.049 693.923 310.026 694.885 310.981C734.217 349.823 793.838 372.76 862.764 375.574C921.115 377.952 985.304 365.572 1059 337.72C1064.88 335.496 1070.99 333.103 1077.17 330.608C1111.47 316.776 1144.59 300.893 1179.66 284.078C1208.54 270.23 1238.41 255.91 1268.97 242.856C1350.48 208.197 1421.91 188.541 1493.76 180.994C1516.36 178.575 1535.06 177.801 1552.64 178.562C1575.1 179.533 1594.9 183.013 1613.17 189.2C1648.93 201.362 1678.61 222.184 1707.31 242.319C1715.19 247.85 1722.64 253.074 1730.18 258.101C1804.5 307.637 1879.74 361.089 1960.22 421.513L1960.02 421.637Z" fill="#FFE492"/>
<path d="M1957.11 419.897C1877.4 358.817 1803.48 304.745 1731.14 254.588C1723.65 249.398 1716.25 243.962 1708.42 238.204C1680.51 217.695 1651.66 196.487 1616.24 184.599C1573.65 170.368 1527.66 175.011 1496.78 179.742C1412.95 192.424 1337.83 221.908 1275.4 249.08C1252.97 258.885 1230.59 269.272 1208.94 279.317C1165.52 299.467 1124.51 318.499 1081.46 334.083C1075.13 336.376 1068.83 338.573 1062.73 340.615C1027.41 352.421 994.928 360.616 963.425 365.666C927.711 371.39 893.529 372.83 861.819 369.943C829.244 366.976 798.73 359.602 771.129 348.025C742.179 335.884 717.164 319.395 696.774 299.015C695.823 298.058 694.864 297.079 693.927 296.106C678.714 280.279 666.199 263.105 654.094 246.496C650.129 241.053 646.026 235.426 641.904 229.95C623.973 206.07 606.944 187.049 588.315 170.084C585.888 167.874 583.385 165.661 580.87 163.501C535.042 124.143 474.629 92.1976 406.165 71.1185C324.45 46.0564 240.471 37.6592 169.698 47.476C93.5179 58.183 21.0609 100.804 31.6737 153.599L31.4017 153.623C28.7691 140.525 31.0472 127.632 38.1701 115.303C44.6993 104.008 55.15 93.3766 69.2364 83.7079C82.3719 74.6906 98.0851 66.8801 115.942 60.4892C132.944 54.4036 151.515 49.8414 169.643 47.2928C206.915 42.1234 247.539 41.9346 290.389 46.7301C328.965 51.0462 367.957 59.1955 406.281 70.9501C474.786 92.0403 535.231 124.004 581.082 163.386C583.596 165.548 586.103 167.763 588.532 169.973C607.172 186.945 624.207 205.978 642.146 229.866C646.268 235.343 650.371 240.971 654.336 246.415C666.438 263.018 678.95 280.187 694.152 296.006C695.089 296.979 696.045 297.957 696.996 298.913C736.634 338.529 795.18 363.689 861.852 369.76C921.649 375.205 987.316 365.616 1062.61 340.448C1068.7 338.408 1075 336.213 1081.33 333.92C1124.36 318.34 1165.37 299.311 1208.78 279.163C1230.43 269.119 1252.81 258.73 1275.25 248.922C1317.23 230.653 1352.15 217.155 1385.15 206.444C1423.99 193.836 1460.48 185.043 1496.72 179.561C1518.8 176.177 1538.06 174.645 1555.58 174.878C1578.13 175.178 1598.01 178.302 1616.36 184.432C1651.82 196.335 1680.7 217.556 1708.62 238.078C1716.45 243.834 1723.85 249.27 1731.33 254.456C1803.68 304.616 1877.6 358.692 1957.32 419.773L1957.11 419.897Z" fill="#FFE492"/>
<path d="M1954.2 418.15C1875.25 356.41 1802.66 301.714 1732.28 250.935C1724.9 245.61 1717.6 239.985 1709.86 234.029C1682.69 213.107 1654.6 191.473 1619.42 179.826C1576.37 165.628 1530.51 172.156 1499.75 178.302C1423.8 193.351 1356.06 222.006 1281.69 255.141C1268.27 261.14 1254.71 267.331 1241.58 273.32C1191.12 296.352 1138.94 320.167 1085.6 337.394C1079.12 339.49 1072.63 341.49 1066.33 343.341C1030.77 353.765 996.384 360.92 964.131 364.609C927.593 368.788 892.858 368.623 860.882 364.122C828.763 359.601 798.62 350.741 771.289 337.789C743.63 324.681 719.266 307.574 698.876 286.943C697.933 285.984 696.982 285.003 696.051 284.029C681.297 268.573 668.702 251.958 656.523 235.891C652.135 230.102 647.598 224.116 643.039 218.291C624.407 194.436 607.023 175.578 588.331 158.943C585.877 156.759 583.338 154.564 580.788 152.42C534.388 113.432 473.53 81.9572 404.791 61.3926C322.54 36.8672 238.333 29.1067 167.676 39.5417C93.9134 50.5541 20.1181 91.6796 28.6398 146.209L28.3677 146.227C26.3204 133.129 28.9915 120.251 36.304 107.95C43.0284 96.6417 53.5423 86.0013 67.5517 76.3214C93.3995 58.4646 129.871 44.9924 167.615 39.3585C204.843 33.8615 245.511 33.3432 288.489 37.8186C327.16 41.846 366.324 49.7194 404.901 61.2223C473.678 81.7981 534.572 113.294 581.002 152.3C583.555 154.445 586.094 156.64 588.551 158.826C607.251 175.471 624.643 194.336 643.281 218.201C647.839 224.027 652.379 230.013 656.768 235.802C668.944 251.866 681.536 268.477 696.281 283.926C697.21 284.899 698.161 285.878 699.104 286.837C739.898 328.114 795.859 354.776 860.934 363.939C921.193 372.423 990.256 365.436 1066.21 343.171C1072.52 341.32 1079 339.321 1085.47 337.228C1138.79 320.006 1190.97 296.195 1241.42 273.167C1254.54 267.177 1268.11 260.986 1281.53 254.988C1314.08 240.483 1351.96 223.846 1389.56 209.955C1428.89 195.426 1464.9 185.015 1499.67 178.126C1521.55 173.753 1540.8 171.484 1558.51 171.191C1580.84 170.821 1601.37 173.672 1619.53 179.661C1635.29 184.878 1651.15 192.665 1668.02 203.466C1682.92 213.004 1696.72 223.631 1710.06 233.907C1717.79 239.861 1725.1 245.486 1732.48 250.809C1802.86 301.59 1875.45 356.288 1954.4 418.03L1954.2 418.15Z" fill="#FFE492"/>
<path d="M1951.28 416.408C1873.11 354.001 1801.85 298.682 1733.42 247.288C1726.18 241.847 1719 236.052 1711.4 229.918C1684.94 208.561 1657.58 186.477 1622.6 175.059C1589.91 164.423 1550.7 165.015 1502.72 176.869C1435.63 193.351 1375.67 220.919 1312.18 250.109C1304.27 253.744 1296.1 257.501 1287.96 261.212C1284.78 262.668 1281.59 264.129 1278.41 265.587C1217.91 293.292 1155.36 321.941 1089.74 340.712C1083.11 342.611 1076.44 344.416 1069.92 346.074C1033.58 355.316 998.23 361.198 964.848 363.555C927.466 366.195 892.173 364.429 859.956 358.307C828.337 352.297 798.565 341.951 771.467 327.555C745.201 313.602 721.491 295.878 700.994 274.873C700.06 273.912 699.117 272.929 698.191 271.954C683.997 256.983 671.444 241.038 659.301 225.618C654.385 219.374 649.298 212.916 644.19 206.631C624.838 182.792 607.102 164.097 588.366 147.798C585.877 145.633 583.307 143.46 580.724 141.337C533.736 102.727 472.428 71.7198 403.419 51.6698C320.635 27.683 236.194 20.5573 165.655 31.6104C93.2479 43.0504 19.5571 84.5128 25.6109 138.824L25.3361 138.838C23.877 125.738 26.9382 112.875 34.4403 100.606C41.3626 89.2842 51.937 78.6308 65.8721 68.9436C91.6101 51.0497 127.955 37.3776 165.592 31.4309C202.778 25.6045 243.487 24.7568 286.593 28.9138C325.356 32.6488 364.7 40.2483 403.529 51.4995C472.576 71.5625 533.923 102.586 580.93 141.217C583.513 143.34 586.088 145.516 588.578 147.682C607.322 163.989 625.069 182.69 644.426 206.538C649.537 212.824 654.621 219.283 659.54 225.528C671.678 240.943 684.231 256.885 698.419 271.85C699.345 272.826 700.285 273.807 701.219 274.767C742.898 317.477 797.812 346.3 860.027 358.123C921.443 369.795 992.028 365.68 1069.82 345.897C1076.33 344.238 1083 342.436 1089.63 340.539C1155.23 321.775 1217.77 293.131 1278.25 265.43C1281.44 263.97 1284.62 262.511 1287.81 261.054C1295.94 257.344 1304.11 253.586 1312.02 249.953C1375.52 220.758 1435.51 193.183 1502.62 176.694C1524.3 171.337 1543.54 168.333 1561.45 167.506C1583.87 166.471 1604.48 168.957 1622.72 174.891C1638.39 180.005 1654.05 187.826 1670.61 198.804C1685.21 208.489 1698.63 219.322 1711.61 229.798C1719.21 235.929 1726.39 241.723 1733.63 247.162C1802.06 298.558 1873.32 353.879 1951.49 416.288L1951.28 416.408Z" fill="#FFE492"/>
<path d="M1948.37 414.664C1877.02 356.511 1805.09 298.968 1734.57 243.637C1727.39 238.037 1720.28 232.02 1712.74 225.651C1688.24 204.933 1660.48 181.451 1625.78 170.289C1592.71 159.671 1553.43 161.353 1505.69 175.431C1448.92 192.114 1398.68 216.645 1345.49 242.616C1328.84 250.748 1311.61 259.16 1294.24 267.274C1263.92 281.469 1231.11 296.488 1196.73 310.168C1159.9 324.819 1126.26 335.892 1093.87 344.025C1087.07 345.733 1080.22 347.342 1073.51 348.802C1036.4 356.877 1000.09 361.473 965.576 362.461C927.37 363.553 891.52 360.199 859.016 352.485C798.994 338.063 746.534 307.889 703.096 262.799C702.17 261.837 701.236 260.852 700.315 259.877C686.842 245.566 674.509 230.469 662.582 215.868C656.968 208.995 651.164 201.888 645.325 194.972C625.237 171.138 607.144 152.608 588.386 136.656C585.861 134.509 583.258 132.356 580.645 130.255C533.085 92.0172 471.326 61.4821 402.048 41.9447C318.729 18.4946 234.059 12.0075 163.636 23.677C90.7887 35.8166 18.9446 76.7293 22.5802 131.436L22.3054 131.444C21.4343 118.34 24.8913 105.491 32.5775 93.2535C39.7004 81.9172 50.3352 71.2527 64.1907 61.558C77.2438 52.4241 92.7151 44.4378 110.173 37.8192C127.123 31.3949 145.087 26.5754 163.567 23.4956C200.712 17.3416 241.465 16.1644 284.697 20.0012C323.554 23.4493 363.071 30.7731 402.153 41.7726C471.472 61.3211 533.266 91.8746 580.854 130.131C583.467 132.234 586.075 134.388 588.6 136.535C607.367 152.497 625.468 171.035 645.564 194.875C651.404 201.794 657.207 208.901 662.822 215.775C674.748 230.374 687.078 245.47 700.546 259.775C701.464 260.752 702.401 261.735 703.325 262.697C746.73 307.752 799.142 337.902 859.107 352.309C920.874 366.968 994.985 365.694 1073.43 348.624C1080.13 347.164 1086.98 345.557 1093.78 343.851C1166.18 325.67 1232.43 295.977 1294.08 267.121C1311.46 259.007 1328.68 250.597 1345.33 242.464C1398.53 216.488 1448.78 191.951 1505.58 175.26C1553.39 161.161 1592.75 159.478 1625.9 170.12C1641.44 175.12 1656.86 182.956 1673.06 194.074C1687.35 203.878 1700.37 214.888 1712.96 225.534C1720.49 231.903 1727.6 237.918 1734.78 243.515C1805.3 298.848 1877.23 356.39 1948.58 414.545L1948.37 414.664Z" fill="#FFE492"/>
<path d="M1945.46 412.921C1875.2 354.445 1804.63 296.263 1735.72 239.988C1728.76 234.326 1721.86 228.204 1714.55 221.722C1690.66 200.521 1663.57 176.49 1628.97 165.516C1595.5 154.916 1556.15 157.689 1508.66 173.989C1458.9 191.043 1413.18 215.122 1368.97 238.411C1346.8 250.088 1323.88 262.163 1300.52 273.336C1263.65 290.99 1232.63 304.456 1202.9 315.719C1166.23 329.605 1131.92 339.948 1098.01 347.336C1091.05 348.854 1084.02 350.264 1077.11 351.529C1041.1 358.112 1005.74 361.443 971.907 361.445C970.027 361.445 968.159 361.434 966.29 361.414C927.18 360.984 890.775 356.021 858.084 346.663C842.305 342.121 826.853 336.355 812.159 329.526C798.348 323.107 784.775 315.547 771.818 307.055C748.507 291.778 726.715 273.351 705.204 250.725C704.28 249.751 703.36 248.776 702.445 247.797C689.963 234.447 678.155 220.491 666.737 206.995C660.144 199.205 653.329 191.148 646.465 183.306C625.33 159.146 607.426 141.318 588.407 125.507C585.849 123.38 583.214 121.248 580.567 119.168C532.43 81.3089 470.224 51.2439 400.677 32.2192C316.824 9.30777 231.924 3.45729 161.616 15.7431C90.1343 28.2696 18.3836 69.4931 19.5515 124.046L19.2767 124.048C18.7326 98.6382 33.6845 74.4756 62.514 54.1738C75.5451 44.9974 90.934 36.9537 108.257 30.261C125.114 23.7498 143.042 18.8044 161.547 15.5617C198.648 9.07827 239.445 7.57354 282.803 11.0901C321.754 14.2495 361.446 21.2993 400.778 32.0452C470.369 51.0829 532.612 81.1663 580.779 119.047C583.425 121.13 586.066 123.264 588.625 125.39C607.652 141.211 625.563 159.044 646.704 183.214C653.568 191.058 660.386 199.114 666.976 206.904C678.394 220.399 690.2 234.352 702.678 247.699C703.593 248.678 704.511 249.653 705.435 250.625C751.145 298.706 801.112 330.064 858.191 346.492C937.249 369.124 1020.84 361.627 1077.04 351.351C1083.94 350.087 1090.97 348.678 1097.93 347.161C1175.91 330.166 1247.08 298.7 1300.36 273.187C1323.72 262.017 1346.64 249.942 1368.8 238.267C1413.02 214.974 1458.75 190.887 1508.53 173.826C1529.78 166.532 1549.02 162.053 1567.33 160.136C1589.91 157.77 1610.69 159.525 1629.08 165.351C1644.58 170.265 1659.86 178.165 1675.79 189.499C1689.83 199.486 1702.51 210.734 1714.77 221.613C1722.08 228.093 1728.97 234.214 1735.93 239.872C1804.84 296.146 1875.41 354.329 1945.67 412.804L1945.46 412.921Z" fill="#FFE492"/>
<path d="M1942.54 411.176L1736.86 236.339C1730.15 230.63 1723.47 224.416 1716.41 217.84C1693.1 196.137 1666.69 171.54 1632.15 160.748C1598.75 150.313 1558.2 154.284 1511.63 172.554C1466.85 190.117 1426.01 213.472 1386.52 236.06C1360.77 250.783 1334.15 266.006 1306.8 279.405C1224.6 319.675 1152.75 343.46 1080.71 354.26C1050.82 358.739 1021.34 360.993 992.742 360.993C984.075 360.993 975.496 360.786 967.007 360.371C926.974 358.417 890.013 351.846 857.155 340.845C826.702 330.647 798.842 316.251 771.994 296.832C750.554 281.326 730.002 262.84 707.317 238.655C695.344 225.891 683.75 212.63 672.538 199.806C647.163 170.785 620.925 140.775 588.44 114.364C538.613 73.8547 473.211 42.087 399.303 22.4941C314.919 0.123072 229.789 -5.09257 159.596 7.80958C91.6375 20.3009 17.8779 59.6903 16.5204 116.659L16.2456 116.655C16.8529 91.1915 32.272 67.0325 60.8349 46.79C86.6608 28.4871 121.709 14.5799 159.524 7.63005C196.584 0.818987 237.425 -1.01519 280.907 2.1812C319.951 5.04999 359.819 11.8277 399.404 22.322C435.975 32.0166 470.707 44.7781 502.639 60.2529C534.838 75.8573 563.777 94.0214 588.649 114.242C621.147 140.662 647.394 170.679 672.774 199.708C683.986 212.53 695.58 225.79 707.55 238.551C740.648 273.839 787.578 317.335 857.279 340.674C937.213 367.439 1022.87 362.735 1080.65 354.075C1152.66 343.282 1224.47 319.506 1306.64 279.251C1333.98 265.858 1360.6 250.635 1386.34 235.915C1425.84 213.324 1466.69 189.963 1511.49 172.391C1558.14 154.09 1598.78 150.115 1632.27 160.577C1647.73 165.41 1662.87 173.378 1678.55 184.94C1692.35 195.118 1704.7 206.613 1716.63 217.729C1723.7 224.305 1730.37 230.515 1737.08 236.223L1942.76 411.06L1942.54 411.176Z" fill="#FFE492"/>
<path d="M1940.89 397.735C1888.51 349.054 1843.57 309.552 1799.47 273.422C1778.06 255.87 1756.19 238.595 1734.48 222.074C1727.91 217.077 1721.4 211.761 1714.51 206.133C1697.2 191.987 1679.3 177.36 1658.69 166.505C1647.63 160.665 1636.98 156.484 1626.14 153.723C1592.85 145.163 1553.8 150.823 1510.07 170.547C1487.43 180.739 1466.82 192.339 1449.64 202.341C1431.46 212.929 1413.52 224.606 1396.18 235.898C1371.24 252.13 1345.46 268.913 1317.75 283.327C1300.88 292.124 1283.79 299.985 1266.93 306.692C1233.21 320.111 1197.02 331.168 1159.36 339.556C1136.1 344.681 1112.72 348.554 1089.88 351.068C1070.19 353.226 1050.47 354.472 1031.26 354.77C1002.51 355.217 974.496 353.509 947.999 349.687C919.827 345.623 893.165 339.136 868.758 330.403C846.993 322.617 826.435 312.813 805.91 300.429C767.664 277.371 737.158 250.71 714.855 230.059C703.899 219.866 693.201 209.472 682.854 199.42C653.063 170.471 624.923 143.129 589.71 118.774C560.991 99.04 528.223 82.0105 492.309 68.1551C464.711 57.5073 434.695 48.7991 403.095 42.2712C395.568 40.7184 387.899 39.271 380.306 37.9736C347.615 32.397 310.814 28.7657 270.927 27.1795C230.712 25.5434 195.919 26.9593 164.567 31.5123C146.843 34.0665 129.67 38.0735 113.52 43.4206C56.5042 62.2991 19.8924 93.9909 15.5835 128.198L15.24 128.178C16.3887 119.059 19.7605 110.076 25.2593 101.478C30.4833 93.3098 37.6583 85.4327 46.5839 78.0645C63.4485 64.1462 86.5428 52.0936 113.369 43.2115C129.544 37.8551 146.744 33.8425 164.496 31.2847C195.881 26.7279 230.701 25.3102 270.948 26.9482C310.858 28.5343 347.679 32.1694 380.391 37.7496C387.992 39.0489 395.664 40.4963 403.197 42.051C434.821 48.5826 464.862 57.2981 492.483 67.9552C528.421 81.8198 561.216 98.8641 589.949 118.611C625.184 142.981 653.33 170.33 683.132 199.287C693.475 209.339 704.173 219.731 715.127 229.922C737.419 250.564 767.911 277.212 806.136 300.255C826.639 312.626 847.175 322.421 868.914 330.198C916.683 347.287 971.3 355.477 1031.25 354.538C1050.45 354.24 1070.15 352.995 1089.82 350.838C1112.64 348.325 1136 344.455 1159.25 339.334C1196.89 330.951 1233.06 319.902 1266.76 306.491C1283.6 299.789 1300.68 291.932 1317.53 283.142C1345.23 268.735 1371.01 251.956 1395.93 235.729C1413.29 224.436 1431.22 212.755 1449.42 202.163C1466.6 192.155 1487.22 180.552 1509.87 170.353C1529.35 161.57 1548.2 155.503 1565.92 152.318C1587.68 148.405 1607.98 148.805 1626.26 153.506C1637.14 156.277 1647.82 160.469 1658.91 166.321C1679.54 177.193 1697.45 191.83 1714.78 205.985C1721.67 211.611 1728.17 216.927 1734.73 221.92C1756.46 238.443 1778.32 255.72 1799.74 273.276C1843.84 309.409 1888.79 348.915 1941.17 397.6L1940.89 397.735Z" fill="#FFE492"/>
<path d="M1939.23 384.291C1890.67 334.787 1845.09 293.362 1799.9 257.65C1777.85 240.206 1755.04 223.437 1732.09 207.81C1726 203.665 1719.99 199.356 1713.63 194.795C1694.57 181.138 1674.86 167.016 1652.79 157.246C1641.64 152.291 1630.96 148.841 1620.13 146.698C1578.66 138.488 1536.54 154.042 1508.5 168.536C1488.64 178.775 1470.5 190.352 1452.12 202.302C1436.04 212.763 1420.9 224.016 1404.88 235.928C1381.1 253.611 1356.51 271.896 1328.69 287.248C1312.18 296.408 1294.94 304.328 1277.47 310.787C1244.92 322.821 1209.27 332.166 1168.5 339.358C1145.68 343.382 1122.31 346.249 1099.04 347.876C1079.4 349.233 1059.81 349.718 1040.78 349.312C1012.48 348.716 984.823 346.036 958.563 341.348C930.984 336.423 904.669 329.227 880.352 319.96C859.046 311.842 838.475 301.77 817.46 289.169C779.296 266.317 746.603 240.983 722.387 221.464C713.423 214.238 704.602 206.968 696.07 199.935C662.09 171.928 629.996 145.473 590.98 123.185C561.821 106.527 529.084 92.4425 493.684 81.3227C466.899 72.9089 438.509 66.6049 406.896 62.05C399.6 61.0006 392.177 60.0548 384.837 59.2386C352.598 55.6721 318.19 54.3228 276.56 52.9273C246.552 51.8704 207.269 51.1745 169.53 55.213C151.657 57.0898 134.38 60.3491 118.175 64.8966C61.1209 80.9119 22.4178 108.889 14.641 139.739L14.2343 139.692C16.2953 131.512 20.4722 123.488 26.6415 115.843C32.5223 108.558 40.2497 101.573 49.6067 95.0763C67.3891 82.7349 91.0441 72.2092 118.016 64.6393C134.251 60.0826 151.561 56.8177 169.464 54.9373C207.238 50.8932 246.552 51.591 276.579 52.6478C318.223 54.0433 352.642 55.3926 384.903 58.961C392.249 59.779 399.677 60.7248 406.981 61.7742C438.624 66.3347 467.042 72.6442 493.857 81.0673C529.292 92.1982 562.057 106.294 591.246 122.968C630.29 145.273 662.398 171.736 696.388 199.754C704.918 206.785 713.739 214.055 722.703 221.279C746.913 240.79 779.593 266.115 817.735 288.957C838.725 301.544 859.274 311.605 880.555 319.714C928.37 337.935 982.287 347.798 1040.8 349.031C1059.8 349.434 1079.38 348.951 1099 347.595C1122.25 345.97 1145.6 343.106 1168.39 339.085C1209.14 331.9 1244.75 322.562 1277.27 310.539C1294.73 304.087 1311.94 296.178 1328.43 287.028C1356.23 271.688 1380.81 253.411 1404.58 235.738C1420.61 223.82 1435.74 212.565 1451.84 202.099C1470.22 190.141 1488.37 178.56 1508.26 168.31C1526.43 158.913 1544.36 152.154 1561.54 148.216C1582.38 143.44 1602.13 142.839 1620.25 146.426C1631.12 148.578 1641.84 152.039 1653.02 157.009C1675.13 166.798 1694.86 180.933 1713.93 194.601C1720.29 199.16 1726.31 203.467 1732.39 207.611C1755.35 223.243 1778.16 240.017 1800.21 257.466C1845.42 293.188 1891.01 334.62 1939.57 384.136L1939.23 384.291Z" fill="#FFE492"/>
<path d="M1937.57 370.846C1892.12 319.847 1847.23 277.661 1800.32 241.878C1777.65 224.542 1753.89 208.282 1729.71 193.548C1724.55 190.397 1719.23 187.055 1714.08 183.823C1692.84 170.471 1670.87 156.666 1646.88 147.987C1635.63 143.886 1624.91 141.165 1614.13 139.672C1572.75 133.936 1533 151.108 1506.95 166.522C1489.28 176.927 1473.14 188.721 1457.53 200.127L1454.6 202.263C1440.43 212.611 1427.13 223.96 1413.05 235.978C1390.63 255.114 1367.44 274.899 1339.63 291.168C1323.45 300.703 1306.08 308.682 1288 314.883C1256.48 325.693 1221.41 333.408 1177.62 339.16C1154.98 342.134 1131.63 343.993 1108.2 344.681C1088.61 345.235 1069.13 344.957 1050.3 343.852C993.276 340.522 939.998 328.969 891.94 309.515C871.165 301.105 850.58 290.768 829.011 277.909C792.509 256.193 760.044 233.872 729.923 212.87C725.883 210.055 721.888 207.259 717.922 204.484C676.782 175.706 637.925 148.522 592.258 127.601C562.445 113.941 529.741 102.803 495.058 94.4928C469.595 88.3925 441.999 84.2503 410.699 81.8294C403.645 81.2871 396.47 80.841 389.372 80.5042C371.515 79.6713 352.576 79.5362 332.524 79.3937C316.418 79.2789 299.765 79.1605 282.191 78.6774C248.25 77.665 209.784 76.5193 174.488 78.918C156.277 80.1562 138.896 82.666 122.825 86.3787C65.793 99.5567 24.9959 123.823 13.6933 151.291L13.2289 151.204C16.2077 143.962 21.1871 136.897 28.0269 130.206C34.5672 123.808 42.8443 117.712 52.6272 112.087C71.3384 101.33 95.5595 92.3347 122.666 86.0715C138.772 82.3495 156.189 79.8342 174.436 78.5941C209.767 76.1936 248.253 77.3411 282.208 78.3535C299.77 78.8347 316.423 78.955 332.524 79.0698C352.584 79.2123 371.529 79.3474 389.402 80.1822C396.506 80.5209 403.689 80.9669 410.749 81.5092C442.087 83.9319 469.716 88.0797 495.215 94.1893C529.939 102.509 562.678 113.66 592.525 127.334C638.232 148.274 677.109 175.47 718.266 204.262C722.231 207.036 726.229 209.831 730.266 212.648C760.382 233.646 792.836 255.961 829.327 277.67C850.874 290.515 871.437 300.842 892.188 309.241C940.182 328.671 993.392 340.208 1050.34 343.534C1069.15 344.637 1088.61 344.914 1108.17 344.361C1131.58 343.672 1154.91 341.816 1177.53 338.845C1221.27 333.099 1256.31 325.394 1287.78 314.598C1305.82 308.41 1323.16 300.446 1339.31 290.927C1367.09 274.679 1390.26 254.905 1412.66 235.78C1426.75 223.757 1440.06 212.402 1454.24 202.047L1457.17 199.911C1472.79 188.498 1488.94 176.698 1506.62 166.281C1532.76 150.817 1572.65 133.595 1614.22 139.357C1625.05 140.858 1635.81 143.588 1647.11 147.706C1671.15 156.403 1693.14 170.223 1714.41 183.59C1719.55 186.822 1724.87 190.164 1730.03 193.312C1754.22 208.054 1777.99 224.323 1800.68 241.669C1847.6 277.466 1892.51 319.667 1937.97 370.683L1937.57 370.846Z" fill="#FFE492"/>
<path d="M1935.91 357.399C1894.18 305.629 1848.71 261.456 1800.76 226.108C1777.44 208.881 1752.74 193.128 1727.34 179.288C1723.67 177.289 1719.91 175.214 1716.28 173.208C1692.27 159.954 1667.44 146.247 1640.99 138.732C1629.64 135.473 1618.9 133.483 1608.14 132.647C1566.88 129.441 1529.49 148.203 1505.39 164.507C1490.43 174.579 1476.92 185.781 1463.86 196.613C1461.6 198.488 1459.35 200.36 1457.08 202.223C1444.66 212.462 1433.04 223.9 1420.75 236.008C1399.84 256.593 1378.22 277.878 1350.58 295.091C1334.34 305.198 1317.32 313.012 1298.53 318.983C1259.24 331.471 1219.98 336.092 1186.75 338.968C1164.28 340.912 1140.93 341.763 1117.35 341.493C1097.83 341.243 1078.47 340.201 1059.81 338.398C1004.5 333.066 951.924 319.836 903.534 299.076C883.399 290.44 862.803 279.834 840.563 266.655C818.098 253.373 797.164 240.593 776.916 228.233C763.157 219.832 750.159 211.898 737.466 204.285C689.485 175.508 645.536 150.208 593.547 132.021C563.093 121.37 530.422 113.174 496.44 107.664C472.084 103.715 446.05 101.792 414.511 101.608C407.706 101.575 400.776 101.629 393.914 101.769C383.491 101.997 372.708 102.473 361.295 102.978C339.394 103.946 314.565 105.044 287.821 104.429C277.637 104.194 267.247 103.863 257.198 103.541C231.35 102.713 204.623 101.858 179.442 102.623C160.951 103.185 143.463 104.947 127.469 107.86C70.533 118.234 27.6447 138.792 12.7395 162.851L12.2311 162.708C16.1333 156.408 21.9151 150.304 29.4144 144.564C36.617 139.053 45.4436 133.846 55.6443 129.091C75.3008 119.93 100.085 112.465 127.321 107.503C143.353 104.583 160.88 102.815 179.412 102.252C204.62 101.486 231.358 102.343 257.22 103.17C267.266 103.492 277.657 103.824 287.838 104.059C314.557 104.673 339.366 103.578 361.257 102.61C372.675 102.104 383.461 101.629 393.895 101.401C400.765 101.26 407.701 101.207 414.513 101.24C446.096 101.421 472.169 103.35 496.566 107.305C530.59 112.823 563.305 121.027 593.797 131.694C617.281 139.908 641.079 150.315 666.551 163.508C689.354 175.318 711.536 188.24 737.829 204.009C750.522 211.624 763.52 219.558 777.282 227.959C797.526 240.317 818.461 253.097 840.92 266.377C863.138 279.544 883.713 290.138 903.823 298.765C952.146 319.498 1004.65 332.709 1059.89 338.034C1078.52 339.835 1097.85 340.875 1117.35 341.125C1140.91 341.395 1164.23 340.545 1186.67 338.602C1219.86 335.731 1259.07 331.115 1298.29 318.65C1317.03 312.696 1334.01 304.902 1350.2 294.82C1377.8 277.637 1399.4 256.369 1420.29 235.801C1432.59 223.686 1444.21 212.242 1456.65 201.992C1458.91 200.128 1461.17 198.257 1463.43 196.384C1476.5 185.544 1490.01 174.335 1505 164.25C1520.67 153.643 1536.76 145.482 1552.8 139.996C1571.8 133.498 1590.44 130.903 1608.19 132.284C1619 133.124 1629.8 135.123 1641.2 138.396C1667.71 145.93 1692.57 159.654 1716.61 172.925C1720.25 174.931 1724 177.006 1727.67 179.003C1753.09 192.854 1777.81 208.622 1801.15 225.862C1826.61 244.631 1851.55 266.016 1875.26 289.422C1896.22 310.108 1916.79 332.922 1936.38 357.225L1935.91 357.399Z" fill="#FFE492"/>
<path d="M1934.25 343.95C1895.63 290.696 1850.86 245.743 1801.19 210.338C1777.24 193.22 1751.59 177.976 1724.97 165.028C1723.7 164.412 1722.43 163.795 1721.16 163.177C1693.48 149.696 1664.85 135.755 1635.11 129.479C1623.59 127.047 1612.81 125.787 1602.16 125.624C1561.06 124.998 1526.01 145.328 1503.85 162.491C1490.81 172.531 1479.23 183.536 1468.03 194.179C1465.27 196.811 1462.4 199.531 1459.58 202.182C1448.81 212.276 1438.81 223.753 1428.22 235.906C1408.95 258.01 1389.03 280.866 1361.53 299.012C1345.62 309.51 1328.46 317.383 1309.07 323.084C1270.88 334.313 1232.1 337.261 1195.88 338.775C1173.54 339.708 1150.2 339.549 1126.51 338.303C1107.05 337.248 1087.81 335.443 1069.33 332.941C1015.9 325.723 964.02 310.816 915.13 288.634C895.551 279.752 875.529 269.191 852.124 255.399C807.642 229.257 774.611 210.845 745.026 195.7C686.182 165.578 641.271 147.856 594.86 136.444C563.788 128.804 531.15 123.553 497.847 120.836C474.742 118.952 450.221 119.12 418.344 121.387C411.812 121.857 405.129 122.411 398.479 123.034C392.197 123.632 385.816 124.317 379.058 125.041C354.109 127.715 325.829 130.747 293.463 130.181C276.403 129.883 258.978 129.066 242.127 128.278C222.976 127.382 203.174 126.455 184.4 126.329C165.576 126.203 147.98 127.217 132.116 129.346C75.3695 136.955 30.3845 153.806 11.7831 174.423L11.2555 174.206C16.0865 168.85 22.6708 163.707 30.8241 158.918C38.6945 154.295 48.0652 149.981 58.678 146.092C79.2937 138.537 104.647 132.603 131.995 128.937C147.903 126.805 165.537 125.787 184.405 125.913C203.196 126.038 223.009 126.966 242.169 127.863C259.014 128.652 276.431 129.468 293.477 129.766C325.785 130.33 354.035 127.303 378.957 124.632C385.717 123.906 392.103 123.223 398.388 122.624C405.046 122 411.735 121.446 418.273 120.975C450.199 118.705 474.761 118.535 497.916 120.425C531.266 123.146 563.95 128.404 595.066 136.055C641.541 147.482 686.498 165.222 745.394 195.371C774.99 210.521 808.032 228.939 852.525 255.088C875.914 268.869 895.914 279.419 915.471 288.292C964.295 310.442 1016.1 325.329 1069.45 332.536C1087.9 335.034 1107.12 336.835 1126.55 337.89C1150.22 339.134 1173.53 339.293 1195.83 338.362C1232 336.85 1270.72 333.909 1308.82 322.706C1328.14 317.028 1345.24 309.18 1361.09 298.719C1388.53 280.613 1408.44 257.781 1427.68 235.7C1438.28 223.54 1448.29 212.054 1459.07 201.945C1461.9 199.296 1464.76 196.575 1467.53 193.944C1478.73 183.292 1490.32 172.28 1503.38 162.222C1517.84 151.021 1533.01 142.161 1548.45 135.887C1566.53 128.537 1584.61 124.948 1602.17 125.213C1612.88 125.376 1623.72 126.644 1635.3 129.087C1665.13 135.385 1693.8 149.344 1721.52 162.846C1722.79 163.464 1724.06 164.082 1725.33 164.697C1751.98 177.66 1777.66 192.922 1801.64 210.059C1851.35 245.495 1896.16 290.483 1934.8 343.774L1934.25 343.95Z" fill="#FFE492"/>
<path d="M1209.55 338.583C1208.01 338.583 1206.49 338.581 1204.99 338.575C1182.78 338.512 1159.45 337.346 1135.66 335.107C1116.27 333.247 1097.15 330.679 1078.84 327.479C1052.68 322.915 1026.43 316.356 1000.8 307.985C976.054 299.9 951.132 289.876 926.724 278.188C902.809 266.737 880.47 253.977 863.68 244.14C824.394 221.186 787.015 202 752.583 187.114C696.814 163.005 647.116 148.308 596.176 140.862C565.445 136.37 532.475 134.001 500.73 134.001C500.238 134.001 499.749 134.001 499.257 134.003C471.985 134.065 446.094 137.478 422.18 141.158C415.956 142.122 409.517 143.175 403.043 144.291C399.495 144.91 395.942 145.546 392.183 146.22C365.667 150.978 335.612 156.37 299.099 155.928C276.862 155.657 254.15 154.106 232.185 152.605C218.003 151.635 203.339 150.634 189.352 150.029C170.124 149.198 152.429 149.464 136.755 150.825C80.3105 155.718 33.2287 168.867 10.8076 185.998L10.291 185.693C21.7915 176.907 39.0903 169.3 61.7064 163.081C83.3059 157.144 109.228 152.746 136.667 150.368C152.383 149.005 170.124 148.735 189.396 149.57C203.397 150.175 218.069 151.178 232.257 152.148C254.208 153.649 276.906 155.2 299.113 155.469C335.533 155.911 365.535 150.527 392.007 145.778C395.769 145.102 399.322 144.465 402.873 143.847C409.353 142.731 415.797 141.676 422.026 140.712C445.981 137.027 471.917 133.608 499.254 133.544C531.505 133.468 565.066 135.844 596.322 140.414C622.612 144.258 648.1 149.916 674.237 157.712C699.409 165.221 725.157 174.712 752.951 186.729C787.411 201.626 824.817 220.827 864.127 243.796C880.904 253.627 903.226 266.378 927.117 277.816C976.645 301.533 1027.75 318.092 1079.01 327.037C1097.3 330.233 1116.39 332.797 1135.75 334.655C1159.51 336.891 1182.81 338.057 1204.99 338.118C1239.71 338.214 1280.03 337.426 1319.34 326.756C1339.25 321.355 1356.46 313.457 1371.98 302.613C1399.23 283.568 1417.3 259.124 1434.77 235.484C1443.76 223.324 1452.25 211.837 1461.48 201.895C1464.44 198.71 1467.42 195.428 1470.31 192.254C1480.06 181.53 1490.14 170.444 1501.75 160.196C1515.02 148.406 1529.27 138.842 1544.08 131.772C1561.26 123.575 1578.77 118.989 1596.13 118.141C1606.84 117.617 1617.72 118.152 1629.37 119.777C1660.54 124.119 1691.43 136.734 1722.97 150.388C1750.46 162.293 1777.83 177.46 1802.11 194.253C1829.07 212.852 1854.41 234.671 1877.42 259.104C1897.91 280.872 1916.68 304.833 1933.21 330.322L1932.58 330.507C1897.09 275.767 1853.03 230.033 1801.62 194.577C1777.37 177.808 1750.05 162.663 1722.59 150.778C1691.11 137.149 1660.28 124.558 1629.23 120.231C1617.64 118.615 1606.83 118.084 1596.18 118.604C1564.28 120.164 1530.94 135.033 1502.3 160.477C1490.71 170.706 1480.63 181.784 1470.89 192.496C1468.01 195.672 1465.02 198.956 1462.06 202.141C1452.85 212.065 1444.37 223.542 1435.39 235.691C1426.81 247.29 1417.95 259.285 1407.78 270.816C1396.24 283.889 1384.7 294.394 1372.48 302.935C1356.89 313.828 1339.6 321.76 1319.6 327.187C1301.97 331.973 1283.02 335.136 1261.66 336.861C1243.58 338.314 1225.41 338.583 1209.55 338.583Z" fill="#FFE492"/>
<path d="M1253.62 339.511C1239.61 339.511 1226.15 338.948 1214.1 338.378C1191.96 337.33 1168.64 335.156 1144.8 331.913C1125.49 329.25 1106.49 325.922 1088.34 322.018C1038.63 311.352 989.555 293.597 938.307 267.743C915.958 256.469 894.889 244.339 875.229 232.882C836.416 210.33 797.697 192.044 760.14 178.529C704.905 158.653 653.225 148.086 597.501 145.277C565.751 143.676 532.269 144.329 500.672 147.165C474.225 149.537 449.292 155.264 426.017 160.924C420.194 162.347 414 163.902 407.61 165.543C406.014 165.956 404.404 166.376 402.771 166.8C375.964 173.781 345.632 181.681 306.703 181.681C306.046 181.681 305.392 181.679 304.73 181.673C278.393 181.494 251.504 178.962 225.497 176.511C215.186 175.54 204.524 174.537 194.293 173.724C174.309 172.14 157.002 171.672 141.38 172.297C84.559 174.574 36.5979 183.783 9.79926 197.57L9.34033 197.165C22.5885 190.35 41.745 184.433 64.7321 180.054C87.3428 175.747 113.831 172.889 141.333 171.788C157 171.161 174.351 171.629 194.378 173.217C204.62 174.029 215.285 175.034 225.598 176.004C251.581 178.451 278.445 180.981 304.733 181.161C344.472 181.435 375.299 173.404 402.494 166.321C404.123 165.897 405.736 165.477 407.333 165.062C413.728 163.419 419.924 161.864 425.753 160.441C449.067 154.77 474.047 149.036 500.565 146.656C532.211 143.816 565.748 143.161 597.551 144.764C625.165 146.156 651.494 149.443 678.04 154.81C705.38 160.339 732.349 167.948 760.489 178.075C798.093 191.609 836.862 209.917 875.716 232.492C895.367 243.945 916.422 256.068 938.753 267.33C989.932 293.149 1038.93 310.878 1088.56 321.528C1106.69 325.424 1125.66 328.748 1144.94 331.408C1168.75 334.647 1192.04 336.819 1214.15 337.863C1251.35 339.622 1290.93 340.525 1329.86 330.795C1350.35 325.674 1367.69 317.726 1382.86 306.497C1409.89 286.495 1426.72 259.212 1441.57 235.14C1449.04 223.028 1456.09 211.588 1463.88 201.836C1466.69 198.318 1469.52 194.681 1472.25 191.164C1480.8 180.161 1489.64 168.784 1500.11 158.159C1512.22 145.78 1525.55 135.514 1539.71 127.644C1555.98 118.606 1572.92 113.024 1590.07 111.057C1600.79 109.826 1611.71 109.63 1623.44 110.452C1656.21 112.752 1689.5 124.12 1720.6 136.063C1749.31 147.091 1777.66 161.742 1802.58 178.433C1830.29 196.945 1855.83 218.982 1878.48 243.93C1898.74 266.24 1916.62 290.774 1931.62 316.856L1930.92 317.04C1899.02 261.6 1854.46 213.795 1802.04 178.792C1777.18 162.132 1748.88 147.509 1720.23 136.504C1689.2 124.588 1656 113.248 1623.36 110.957C1611.7 110.139 1600.86 110.335 1590.21 111.556C1558.54 115.19 1526.77 131.838 1500.75 158.436C1490.3 169.04 1481.47 180.406 1472.92 191.398C1470.19 194.916 1467.36 198.553 1464.55 202.075C1456.78 211.805 1449.73 223.234 1442.27 235.333C1427.4 259.442 1410.54 286.769 1383.42 306.838C1368.16 318.128 1350.73 326.12 1330.13 331.271C1312.25 335.739 1292.96 338.326 1271.16 339.176C1265.27 339.416 1259.4 339.511 1253.62 339.511Z" fill="#FFE492"/>
<path d="M1281.28 341.515C1281.08 341.515 1280.88 341.515 1280.68 341.515C1260.88 341.481 1241.43 339.849 1223.21 338.18C1201.11 336.155 1177.8 332.969 1153.94 328.716C1134.72 325.253 1115.85 321.161 1097.85 316.556C1050.12 304.365 1003.11 285.536 949.898 257.298C930.734 247.132 911.874 236.184 893.633 225.599C891.352 224.274 889.068 222.95 886.785 221.627C847.771 199.08 807.708 181.692 767.71 169.946C712.94 153.864 657.702 147.238 598.839 149.691C566.564 151.036 533.112 154.714 502.101 160.326C477.632 164.755 455.83 171.86 429.866 180.688C424.604 182.486 418.984 184.425 412.186 186.794L411.806 186.928C398.69 191.529 383.823 196.743 367.148 200.707C347.997 205.26 329.418 207.452 310.366 207.426C280.657 207.376 250.338 203.652 221.02 200.048C213.836 199.165 206.406 198.253 199.233 197.427C178.665 195.064 161.253 193.87 146.004 193.779C89.8569 193.446 39.8375 199.051 8.77388 209.152L8.41663 208.653C23.6324 203.704 44.1573 199.687 67.771 197.037C91.4287 194.381 118.486 193.063 146.013 193.226C161.305 193.317 178.761 194.512 199.374 196.881C206.551 197.707 213.982 198.619 221.168 199.502C250.451 203.1 280.731 206.82 310.369 206.87C310.501 206.87 310.635 206.87 310.767 206.87C353.161 206.87 385.458 195.543 411.427 186.435L411.809 186.302C418.61 183.931 424.23 181.991 429.495 180.194C455.503 171.351 477.344 164.233 501.889 159.791C532.953 154.168 566.459 150.485 598.79 149.137C627.594 147.938 654.764 148.852 681.857 151.936C711.052 155.258 739.244 160.983 768.04 169.439C808.114 181.207 848.246 198.623 887.323 221.207C889.607 222.53 891.89 223.855 894.171 225.181C912.404 235.762 931.259 246.706 950.407 256.865C1003.55 285.068 1050.5 303.871 1098.14 316.042C1116.11 320.641 1134.96 324.726 1154.15 328.185C1177.98 332.433 1201.25 335.612 1223.32 337.634C1262.86 341.258 1301.56 343.771 1340.39 334.857C1361.47 330.019 1378.92 322.022 1393.75 310.406C1420.55 289.423 1435.18 260.348 1448.1 234.694C1454.14 222.684 1459.85 211.338 1466.29 201.805C1468.77 198.136 1471.26 194.342 1473.66 190.672C1481.18 179.197 1488.96 167.333 1498.49 156.146C1509.46 143.174 1521.87 132.202 1535.35 123.537C1550.72 113.661 1567.09 107.086 1584.03 103.999C1594.53 102.085 1605.24 101.153 1616.76 101.153C1617.01 101.153 1617.26 101.153 1617.51 101.154C1653.31 101.28 1690.14 112.234 1718.24 121.762C1748.17 131.913 1777.5 146.046 1803.06 162.634C1831.53 181.06 1857.27 203.315 1879.56 228.781C1899.57 251.633 1916.55 276.743 1930.04 303.417L1929.26 303.597C1909.19 263.907 1870.89 207.305 1802.48 163.035C1776.99 146.485 1747.72 132.385 1717.87 122.258C1689.85 112.755 1653.13 101.834 1617.51 101.71C1605.78 101.663 1594.9 102.593 1584.25 104.536C1552.87 110.257 1522.67 128.684 1499.21 156.422C1489.69 167.583 1481.93 179.434 1474.42 190.896C1472.01 194.568 1469.52 198.364 1467.05 202.034C1460.62 211.544 1454.92 222.875 1448.88 234.872C1435.94 260.572 1421.28 289.703 1394.38 310.767C1379.45 322.46 1361.88 330.512 1340.66 335.381C1322.68 339.507 1303.25 341.515 1281.28 341.515Z" fill="#FFE492"/>
<path d="M1303.27 344.12C1299 344.12 1294.65 344.028 1290.18 343.843C1270.65 343.034 1251.67 340.607 1232.32 337.979C1209.89 334.933 1187.24 330.857 1163.08 325.519C1143.96 321.259 1125.21 316.406 1107.35 311.092C1062.04 297.633 1017.06 277.82 961.49 246.852C947.689 239.161 933.894 231.095 920.553 223.294C913.29 219.048 905.782 214.656 898.343 210.368C858.865 187.669 817.463 171.182 775.287 161.362C719.56 148.385 662.286 146.009 600.186 154.097C567.377 158.371 533.956 165.072 503.538 173.477C479.103 180.229 457.817 189.711 435.28 199.75L433.722 200.444C430.202 202.017 426.643 203.612 423.041 205.226C420.966 206.157 418.877 207.094 416.77 208.038C403.629 213.955 389.435 220.127 373.159 224.878C354.26 230.394 335.568 233.107 316.008 233.174C283.444 233.281 250.229 228.184 218.11 223.25C213.526 222.545 208.783 221.817 204.18 221.127C182.6 217.888 165.587 216.024 150.632 215.258C95.4467 212.432 43.3663 214.423 7.74105 220.723L7.51294 220.142C43.2317 213.825 95.4193 211.826 150.701 214.658C165.697 215.426 182.754 217.296 204.375 220.54C208.981 221.232 213.724 221.96 218.311 222.665C250.036 227.538 282.831 232.574 314.964 232.574C315.31 232.574 315.656 232.574 316.005 232.572C357.566 232.432 387.151 220.649 416.278 207.538C418.385 206.594 420.474 205.658 422.549 204.727C426.151 203.111 429.707 201.517 433.23 199.942L434.788 199.248C457.363 189.193 478.685 179.694 503.2 172.92C533.673 164.499 567.152 157.786 600.018 153.505C662.275 145.396 719.703 147.78 775.581 160.792C817.862 170.638 859.36 187.162 898.926 209.911C906.365 214.201 913.875 218.591 921.138 222.839C934.474 230.638 948.266 238.702 962.059 246.387C1017.56 277.32 1062.48 297.105 1107.71 310.542C1125.54 315.847 1144.27 320.694 1163.36 324.947C1187.49 330.278 1210.11 334.348 1232.5 337.389C1266.49 342.007 1308.8 347.755 1350.93 338.901C1372.59 334.35 1390.16 326.302 1404.64 314.298C1431.18 292.31 1443.48 261.384 1454.34 234.101C1459.05 222.248 1463.51 211.053 1468.71 201.762C1470.73 198.141 1472.76 194.397 1474.73 190.775C1481.31 178.628 1488.12 166.068 1496.86 154.123C1506.73 140.547 1518.21 128.87 1530.98 119.416C1545.46 108.704 1561.27 101.139 1577.98 96.9322C1588.7 94.2319 1599.69 92.568 1611.57 91.8443C1627.49 90.8745 1644.43 91.9109 1663.37 95.0055C1679.39 97.6263 1696.56 101.694 1715.88 107.445C1747.02 116.719 1777.33 130.336 1803.53 146.821C1832.77 165.161 1858.71 187.636 1880.64 213.618C1900.39 237.014 1916.48 262.7 1928.46 289.965L1927.6 290.135C1902.3 232.574 1858.02 181.834 1802.92 147.262C1776.79 130.821 1746.57 117.243 1715.51 107.997C1673.9 95.607 1640.9 90.6635 1611.65 92.444C1599.85 93.1621 1588.94 94.8149 1578.29 97.4949C1538.54 107.502 1512.5 133.958 1497.66 154.388C1488.94 166.303 1482.14 178.848 1475.56 190.98C1473.6 194.604 1471.57 198.35 1469.54 201.973C1464.36 211.236 1459.91 222.419 1455.2 234.257C1444.32 261.599 1431.99 292.589 1405.34 314.677C1390.74 326.776 1373.02 334.888 1351.19 339.476C1336.39 342.586 1320.61 344.12 1303.27 344.12Z" fill="#FFE492"/>
<path d="M1322.32 347.108C1293.26 347.108 1265.32 342.079 1241.42 337.778C1218.93 333.732 1196.3 328.676 1172.21 322.322C1153.2 317.269 1134.57 311.653 1116.85 305.629C1063.71 287.591 1016.35 261.699 973.075 236.406C964.24 231.242 955.315 225.919 946.686 220.772C934.705 213.624 922.314 206.234 909.898 199.112C869.829 176.189 827.09 160.6 782.869 152.776C725.663 142.658 666.347 144.529 601.532 158.499C568.16 165.691 534.772 175.417 504.975 186.626C481.994 195.269 462.549 206.182 441.963 217.735C440.504 218.553 439.042 219.375 437.572 220.196L436.775 220.644C431.771 223.456 426.596 226.361 421.35 229.278C408.781 236.299 394.939 243.559 378.929 249.106C360.344 255.545 341.608 258.757 321.644 258.923C286.601 259.217 250.885 252.582 216.348 246.165C213.927 245.716 211.517 245.268 209.118 244.825C186.343 240.617 169.728 238.122 155.252 236.734C101.451 231.577 47.3041 229.956 6.69387 232.286L6.61145 231.64C47.2876 229.304 101.514 230.927 155.386 236.091C169.904 237.483 186.554 239.984 209.371 244.2C211.77 244.642 214.18 245.09 216.604 245.542C251.075 251.946 286.722 258.564 321.63 258.275C364.986 257.913 395.519 242.86 420.735 228.779C425.981 225.862 431.155 222.956 436.159 220.146L436.956 219.698C438.427 218.875 439.889 218.055 441.348 217.237C461.969 205.664 481.447 194.733 504.505 186.06C534.357 174.831 567.809 165.088 601.238 157.883C631.967 151.26 660.829 147.436 689.472 146.193C721.423 144.806 752.926 146.811 783.11 152.15C827.472 159.998 870.338 175.632 910.519 198.618C922.943 205.743 935.337 213.135 947.321 220.285C955.95 225.432 964.87 230.754 973.702 235.915C1016.93 261.181 1064.24 287.045 1117.27 305.05C1134.97 311.065 1153.58 316.673 1172.56 321.718C1196.61 328.063 1219.21 333.112 1241.67 337.152C1276.14 343.356 1319.05 351.078 1361.45 342.953C1383.69 338.689 1401.38 330.591 1415.52 318.198C1441.78 295.175 1451.61 262.347 1460.28 233.382C1463.76 221.744 1467.05 210.752 1471.11 201.725C1472.61 198.386 1474.11 194.936 1475.57 191.599C1481.27 178.547 1487.16 165.049 1495.22 152.106C1503.99 137.916 1514.55 125.53 1526.59 115.297C1540.19 103.749 1555.43 95.1948 1571.91 89.87C1582.61 86.4126 1593.64 84.0158 1605.62 82.5407C1621.77 80.5547 1639.69 80.6214 1658.88 82.7387C1675.68 84.5933 1694.06 88.0895 1713.49 93.133C1745.85 101.53 1777.15 114.629 1803.99 131.012C1833.99 149.267 1860.13 171.958 1881.7 198.458C1901.19 222.399 1916.39 248.662 1926.87 276.517L1925.93 276.676C1903.73 217.653 1860.2 166.093 1803.35 131.493C1776.59 115.163 1745.4 102.108 1713.15 93.7382C1671.34 82.8905 1636.23 79.435 1605.8 83.1792C1593.9 84.6432 1582.95 87.0234 1572.32 90.4548C1533.12 103.124 1509.24 131.108 1496.11 152.356C1488.07 165.265 1482.18 178.745 1476.49 191.781C1475.04 195.118 1473.53 198.569 1472.03 201.912C1467.98 210.909 1464.7 221.886 1461.22 233.509C1457.05 247.444 1452.32 263.237 1445.46 278.044C1437.6 295.009 1428.05 308.272 1416.28 318.592C1409.48 324.559 1401.66 329.638 1393.04 333.688C1383.76 338.043 1373.23 341.37 1361.71 343.577C1348.54 346.103 1335.32 347.108 1322.32 347.108Z" fill="#FFE492"/>
<path d="M1339.5 350.385C1329.89 350.385 1319.83 349.755 1309.19 348.499C1288.25 346.024 1268.21 341.534 1250.52 337.575C1228.23 332.583 1204.96 326.374 1181.35 319.12C1162.45 313.283 1143.95 306.905 1126.34 300.16C1075.82 280.825 1032.28 255.115 984.661 225.957C980.429 223.366 976.131 220.723 971.976 218.165C955.612 208.098 938.692 197.689 921.454 187.854C880.72 164.663 836.644 149.973 790.45 144.191C732.181 136.897 669.07 143.189 602.879 162.897C568.913 173.01 535.555 185.759 506.412 199.768C484.47 210.315 466.407 222.751 447.283 235.918C445.341 237.256 443.389 238.598 441.427 239.945C436.544 243.303 431.284 246.906 425.934 250.514C414.714 258.104 401.04 266.753 384.703 273.329C366.415 280.692 347.632 284.402 327.286 284.671C290.039 285.165 252.125 276.858 215.458 268.826L214.062 268.52C196.109 264.589 177.118 260.617 159.876 258.206C107.323 250.856 52.5526 245.753 5.65771 243.838L5.72091 243.146C52.6653 245.063 107.486 250.169 160.085 257.526C177.376 259.946 196.4 263.923 214.381 267.86L215.777 268.165C252.364 276.179 290.201 284.465 327.266 283.975C370.072 283.409 399.635 267.321 425.206 250.02C430.556 246.414 435.81 242.811 440.694 239.455C442.656 238.109 444.607 236.766 446.55 235.429C465.706 222.24 483.802 209.782 505.816 199.199C535.014 185.163 568.435 172.39 602.464 162.259C633.519 153.014 664.08 146.643 693.291 143.326C726.669 139.538 759.422 139.597 790.643 143.504C837.013 149.308 881.25 164.05 922.121 187.321C939.374 197.165 956.301 207.578 972.674 217.65C976.829 220.206 981.127 222.849 985.359 225.44C1032.94 254.571 1076.42 280.253 1126.86 299.555C1144.44 306.289 1162.92 312.657 1181.78 318.487C1205.36 325.73 1228.59 331.93 1250.85 336.914C1285.74 344.728 1329.17 354.451 1371.99 347.001C1394.83 343.028 1412.63 334.882 1426.41 322.096C1452.38 298.008 1459.9 261.7 1465.94 232.525C1468.29 221.161 1470.51 210.428 1473.52 201.692C1474.47 198.938 1475.43 196.101 1476.36 193.356C1481.17 179.097 1486.14 164.352 1493.6 150.093C1505.13 127.903 1527.02 98.2197 1565.86 82.8152C1576.58 78.562 1587.65 75.4304 1599.69 73.2427C1631.18 67.4367 1668.68 69.3153 1711.13 78.823C1744.7 86.3429 1776.98 98.923 1804.47 115.205C1835.22 133.373 1861.57 156.282 1882.78 183.303C1892.52 195.696 1901.11 208.933 1908.35 222.646C1915.26 235.744 1920.95 249.346 1925.29 263.073L1924.28 263.218C1905.19 202.729 1862.4 150.348 1803.79 115.725C1776.4 99.5042 1744.25 86.9722 1710.8 79.48C1668.55 70.0149 1631.25 68.1418 1599.96 73.9109C1588.01 76.0819 1577.03 79.1895 1566.38 83.4112C1527.8 98.7083 1506.04 128.24 1494.58 150.321C1487.13 164.542 1482.17 179.268 1477.36 193.508C1476.44 196.253 1475.48 199.092 1474.53 201.848C1471.53 210.554 1469.31 221.272 1466.96 232.62C1463.92 247.301 1460.48 263.94 1454.59 279.644C1447.83 297.69 1438.88 311.71 1427.25 322.504C1420.61 328.661 1412.84 333.855 1404.17 337.938C1394.82 342.337 1384.08 345.613 1372.24 347.671C1361.85 349.481 1351 350.385 1339.5 350.385Z" fill="#FFE492"/>
<path d="M1355.33 353.847C1343.81 353.847 1331.67 352.842 1318.7 350.827C1297.68 347.564 1277.46 342.148 1259.62 337.369C1237.16 331.354 1213.9 324.138 1190.48 315.918C1171.71 309.301 1153.33 302.161 1135.84 294.693C1087.72 274.158 1046.44 247.691 1002.74 219.673C1000.58 218.287 998.417 216.899 996.249 215.511C975.927 202.496 954.916 189.036 933.012 176.599C891.569 153.113 846.158 139.321 798.04 135.605C737.6 130.935 672.392 141.598 604.225 167.293C570.128 180.145 535.901 196.345 507.849 212.908C486.668 225.414 469.679 239.486 451.694 254.385C449.564 256.149 447.429 257.919 445.277 259.692C440.979 263.24 435.865 267.447 430.512 271.75C420.597 279.74 407.088 289.894 390.473 297.532C372.477 305.807 353.653 310.025 332.924 310.423C315.887 310.71 297.085 308.939 275.441 305.006C256.859 301.63 238.884 297.217 218.994 292.22C200.838 287.602 181.676 282.833 164.485 279.683C113.561 270.351 59.7715 262.179 4.61328 255.39L4.81113 254.663C60.0023 261.454 113.822 269.633 164.773 278.968C182.012 282.128 201.201 286.905 219.379 291.526C252.718 299.905 294.21 310.336 332.894 309.683C377.121 308.831 405.543 290.719 429.668 271.272C435.019 266.973 440.13 262.768 444.425 259.222C446.577 257.449 448.712 255.679 450.839 253.917C468.855 238.994 485.874 224.898 507.124 212.351C535.233 195.755 569.526 179.523 603.689 166.647C672.063 140.874 737.496 130.184 798.166 134.87C821.428 136.667 844.278 140.841 866.075 147.274C889.464 154.176 912.223 163.854 933.721 176.034C955.65 188.485 976.675 201.951 997.007 214.976C999.176 216.366 1001.34 217.752 1003.5 219.138C1047.16 247.132 1088.4 273.573 1136.43 294.069C1153.89 301.526 1172.25 308.657 1190.99 315.263C1214.38 323.47 1237.6 330.677 1260.03 336.683C1295.28 346.122 1339.14 357.869 1382.52 351.056C1406.01 347.366 1423.93 339.17 1437.29 326.003C1463.04 300.854 1467.62 262.437 1471.3 231.568C1472.62 220.528 1473.87 210.101 1475.93 201.668C1476.36 199.928 1476.78 198.179 1477.21 196.421C1481.06 180.539 1485.05 164.115 1491.97 148.087C1501.86 125.033 1521.65 93.7721 1559.8 75.7672C1570.44 70.7441 1581.54 66.8795 1593.74 63.9515C1610.7 59.8445 1629.6 57.9141 1649.91 58.2102C1668.45 58.4804 1688.25 60.6033 1708.75 64.5179C1743.54 71.1568 1776.8 83.2187 1804.94 99.3986C1836.45 117.478 1863 140.609 1883.85 168.148C1893.42 180.783 1901.71 194.293 1908.48 208.3C1914.96 221.715 1920.09 235.622 1923.7 249.634L1922.61 249.76C1906.88 188.699 1863.73 134.1 1804.23 99.9613C1776.2 83.8516 1743.09 71.8398 1708.45 65.2267C1665.74 57.072 1626.2 56.8721 1594.1 64.6456C1582 67.5514 1570.98 71.3863 1560.42 76.3706C1522.54 94.2515 1502.87 125.351 1493.03 148.29C1486.12 164.276 1482.14 180.676 1478.29 196.538C1477.87 198.296 1477.44 200.047 1477.01 201.787C1474.96 210.188 1473.71 220.602 1472.4 231.626C1468.7 262.583 1464.1 301.112 1438.2 326.422C1431.76 332.768 1424.05 338.08 1415.31 342.206C1405.9 346.644 1394.95 349.864 1382.77 351.778C1373.97 353.155 1364.87 353.847 1355.33 353.847Z" fill="#FFE492"/>
<path d="M1370.2 357.45C1357.08 357.45 1343.18 356.021 1328.2 353.152C1307.01 349.093 1286.66 342.754 1268.72 337.163C1246.03 330.096 1222.78 321.87 1199.61 312.715C1180.97 305.331 1162.71 297.426 1145.33 289.225C1102.52 269.036 1065.94 244.303 1027.21 218.117C1020.87 213.836 1014.33 209.411 1007.83 205.06C984.994 189.772 965.494 177.166 944.562 165.341C902.38 141.545 855.636 128.65 805.625 127.014C742.784 124.958 675.471 139.986 605.561 171.682C570.832 187.429 536.636 206.733 509.274 226.041C488.661 240.587 472.546 256.42 455.487 273.183C453.373 275.26 451.252 277.344 449.117 279.43C445.313 283.152 440.279 288.057 435.083 292.974C413.214 313.718 384.643 335.075 338.556 336.167C337.119 336.199 335.676 336.214 334.236 336.214C298.248 336.214 261.507 326.621 223.919 315.91L221.573 315.236C202.955 309.884 185.368 304.829 169.088 301.149C107.739 287.283 48.4063 275.578 3.5697 266.931L3.89123 266.174C48.7389 274.825 108.088 286.532 169.459 300.404C185.782 304.092 203.389 309.154 222.032 314.512L224.376 315.186C263.34 326.289 301.392 336.193 338.514 335.383C384.09 334.302 412.422 313.11 434.129 292.521C439.323 287.607 444.352 282.706 448.155 278.986C450.29 276.898 452.409 274.816 454.522 272.739C471.609 255.95 487.748 240.091 508.427 225.499C535.844 206.15 570.109 186.807 604.907 171.029C637.205 156.385 669.513 145.141 700.934 137.606C736.985 128.961 772.229 125.133 805.68 126.227C855.95 127.871 902.93 140.828 945.31 164.736C966.272 176.579 985.791 189.198 1008.65 204.499C1015.15 208.85 1021.7 213.277 1028.03 217.558C1066.73 243.718 1103.27 268.427 1146 288.575C1163.36 296.767 1181.59 304.659 1200.2 312.032C1223.34 321.175 1246.55 329.39 1269.2 336.445C1304.76 347.522 1349 361.307 1393.04 355.101C1417.12 351.709 1435.15 343.465 1448.17 329.9C1473.59 303.606 1475.11 263.026 1476.34 230.42C1476.74 219.781 1477.12 209.731 1478.33 201.634L1478.36 201.449C1481.08 183.316 1483.89 164.567 1490.33 146.068C1495.92 129.933 1503.69 115.426 1513.44 102.947C1524.43 88.8793 1537.98 77.3597 1553.72 68.7071C1564.25 62.9177 1575.39 58.3184 1587.78 54.6482C1621.24 44.674 1662.25 43.1341 1706.36 50.1988C1724.12 53.0416 1741.63 57.3485 1758.42 62.9973C1775.31 68.6793 1791.12 75.607 1805.4 83.5841C1837.68 101.576 1864.43 124.926 1884.92 152.987C1903.34 178.208 1916.2 206.979 1922.11 236.187L1920.95 236.293C1908.31 173.779 1865.92 118.339 1804.66 84.1893C1776.01 68.1944 1741.93 56.7044 1706.1 50.9687C1662.23 43.9448 1621.48 45.468 1588.26 55.3737C1575.97 59.0161 1564.92 63.5784 1554.47 69.3216C1525.08 85.4775 1503.3 112.08 1491.48 146.251C1485.05 164.702 1482.24 183.425 1479.53 201.532L1479.5 201.717C1478.29 209.785 1477.91 219.82 1477.51 230.444C1476.28 263.15 1474.74 303.852 1449.15 330.332C1442.87 336.872 1435.22 342.299 1426.42 346.46C1416.94 350.946 1405.79 354.113 1393.28 355.877C1385.84 356.924 1378.16 357.45 1370.2 357.45Z" fill="#FFE492"/>
<path d="M339.41 361.983C323.317 361.983 305.793 359.872 286.016 355.559C266.365 351.275 246.931 345.359 228.854 339.607C225.581 338.559 222.333 337.514 219.107 336.475C203.048 331.306 187.879 326.423 173.702 322.62C117.172 307.46 63.289 293.834 11.1783 280.66L2.54407 278.476L2.97824 277.697L11.6125 279.881C63.7259 293.058 117.617 306.684 174.158 321.848C188.373 325.661 203.562 330.549 219.64 335.726C222.864 336.764 226.112 337.81 229.382 338.855C266.488 350.664 305.911 362.107 344.147 361.088C391.149 359.77 419.317 335.109 438.602 313.775C443.543 308.319 448.303 302.881 451.897 298.753C453.881 296.479 455.851 294.206 457.816 291.939C474.112 273.143 489.504 255.39 509.746 238.651C536.465 216.56 570.697 194.102 606.141 175.418C639.023 158.083 672.206 144.387 704.77 134.71C742.121 123.611 778.603 117.851 813.204 117.59C865.268 117.068 913.624 129.132 956.911 153.443C980.907 166.935 1002.42 181.531 1020.31 194.03C1030.04 200.831 1039.77 207.804 1049.18 214.546C1082.49 238.416 1116.94 263.097 1155.58 283.088C1172.83 292.02 1190.95 300.675 1209.41 308.809C1232.26 318.854 1255.47 328.074 1278.39 336.214C1314.21 348.937 1358.79 364.771 1403.58 359.152C1428.23 356.059 1446.38 347.767 1459.05 333.803C1484.13 306.316 1482.44 263.514 1481.08 229.121C1480.68 218.951 1480.29 209.343 1480.75 201.609C1481.78 184.172 1483.33 163.907 1488.71 144.059C1493.24 127.24 1500.09 112.025 1509.05 98.8357C1519.19 83.9162 1532.18 71.4082 1547.67 61.658C1557.92 55.1968 1569.42 49.7128 1581.83 45.3559C1599.55 39.1186 1619.42 35.1967 1640.92 33.7012C1661.04 32.3001 1682.26 33.0368 1703.99 35.8889C1722.31 38.295 1740.37 42.2521 1757.66 47.6528C1775.06 53.0868 1791.28 59.8572 1805.88 67.775C1822.7 76.8922 1838.17 87.6586 1851.85 99.776C1864.81 111.257 1876.3 124.061 1886 137.831C1904.14 163.593 1916.08 192.958 1920.52 222.747L1919.29 222.83C1909.75 158.86 1868.13 102.582 1805.1 68.4247C1776.23 52.7629 1740.24 41.4988 1703.75 36.707C1658.63 30.7825 1616.67 34.0288 1582.41 46.0944C1570.09 50.4161 1558.69 55.8575 1548.51 62.267C1519.34 80.6383 1499.63 108.206 1489.93 144.209C1484.56 164.004 1483.01 184.233 1481.99 201.642C1481.53 209.349 1481.91 218.942 1482.31 229.099C1482.98 246.066 1483.74 265.298 1481.19 283.889C1478.23 305.463 1471.34 321.931 1460.11 334.238C1454 340.971 1446.41 346.514 1437.55 350.712C1427.99 355.246 1416.64 358.361 1403.81 359.97C1397.34 360.782 1390.87 361.151 1384.44 361.151C1345.95 361.151 1308.65 347.902 1277.81 336.949C1254.86 328.796 1231.62 319.562 1208.74 309.503C1190.25 301.358 1172.11 292.69 1154.83 283.745C1116.11 263.713 1081.63 239.007 1048.28 215.114C1038.87 208.374 1029.14 201.403 1019.42 194.605C1001.56 182.121 980.074 167.546 956.122 154.079C913.069 129.898 864.995 117.905 813.223 118.419C731.917 119.034 656.149 150.107 606.904 176.069C571.532 194.716 537.369 217.126 510.707 239.173C490.526 255.862 475.156 273.588 458.885 292.353C456.92 294.621 454.947 296.893 452.963 299.17C449.366 303.299 444.604 308.741 439.66 314.202C431.564 323.159 418.855 336.196 402.021 345.968C393.845 350.714 385.145 354.443 376.162 357.055C366.145 359.966 355.389 361.602 344.2 361.915C342.614 361.961 341.017 361.983 339.41 361.983Z" fill="#FFE492"/>
<path d="M344.577 387.75C328.465 387.75 310.977 385.475 291.304 380.834C270.935 376.029 250.798 369.273 233.788 363.297C228.561 361.457 223.345 359.592 218.3 357.787C204.197 352.743 190.875 347.978 178.314 344.087C133.205 330.113 88.3902 316.471 45.0484 303.276C30.712 298.912 15.8892 294.4 1.52258 290.017L2.06118 289.216C16.4278 293.598 31.2506 298.111 45.587 302.475C88.9288 315.669 133.749 329.314 178.86 343.289C191.455 347.191 204.793 351.961 218.913 357.011C223.955 358.816 229.171 360.68 234.392 362.52C269.671 374.909 310.592 388.024 349.776 386.79C397.886 385.239 424.907 358.311 443.077 335.025C447.735 329.06 452.239 323.071 455.641 318.52C457.388 316.184 459.125 313.85 460.859 311.522C476.446 290.58 491.167 270.8 511.068 251.805C536.952 227.1 571.156 201.53 607.375 179.807C657.815 149.685 735.773 112.942 820.726 108.957C874.752 106.355 924.477 117.523 968.514 142.154C988.3 153.226 1007.87 165.996 1031.96 183.566C1044.14 192.445 1056.22 201.647 1067.9 210.544C1098.31 233.692 1129.74 257.629 1165.16 277.609C1182.32 287.291 1200.31 296.706 1218.63 305.594C1240.82 316.345 1264.01 326.573 1287.57 335.993C1323.75 350.376 1368.78 368.279 1414.11 363.212C1438.97 360.491 1457.75 351.912 1469.94 337.717C1494.67 308.986 1489.36 261.982 1485.48 227.662C1484.4 218.031 1483.37 208.934 1483.17 201.595C1482.72 185.286 1482.76 163.781 1487.09 142.061C1494.57 104.425 1512.91 75.0039 1541.61 54.6206C1551.67 47.4394 1563.2 41.2003 1575.89 36.0753C1593.94 28.7756 1614.31 23.8654 1636.43 21.4833C1657.26 19.2401 1679.19 19.2753 1701.61 21.5888C1720.52 23.584 1739.12 27.2006 1756.89 32.3348C1774.83 37.5208 1791.47 44.1283 1806.35 51.974C1823.55 61.0393 1839.26 71.8426 1853.05 84.0859C1866.12 95.6888 1877.56 108.674 1887.08 122.685C1904.94 148.989 1915.96 178.947 1918.94 209.319L1917.64 209.376C1911.22 143.946 1870.36 86.827 1805.55 52.668C1776.16 37.171 1739.18 26.4417 1701.41 22.4587C1654.86 17.6558 1611.69 22.6253 1576.57 36.8304C1563.98 41.9128 1552.54 48.102 1542.56 55.2259C1514.06 75.474 1495.83 104.728 1488.39 142.18C1484.06 163.84 1484.03 185.302 1484.48 201.58C1484.68 208.893 1485.7 217.979 1486.79 227.598C1488.79 245.338 1491.06 265.447 1489.77 285.079C1488.25 307.939 1482.14 325.301 1471.07 338.159C1465.11 345.094 1457.58 350.758 1448.68 354.992C1439.04 359.584 1427.48 362.642 1414.33 364.082C1393.94 366.36 1371.99 364.313 1347.24 357.822C1325.72 352.179 1305.1 343.983 1286.91 336.754C1263.32 327.32 1240.09 317.078 1217.87 306.312C1199.52 297.411 1181.5 287.983 1164.32 278.288C1128.83 258.268 1097.36 234.305 1066.93 211.133C1055.25 202.237 1043.17 193.041 1031 184.17C1006.95 166.631 987.42 153.885 967.681 142.839C923.905 118.349 874.496 107.247 820.814 109.833C736.227 113.803 658.527 150.433 608.238 180.464C572.091 202.143 537.957 227.659 512.129 252.312C492.283 271.253 477.584 291.005 462.022 311.916C460.288 314.246 458.551 316.58 456.803 318.916C453.398 323.471 448.892 329.466 444.228 335.436C425.899 358.929 398.606 386.097 349.834 387.669C348.1 387.722 346.344 387.75 344.577 387.75Z" fill="#FFE492"/>
<path d="M349.847 413.519C305.824 413.519 259.633 395.309 218.684 379.164C206.101 374.204 194.216 369.518 182.922 365.555L0.5 301.559L1.13481 300.739L183.556 364.735C194.881 368.707 206.78 373.399 219.38 378.366C261.911 395.135 310.119 414.141 355.404 412.494C404.574 410.708 430.477 381.513 447.55 356.28C453.134 348.028 458.526 339.63 463.741 331.509C478.006 309.299 492.755 286.332 512.384 264.957C527.971 247.984 547.333 230.185 568.378 213.485C591.464 195.164 616.182 178.354 641.84 163.525C670.131 147.177 698.898 133.653 727.337 123.331C758.793 111.915 789.783 104.462 819.45 101.176C878.882 94.5966 932.935 104.582 980.105 130.858C1019.31 152.692 1052.62 179.692 1084.84 205.804C1112.89 228.532 1141.89 252.032 1174.73 272.121C1212.66 295.323 1253.71 316.735 1296.75 335.76C1333.01 351.79 1378.14 371.742 1424.65 367.258C1463.93 363.471 1486.64 345.77 1494.07 313.139C1500.4 285.384 1494.38 252.46 1489.55 226.006C1487.9 216.99 1486.34 208.475 1485.58 201.569C1481.37 163.501 1484.05 132.076 1493.79 105.5C1499.87 88.9183 1508.84 74.1375 1520.45 61.5685C1533.42 47.5281 1550.07 35.8234 1569.94 26.7802C1587.13 18.9568 1606.5 13.2747 1627.52 9.89139C1647.53 6.67094 1668.59 5.59191 1690.13 6.6839C1732.49 8.83086 1773.93 19.2992 1806.81 36.1584C1824.38 45.1701 1840.34 56.0123 1854.24 68.3814C1867.4 80.1046 1878.81 93.2733 1888.15 107.525C1905.72 134.371 1915.82 164.923 1917.34 195.874L1915.97 195.906C1912.73 129.994 1871.61 70.5506 1805.97 36.8969C1736.27 1.15731 1637.33 -2.77571 1570.7 27.5483C1504.71 57.5874 1477.31 114.488 1486.95 201.501C1487.71 208.384 1489.26 216.889 1490.91 225.893C1495.75 252.404 1501.79 285.399 1495.43 313.28C1491.97 328.466 1485.01 340.67 1474.75 349.556C1468.98 354.552 1462.02 358.635 1454.07 361.689C1445.61 364.939 1435.78 367.121 1424.84 368.176C1420.37 368.607 1415.82 368.824 1411.19 368.824C1394.34 368.824 1376.39 365.953 1356.72 360.138C1334.56 353.586 1313.17 344.132 1295.99 336.536C1252.9 317.483 1211.78 296.043 1173.8 272.808C1140.89 252.676 1111.86 229.149 1083.78 206.396C1051.6 180.318 1018.32 153.351 979.223 131.573C932.369 105.476 878.687 95.5554 819.665 102.091C700.274 115.309 577.29 196.035 513.544 265.445C493.967 286.761 479.238 309.697 464.992 331.877C459.773 340.002 454.379 348.405 448.79 356.665C437.454 373.417 426.259 385.413 413.557 394.411C405.629 400.027 397.028 404.454 387.992 407.569C377.946 411.032 367.003 413.001 355.467 413.421C353.604 413.486 351.727 413.519 349.847 413.519Z" fill="#FFE492"/>
</g>
</svg>
