<svg width="583" height="544" viewBox="0 0 583 544" fill="none" xmlns="http://www.w3.org/2000/svg">
<circle cx="300.122" cy="271.772" r="270.382" stroke="#A7CEFC" stroke-width="2" stroke-dasharray="15 15"/>
<circle cx="300.122" cy="271.772" r="157.888" stroke="#A7CEFC" stroke-width="2" stroke-dasharray="15 15"/>
<circle cx="28.7394" cy="272.183" r="28.7394" fill="#FF5758"/>
<circle cx="459.011" cy="272.183" r="28.7394" fill="#37A3FF"/>
<circle cx="300.532" cy="430.66" r="28.7394" fill="#FFBF60"/>
<circle cx="141.234" cy="272.183" r="28.7394" fill="#37A3FF"/>
<circle cx="141.234" cy="495.529" r="28.7394" fill="#37A3FF"/>
<circle cx="491.855" cy="87.4291" r="28.7394" fill="#37A3FF"/>
<circle cx="554.26" cy="358.401" r="28.7394" fill="#00CA75"/>
<mask id="mask0_9_7867" style="mask-type:alpha" maskUnits="userSpaceOnUse" x="525" y="329" width="58" height="59">
<circle cx="554.26" cy="358.401" r="28.7394" fill="#C4C4C4"/>
</mask>
<g mask="url(#mask0_9_7867)">
</g>
<circle cx="301.354" cy="112.884" r="28.7394" fill="#00CA75"/>
<mask id="mask1_9_7867" style="mask-type:alpha" maskUnits="userSpaceOnUse" x="272" y="84" width="59" height="58">
<circle cx="301.354" cy="112.884" r="28.7394" fill="#C4C4C4"/>
</mask>
<g mask="url(#mask1_9_7867)">
</g>
<circle cx="143.698" cy="48.0151" r="28.7394" fill="#FFDC4D"/>
<g filter="url(#filter0_d_9_7867)">
<rect x="259" y="231" width="82.1127" height="82.1127" rx="10" fill="white"/>
</g>
<g clip-path="url(#clip0_9_7867)">
<path d="M314.414 260.026H288.584C287.727 260.026 287.027 260.752 287.027 261.638V288.359C287.027 289.245 287.727 289.972 288.584 289.972H314.414C315.271 289.972 315.973 289.248 315.973 288.359V261.641C315.973 260.752 315.271 260.026 314.414 260.026Z" fill="#006CA2"/>
<path d="M303.229 263.741H295.412C295.383 263.741 295.356 263.755 295.328 263.759H293.989C293.733 263.759 293.527 263.975 293.527 264.24V285.805C293.527 286.07 293.733 286.283 293.989 286.283H298.509C298.765 286.283 298.972 286.07 298.972 285.805V278.949H303.229C307.323 278.949 310.653 275.539 310.653 271.346C310.653 267.153 307.323 263.741 303.229 263.741ZM302.871 274.468C302.798 274.473 302.726 274.48 302.655 274.48H299.049C299.049 274.48 299.03 274.47 299.024 274.468C299.005 274.465 298.987 274.458 298.972 274.447C298.949 274.424 298.928 274.393 298.928 274.356V268.337C298.928 268.299 298.949 268.269 298.972 268.245C298.985 268.234 299.001 268.231 299.017 268.227C299.03 268.222 299.039 268.213 299.049 268.213H302.655C302.742 268.213 302.825 268.217 302.911 268.227C304.402 268.365 305.578 269.71 305.578 271.344C305.578 272.996 304.38 274.349 302.871 274.468Z" fill="white"/>
</g>
<defs>
<filter id="filter0_d_9_7867" x="220" y="196" width="160.113" height="160.113" filterUnits="userSpaceOnUse" color-interpolation-filters="sRGB">
<feFlood flood-opacity="0" result="BackgroundImageFix"/>
<feColorMatrix in="SourceAlpha" type="matrix" values="0 0 0 0 0 0 0 0 0 0 0 0 0 0 0 0 0 0 127 0" result="hardAlpha"/>
<feMorphology radius="11" operator="erode" in="SourceAlpha" result="effect1_dropShadow_9_7867"/>
<feOffset dy="4"/>
<feGaussianBlur stdDeviation="25"/>
<feComposite in2="hardAlpha" operator="out"/>
<feColorMatrix type="matrix" values="0 0 0 0 0 0 0 0 0 0 0 0 0 0 0 0 0 0 0.25 0"/>
<feBlend mode="normal" in2="BackgroundImageFix" result="effect1_dropShadow_9_7867"/>
<feBlend mode="normal" in="SourceGraphic" in2="effect1_dropShadow_9_7867" result="shape"/>
</filter>
<clipPath id="clip0_9_7867">
<rect width="29" height="30" fill="white" transform="translate(287 260)"/>
</clipPath>
</defs>
</svg>
